<svg class="bank-logo bbt" width="126" height="69.3" viewBox="0 0 208.2 69.3"><g><path d="M169.2 54.9l-1.6-1.2c-1 2.1-2.7 3.7-4.9 3.7-4 0-4.3-1.6-9-6.3 4.7-6.9 4.4-10.4 7-14.1 2.6-3.7 4.8-5.8 9.2-5.9v-1.8h-16.2v1.6c3.2-.2 3.8 2.3 3.3 4.4-.8 4.3-5.4 13.2-6 12.6-6.9-7.3-15.4-23.1-15.4-23.1 6.2-3.4 8.7-10.5 8.7-12.3 0-6.1-3.2-11.3-12.3-12.5-5.4-.6-15.8 4-16 13.5-.1 4.3 2.6 8.7 5.4 14.1-7.3 2.9-13 8.5-15.4 15.9-2.9-6.8-10.7-9.5-15.8-10.8h.2c3.8-1.3 15.5-3.6 15-14.5C104.7 3.9 86.5 1.5 80 1.9H51.6v1.9c4.2.3 8.4-.9 8.4 6.2v48.8c0 5.9-3.2 6-8.3 6.5V67h29.5c16 .2 22.7-4.4 24.9-11.4 2.7 5.4 9.3 13.5 20.3 13.7 6.1.1 11.7-1.5 18.4-7.9 2.4 2.1 5.8 5.6 11 5.9 1.5.1 5.9-.8 9.6-5.4 3-3.9 3.7-6.9 3.8-7zM74.6 5.4c.1 0 3.1-.1 4.1 0 9.1.6 11.5 8.5 11.5 11.4 0 8.7-2.7 15.4-15.7 15V5.4zM80 63.8c-3.9 0-5.4-1.4-5.4-5.7V34.9h3.6c9.4-.8 12.8 6 13.3 13 .5 8.5-2.9 15.9-11.5 15.9zm54.4-57.7c5.8 0 6.9 6.1 5.5 9.2-2.5 5.1-6 6.4-6.1 6.2-2-3.3-4.6-6.9-4.7-10 0-2.5 1.9-5.4 5.3-5.4zM120 49.3c-4.5-8.5-1.2-14.6 3.2-18.2 0 0 8.6 17.3 17.5 26.3-3.4 3.1-14 4.6-20.7-8.1zM55.8 48.9c0-11-9.6-14.4-16-16.1 3.5-.7 14.1-4.9 13.9-14.8C53.5 3.7 34.9 1.5 28.4 1.9H0v1.9c4.2.3 8.4-.9 8.4 6.2v48.6c0 5.9-3.2 6.1-8.3 6.7V67h29.5c20.4-.7 26.2-7.5 26.2-18.1zM23 5.4c.1 0 3.1-.1 4.1 0 9.1.6 11.5 8.5 11.5 11.4 0 8.7-2.7 15.4-15.7 15V5.4zm5.4 58.2c-3.8 0-5.4-1.4-5.4-5.7V34.8h3.6c8.3-.2 13.1 4.5 13.7 13 .4 8.5-3.1 15.7-11.9 15.8zM153.2 1.9v16.3h1.7c.7-8.3 5.5-13.4 10.4-13.4h8.2V59c.4 4.6-3.7 6.3-8.7 6.3V67h32.4v-1.7c-5.1-.6-9.4-.4-9.3-5.4v-55h7.6c4.9 0 10.9 4.2 10.9 13.4h1.9V1.9h-55.1z"></path></g></svg>
