<!-- bofa -->
<!-- .Logos__bofa: #0052c2 -->
<!-- .Logos__bofa--red-part: #e92d0d -->
<svg class="Logos Logos__bofa" width="149.9" height="52.4" viewBox="0 0 149.9 52.4"><path d="M55.8 5.3c-3.4 0-5.2 2.5-5.2 6s1.7 6.1 5.2 6.1 5.2-2.5 5.2-6.1c-.1-3.4-1.8-6-5.2-6zm0 9.7c-.9 0-1.4-.8-1.4-3.7 0-2.6.3-3.6 1.4-3.6 1.1 0 1.4 1 1.4 3.6-.1 2.9-.5 3.7-1.4 3.7zM67.1 4.4c0-.7.4-1.1 1.4-1.1.2 0 .5 0 .7.1V.6C68.6.5 68 .5 67.3.5c-2.5 0-3.8 1.1-3.8 3.8v1.3H62v2.6h1.5v8.9h3.7V8.3h2.1V5.6h-2.1l-.1-1.2zM23.7 8.9c0-2.5-2.4-3.5-4.5-3.5s-4.2.9-4.6 3.1l3.2.7c0-.7.3-1.5 1.2-1.5.7 0 1 .5 1 1.2v1c-2.5.3-5.9 1.2-5.9 4.1-.1 2.2 1.4 3.3 3.2 3.3 1.1 0 2.2-.6 2.8-1.3 0 .2 0 .7.1 1.1H24c-.1-.2-.4-.6-.4-1.9V8.9h.1zm-4.9 6c-.7 0-1.1-.4-1.1-1.2 0-1.5 1-2 2.3-2.1v2.5c-.3.5-.8.8-1.2.8zm14.1-9.5c-1.5 0-2.5.7-3.2 1.5V5.7H26v11.5h3.7V9c.3-.4.8-.7 1.2-.7.6 0 .9.4.9 1v7.9h3.7V8.1c-.1-1.6-1-2.7-2.6-2.7zm15 .2h-3.6l-2.7 3.5h-.1V.8h-3.7v16.4h3.7v-4.1l.8-.9h.1l1.8 5h3.9L45 9.3l2.9-3.7zM10.1 8.7c1.2-.6 2.6-1.7 2.6-3.8 0-2.3-1.9-4-4.8-4H1.5v16.3h6.3c3.1 0 5.3-1.6 5.3-4.4.2-2.1-1.1-3.6-3-4.1zM5.6 3.8h1.5c1 0 2 .3 2 1.8 0 1-.6 1.8-2.1 1.8H5.6V3.8zm1.5 10.3H5.6V10h1.5c1.4 0 2.1.8 2.1 2.1 0 1.7-1.2 2-2.1 2zM148 15.3V9c0-2.5-2.4-3.5-4.5-3.5s-4.2.9-4.6 3.1l3.2.7c0-.7.3-1.5 1.2-1.5.7 0 1 .5 1 1.2v1c-2.5.3-5.9 1.2-5.9 4.1-.1 2.2 1.4 3.3 3.2 3.3 1.1 0 2.2-.6 2.8-1.3 0 .2 0 .7.1 1.1h3.8c-.1-.2-.3-.6-.3-1.9zm-4.9-.4c-.7 0-1.1-.4-1.1-1.2 0-1.5 1-2 2.3-2.1v2.5c-.3.5-.8.8-1.2.8zm-35.6-9.6c-3.4 0-5.1 2.7-5.1 6 0 3.1 1.6 6.1 5.2 6.1 3.3 0 4.4-2.6 4.6-3.1l-2.5-.9c-.2.9-1 1.6-1.9 1.6-1.5 0-1.8-1.7-1.8-2.7h6.2v-.8c.1-3-1.1-6.2-4.7-6.2zm1.4 4.7h-2.7c-.1-1.1.3-2.4 1.4-2.4 1.2.1 1.3 1.4 1.3 2.4zm13.4-4.4h3.7v11.5h-3.7V5.6zm0-4.8h3.7v3.3h-3.7V.8zM133 7.7c.6 0 .9.3 1.1.8.2.4.2 1 .2 1.5h3.1c0-1.2-.6-4.5-4.5-4.5-3.5 0-5.3 3.1-5.3 6.3 0 2.8 1.8 5.8 5.1 5.8 2.7 0 4.3-1.5 4.6-4.2l-2.8-.4c0 .9-.1 2.2-1.5 2.2-1 0-1.4-.9-1.4-3.4 0-2.6.1-4.1 1.4-4.1zM75.5.8l-3.8 16.3h3.5l.7-3.3h3.8l.7 3.3h4L80.9.8h-5.4zM76.6 11L78 4.3l1.2 6.7h-2.6zm40.9-3.8l-.1-1.6h-3.6v11.5h3.7V9.7c.4-.5 1.1-.9 2.1-.9.7 0 1.1.2 1.5.3V5.4c-1.4 0-2.8.6-3.6 1.8zM98.2 5.4c-1.6 0-2.6.9-3.3 1.6-.4-.9-1.1-1.6-2.3-1.6-1.4 0-2.5.7-3.3 1.5V5.7h-3.6v11.5h3.6V9c.3-.4.9-.7 1.3-.7.7 0 .9.4.9 1.1v7.8h3.6V9c.2-.3.8-.7 1.3-.7.7 0 .9.4.9 1.1v7.8h3.6V8c-.1-1.6-1.2-2.6-2.7-2.6zM68.9 33.1c1.5.6 2.9 1.2 4.4 1.9-4.6 1.9-9 4-13.2 6.6-1.5-.8-2.8-1.5-4.3-2.2 4.2-2.4 8.6-4.6 13.1-6.3m-5.5-2c-4.7 1.5-9.3 3.4-13.6 5.9 1.4.5 2.7 1.1 4.1 1.6 4.2-2.5 8.6-4.5 13.2-6.2-1.2-.4-2.4-.9-3.7-1.3"></path><path class="Logos__bofa--red-part" d="M78.8 32.9c-3.7-1.8-7.6-3.3-11.6-4.5-1.4.4-2.7.9-4.2 1.3 4.1 1.2 8.1 2.7 12 4.6 1.3-.6 2.6-1 3.8-1.4m6.2-1.8c-3.8-1.7-7.7-3-11.8-4.2l-3.8.9c4 1.2 7.9 2.6 11.7 4.4 1.2-.4 2.5-.8 3.9-1.1m9.8 3.2c-9.6 3.2-18.5 7.8-26.7 13.6 2.1 1.3 4 2.5 6 3.9 7.6-6.1 16.2-11.2 25.3-15-1.6-.8-3.1-1.7-4.6-2.5M88 31.2c-10 2.6-19.3 6.9-27.7 12.4 1.9 1 3.7 2 5.6 3 8.2-5.7 17.4-10.2 27.2-13.1-1.5-.7-3.2-1.5-5.1-2.3"></path></svg>
