<!-- capone -->
<!-- .Logos__capone: #a12831 -->
<!-- .Logos__capone .Logos__capone-type: #003a6f -->
<svg class="bank-logo capone" width="130" height="47" viewBox="0 0 130 47"><g><path d="M89.0803738,36.0874018 C89.0803738,36.0874018 88.9942226,36.0874018 89.0803738,36.0874018 C83.0497876,39.4304153 77.0192014,42.6877104 71.677825,45.4306958 C78.5699235,42.3448373 84.2559048,39.6018519 89.5972812,36.7731481 C89.4249788,36.6017116 89.2526763,36.3445567 89.0803738,36.0874018"></path><path d="M125.263891,6.00028058 L125.263891,6.17171717 C125.091589,5.7431257 124.833135,5.31453423 124.48853,4.88594276 C115.873407,-4.62878788 59.7028037,3.94304153 35.8389125,9.17185746 L35.3220051,9.25757576 C35.2358539,9.25757576 35.1497026,9.42901235 35.1497026,9.51473064 C35.1497026,9.60044893 35.2358539,9.68616723 35.4081563,9.68616723 L35.9250637,9.60044893 C55.7398471,6.08599888 96.8339847,1.20005612 105.707562,9.94332211 C108.37825,12.6005892 107.775191,16.029321 104.673747,20.0580808 C106.31062,21.0867003 107.516737,22.8010662 108.119796,24.8583053 C108.205947,25.2011785 108.292099,25.6297699 108.37825,25.9726431 C108.37825,25.9726431 108.464401,25.9726431 108.464401,25.8869248 C121.990144,17.6579686 129.485302,12.3434343 125.263891,6.00028058 L125.263891,6.00028058 Z M125.436194,6.51459035 C125.436194,6.42887205 125.436194,6.34315376 125.350042,6.34315376 C125.350042,6.34315376 125.436194,6.42887205 125.436194,6.51459035 L125.436194,6.51459035 Z M88.2188615,34.2015993 C82.7051827,38.0589226 76.157689,42.1734007 69.093288,46.4593154 L68.8348343,46.630752 C68.7486831,46.7164703 68.7486831,46.8021886 68.7486831,46.8879068 C68.8348343,46.9736251 68.9209856,46.9736251 69.0071368,46.9736251 L69.2655905,46.8879068 C75.2100255,43.8020483 82.102124,40.1161616 88.9942226,36.3445567 C88.9942226,36.3445567 89.0803738,36.3445567 89.0803738,36.2588384 C88.7357689,35.573092 88.4773152,34.8873457 88.2188615,34.2015993 L88.2188615,34.2015993 Z"></path><path class="Logos__capone-type" d="M31.1005947,33.515853 L32.0482583,28.1156004 C32.2205607,27.3441358 32.306712,26.829826 32.306712,26.3155163 C32.306712,24.8583053 31.1005947,23.7439675 27.0514868,23.7439675 C24.5531011,23.7439675 22.1408666,24.0011223 19.6424809,24.3439955 L18.6086661,27.1726992 C20.5039932,26.6583895 24.2946474,26.0583614 26.2761257,26.4012346 C27.0514868,26.5726712 27.2237893,26.829826 27.0514868,27.4298541 C26.9653356,27.7727273 26.8791844,27.9441639 26.4484282,28.0298822 C26.1899745,28.1156004 25.5869159,28.3727553 24.6392523,28.4584736 C22.8300765,28.6299102 21.4516568,28.8013468 20.5039932,28.8870651 C19.5563297,29.0585017 18.8671198,29.2299383 18.2640612,29.4870932 C17.6610025,29.744248 17.1440952,30.0871212 16.7994902,30.5157127 C16.4548853,30.9443042 16.1964316,31.6300505 16.1102804,32.1443603 C16.1102804,33.0015432 16.4548853,33.4301347 17.1440952,34.115881 C17.833305,34.7159091 18.8671198,34.8873457 20.6762957,34.8873457 C21.7101105,34.8873457 22.4854715,34.8016274 23.3469839,34.5444725 C24.2084962,34.2873176 25.242311,33.8587262 26.017672,33.4301347 L26.1038233,34.8016274 L31.6175021,34.8016274 L31.6175021,34.6301908 C31.186746,34.3730359 31.0144435,34.0301627 31.1005947,33.515853 L31.1005947,33.515853 Z M26.362277,31.1157407 C26.2761257,31.3728956 26.1038233,31.6300505 25.8453696,31.8014871 C25.5869159,32.058642 25.1561597,32.2300786 24.7254036,32.4015152 C24.2946474,32.5729517 23.8638912,32.65867 23.3469839,32.65867 C22.7439252,32.65867 22.3131691,32.5729517 22.0547154,32.4015152 C21.7962617,32.2300786 21.7101105,31.9729237 21.7962617,31.7157688 C21.8824129,31.4586139 21.9685641,31.201459 22.2270178,31.0300224 C22.4854715,30.8585859 23.0023789,30.6871493 23.6915888,30.601431 C24.7254036,30.4299944 25.4146134,30.3442761 25.7592184,30.2585578 C26.1038233,30.1728395 26.4484282,30.0871212 26.7068819,30.0014029 C26.4484282,30.5157127 26.362277,30.9443042 26.362277,31.1157407 L26.362277,31.1157407 Z M48.3308411,34.8016274 L53.6722175,34.8016274 L55.5675446,24.0868406 L50.3123195,24.0868406 L48.3308411,34.8016274 L48.3308411,34.8016274 Z M53.6722175,19.9723625 C52.1214953,19.9723625 50.6569244,20.6581089 50.5707732,21.6010101 C50.3984707,22.458193 51.5184367,23.2296577 53.1553101,23.2296577 C54.7060323,23.2296577 56.1706032,22.5439113 56.3429057,21.6010101 C56.4290569,20.6581089 55.3090909,19.9723625 53.6722175,19.9723625 L53.6722175,19.9723625 Z M79.862192,28.1156004 C80.0344945,27.3441358 80.1206457,26.829826 80.1206457,26.3155163 C80.1206457,24.8583053 78.9145285,23.7439675 74.8654206,23.7439675 C72.3670348,23.7439675 69.9548003,24.0011223 67.4564146,24.3439955 L66.4225998,27.1726992 C68.3179269,26.6583895 72.1085811,26.0583614 74.0900595,26.4012346 C74.8654206,26.5726712 75.037723,26.9155443 74.8654206,27.4298541 C74.7792693,27.7727273 74.6931181,27.9441639 74.2623619,28.0298822 C74.0039082,28.1156004 73.4008496,28.3727553 72.4531861,28.4584736 C70.6440102,28.6299102 69.2655905,28.8013468 68.3179269,28.8870651 C67.3702634,29.0585017 66.6810535,29.2299383 66.0779949,29.4870932 C65.4749363,29.744248 64.9580289,30.0871212 64.613424,30.5157127 C64.268819,30.9443042 63.9242141,31.6300505 63.9242141,32.1443603 C63.9242141,33.0015432 64.268819,33.4301347 64.9580289,34.115881 C65.6472387,34.7159091 66.6810535,34.8873457 68.4902294,34.8873457 C69.5240442,34.8873457 70.2994053,34.8016274 71.1609176,34.5444725 C72.0224299,34.2873176 73.0562447,33.9444444 73.8316058,33.4301347 L73.917757,34.8016274 L79.4314359,34.8016274 L79.4314359,34.6301908 C79.0006797,34.3730359 78.8283772,34.0301627 78.9145285,33.515853 L79.862192,28.1156004 L79.862192,28.1156004 Z M74.0900595,31.1157407 C74.0039082,31.3728956 73.8316058,31.6300505 73.6593033,31.8014871 C73.4008496,32.058642 72.9700935,32.2300786 72.5393373,32.4015152 C72.1085811,32.5729517 71.677825,32.5729517 71.1609176,32.5729517 C70.557859,32.5729517 70.1271028,32.4872334 69.8686491,32.3157969 C69.6101954,32.1443603 69.5240442,31.8872054 69.5240442,31.6300505 C69.6101954,31.3728956 69.6963466,31.1157407 69.9548003,30.9443042 C70.213254,30.7728676 70.7301614,30.601431 71.4193713,30.5157127 C72.4531861,30.3442761 73.1423959,30.2585578 73.4870008,30.1728395 C73.8316058,30.0871212 74.1762107,30.0014029 74.4346644,29.9156846 C74.2623619,30.5157127 74.1762107,30.9443042 74.0900595,31.1157407 L74.0900595,31.1157407 Z M6.54749363,27.8584456 C6.63364486,26.3155163 8.44282073,23.1439394 13.0949873,23.1439394 C14.5595582,23.1439394 15.6795242,23.4010943 17.2302464,24.2582772 L17.9194562,20.4866723 C15.8518267,19.7152076 14.473407,19.6294893 12.6642311,19.6294893 C6.63364486,19.7152076 0.775361088,22.458193 0.0861512319,28.0298822 C-0.689209856,33.6872896 6.28903993,35.1445006 9.39048428,35.1445006 C11.1996602,35.1445006 13.008836,35.0587823 14.7318607,34.8873457 L15.4210705,31.0300224 C13.6980459,31.3728956 12.7503823,31.4586139 11.0273577,31.4586139 C8.44282073,31.4586139 6.4613424,30.1728395 6.54749363,27.8584456 L6.54749363,27.8584456 Z M66.5087511,24.0011223 L63.7519116,24.0011223 L64.3549703,20.5723906 L58.8412914,21.7724467 L58.4966865,24.0011223 L56.4290569,24.0011223 L55.9983008,26.1440797 L57.9797791,26.1440797 L56.4290569,34.8016274 L61.7704333,34.8016274 L63.4073067,26.1440797 L66.0779949,26.1440797 L66.5087511,24.0011223 L66.5087511,24.0011223 Z M82.7913339,19.8009259 L80.1206457,34.8016274 L85.4620221,34.8016274 L88.046559,19.8866442 L82.7913339,19.8009259 L82.7913339,19.8009259 Z M48.2446899,26.4869529 C47.900085,25.6297699 47.2970263,24.9440236 46.3493628,24.4297138 C45.4016992,24.0011223 44.7124894,23.915404 43.5063721,23.915404 C42.3864061,23.915404 41.4387426,24.1725589 40.491079,24.5154321 C39.6295667,24.8583053 38.9403568,25.372615 38.5096007,25.8869248 L38.8542056,24.0011223 L34.2020391,24.0011223 L31.6175021,38.487514 L36.8727273,38.487514 L37.7342396,33.515853 C38.0788445,33.8587262 38.3372982,34.115881 38.5957519,34.2873176 C38.8542056,34.4587542 39.1988105,34.6301908 39.6295667,34.7159091 C40.0603229,34.8016274 40.5772302,34.8873457 41.2664401,34.8873457 C43.075616,34.8873457 44.3678845,34.6301908 45.8324554,33.6015713 C47.2970263,32.5729517 48.1585387,31.201459 48.4169924,29.4013749 C48.675446,28.3727553 48.5892948,27.4298541 48.2446899,26.4869529 L48.2446899,26.4869529 Z M43.3340697,29.14422 C43.2479184,29.6585297 43.075616,30.1728395 42.731011,30.601431 C42.4725573,31.0300224 42.1279524,31.2871773 41.6971963,31.4586139 C41.3525913,31.6300505 40.8356839,31.7157688 40.3187766,31.7157688 C39.6295667,31.7157688 39.0265081,31.5443322 38.6819031,31.1157407 C38.3372982,30.6871493 38.251147,30.0014029 38.3372982,29.0585017 C38.5096007,28.2013187 38.8542056,27.6012907 39.371113,27.1726992 C39.8880204,26.7441077 40.5772302,26.5726712 41.2664401,26.5726712 C41.95565,26.5726712 42.4725573,26.7441077 42.9033135,27.2584175 C43.3340697,27.6012907 43.5063721,28.287037 43.3340697,29.14422 L43.3340697,29.14422 Z M124.230076,37.2017396 C122.334749,37.2017396 121.387086,35.9159652 121.300935,34.3730359 C121.300935,33.7730079 121.300935,33.4301347 121.473237,33.0015432 C124.919286,32.9158249 130.08836,31.8014871 129.916058,28.1156004 C129.829907,26.4869529 128.451487,25.8012065 126.900765,25.8012065 C123.368564,25.8012065 118.974851,30.0871212 119.147154,34.7159091 L119.147154,35.0587823 C118.716398,35.7445286 117.854885,37.030303 117.165675,37.030303 C116.907222,37.030303 116.734919,36.8588664 116.734919,36.5159933 C116.734919,36.0016835 116.907222,35.3159371 117.079524,34.8016274 L118.457944,29.9156846 C118.802549,28.5441919 118.974851,27.687009 118.974851,27.2584175 C118.974851,26.3155163 118.371793,25.8869248 117.596432,25.8869248 C116.218012,25.8869248 114.322685,26.9155443 110.445879,31.3728956 L110.359728,31.3728956 L110.876636,29.14422 C111.135089,27.9441639 111.393543,26.6583895 111.651997,25.8012065 C110.359728,26.3155163 108.464401,26.829826 107.258284,27.0869809 C107.085981,22.6296296 104.242991,19.8009259 99.8492778,19.8009259 C93.3017842,19.8009259 88.7357689,25.7154882 88.9080714,31.4586139 C89.0803738,35.9159652 91.9233645,38.8303872 96.3170773,38.8303872 C102.950722,38.8303872 107.085981,33.6872896 107.172133,27.8584456 C107.516737,27.7727273 108.119796,27.7727273 108.292099,27.7727273 C108.722855,27.7727273 109.06746,27.8584456 109.06746,28.2013187 C109.06746,28.4584736 108.636703,30.0871212 108.550552,30.4299944 L107.68904,34.0301627 C107.344435,35.4873737 106.99983,37.030303 106.655225,38.3160774 L108.809006,38.3160774 L110.015123,32.5729517 C113.633475,28.8013468 115.098046,27.6012907 115.959558,27.6012907 C116.304163,27.6012907 116.648768,27.7727273 116.648768,28.287037 C116.648768,28.9727834 116.218012,30.4299944 116.131861,30.8585859 L114.925743,35.0587823 C114.66729,36.0016835 114.408836,36.8588664 114.494987,37.4588945 C114.494987,38.4017957 115.098046,38.8303872 115.959558,38.8303872 C117.424129,38.8303872 118.457944,37.4588945 119.405607,36.0016835 C119.836364,37.887486 121.387086,38.8303872 123.11011,38.8303872 C125.608496,38.8303872 127.848428,37.1160213 128.882243,34.973064 L128.451487,34.7159091 C127.589975,35.8302469 125.86695,37.2017396 124.230076,37.2017396 L124.230076,37.2017396 Z M126.55616,26.4869529 C127.417672,26.4869529 127.934579,27.0869809 127.934579,27.9441639 C128.020731,30.3442761 125.263891,32.4015152 121.64554,32.4015152 C122.076296,30.6871493 124.402379,26.4869529 126.55616,26.4869529 L126.55616,26.4869529 Z M96.7478335,37.7160494 C93.9909941,37.7160494 91.8372133,34.973064 91.6649108,31.6300505 C91.4926083,27.1726992 94.5079014,20.5723906 99.160068,20.5723906 C101.916907,20.5723906 104.156839,23.315376 104.242991,26.7441077 C104.501444,31.0300224 102.175361,37.7160494 96.7478335,37.7160494 L96.7478335,37.7160494 Z"></path></g></svg>
