<!-- chase -->
<!-- .Logos__chase: #175da5 -->
<svg class="Logos Logos__chase" fill="white" width="202.5" height="37.4" viewBox="0 0 202.5 37.4"><g><path d="M96.4 33.1c1.1-1.7 2-3.2 3-4.7.2-.2.7-.3 1-.3h14.3c2.4 0 2.9-.5 2.9-2.9v-1.7c0-2-.5-2.5-2.5-2.5-3.9 0-7.7.1-11.6 0-1.2 0-2.5-.3-3.5-.8-1.7-.8-2.7-2.3-3.1-4.1-.5-2.2-.5-4.4 0-6.6.6-2.7 2.8-4.6 5.6-4.9 1.4-.1 2.8-.1 4.2-.1h16c-.7 1.2-1.5 2.2-2 3.3-.6 1.3-1.6 1.7-3 1.6-4.3-.1-8.5 0-12.8 0-1.9 0-2.4.5-2.4 2.4v2c0 1.5.6 2.1 2.1 2.1h10.9c.8 0 1.5 0 2.3.1 3.1.4 5.2 2.3 5.6 5.4.3 2.1.3 4.2 0 6.3-.5 3.5-3 5.5-7 5.5-6.6 0-13.2-.1-20-.1zM134.7 9.3v6.6h15.7v4.8h-15.6v7.4H150.2c.6 0 1 .2 1.4.7.8 1.4 1.7 2.7 2.7 4.2H129V5.4c0-.7.1-1.1 1-1.1h23.3c.2 0 .5 0 .9.1-1 1.6-2 3.1-3 4.6-.1.2-.7.2-1 .2H136c-.5.1-.8.1-1.3.1zM36.2 15.7h15.9V5.4c0-.7.2-1 .9-1 1.6.1 3.1 0 4.7 0V33h-5.6V20.8H36.2V33h-5.7V4.5h5.6c.1 3.7.1 7.4.1 11.2zM61.2 33.1c.2-.5.4-.9.5-1.2 4.2-8.9 8.4-17.7 12.6-26.6.3-.7.7-1 1.4-.9 1.3.1 2.7 0 4 0 .3 0 .8.3 1 .6 4.4 9.2 8.8 18.5 13.2 27.7v.3h-6c-.2 0-.4-.4-.5-.6-.7-1.5-1.4-3-2-4.6-.2-.5-.5-.7-1.1-.7H71.1c-.6 0-.9.2-1.1.7-.6 1.5-1.3 3.1-2 4.6-.1.3-.6.6-.9.7h-5.9zm21.6-10.8c-1.7-4-3.4-7.9-5.2-11.9-1.8 4.1-3.5 8-5.2 11.9h10.4zM27.1 33.1c-6.4 0-12.6.1-18.7 0C3.3 33 .1 29.6.1 24.5 0 20.6 0 16.8 0 13c.1-5 3-8.3 8-8.4 6.2-.2 12.4-.1 18.6-.1.1 0 .2.1.4.1-1 1.6-2 3.1-3 4.6-.1.2-.6.3-1 .3H9.9c-2.8.1-4 1.2-4 4v10.4c0 2.8 1.2 4 4 4h12.5c1 0 1.5.3 2 1.1.9 1.3 1.8 2.6 2.7 4.1z"></path><path d="M201.3 10.4h-22.7c-.9 0-1.3-.2-1.3-1.2.1-2.5 0-4.9 0-7.4 0-1.4.4-1.8 1.8-1.8h10.5c.4 0 1 .2 1.3.4 3.4 3.2 6.7 6.4 10.1 9.5.1.2.1.3.3.5zM192.3 36.1V13.4c0-1 .3-1.3 1.2-1.2 2.4.1 4.9 0 7.3 0 1.4 0 1.7.3 1.7 1.7v10.7c0 .5-.2 1.1-.5 1.4-3 3.2-6.1 6.4-9.2 9.7-.1.1-.3.2-.5.4zM166.6 27.2h22.5c1.3 0 1.3 0 1.3 1.3v7.2c0 1.3-.4 1.7-1.7 1.7H178c-.4 0-.9-.1-1.2-.4-3.3-3.1-6.6-6.2-9.9-9.4 0 0-.1-.1-.3-.4zM175.4 1.5c0 .5.1.8.1 1.1V24c0 1-.3 1.3-1.3 1.3-2.5-.1-4.9 0-7.4 0-1.2 0-1.6-.4-1.6-1.6V13c0-.4.1-1 .4-1.3 3.1-3.3 6.2-6.5 9.3-9.8.1-.1.3-.2.5-.4z"></path></g></svg>
