<svg class="bank-logo citi" width="135" height="60" viewBox="-1250 709.5 135 87" enable-background="new -1250 709.5 135 87"><path d="M-1189.6 735.8c3.7-3.8 7.8-6.6 12.5-8.7 4.5-2 9.3-2.9 14.3-2.9s9.8 1 14.4 2.9c4.6 2 8.7 4.9 12.4 8.7l.2.1h10.8l-.4-.6c-4.3-6-9.8-10.8-16.4-14.2-6.7-3.5-13.6-5.2-21-5.2-7.2 0-14.2 1.7-20.9 5.1-6.6 3.5-12.2 8.2-16.4 14.2l-.4.7h10.8l.1-.1z"></path><g><path d="M-1216.2 751.6c4 0 7.7 1.8 11.1 5.2l.2.2 5.3-6.5-.2-.2c-4.3-5.3-9.7-7.8-16.2-7.8-6.8 0-12.4 2.1-16.8 6.2-4.8 4.4-7.2 10.2-7.2 17.6 0 7.3 2.4 13.1 7.1 17.5 4.4 4.1 10.1 6.2 16.8 6.2 6.5 0 11.9-2.6 16.2-7.8l.2-.2-5.3-6.4-.1.3c-3.4 3.4-7.1 5.2-11.1 5.2-4.1 0-7.6-1.4-10.3-4.2-2.7-2.7-4-6.3-4-10.6s1.3-7.8 4-10.6c2.7-2.7 6.1-4.1 10.3-4.1zM-1194.2 743.3h9.3v45.8h-9.3zM-1154.7 781.5c-2.9 0-4.4-1.7-4.4-5.2V752h9.6v-8.6h-9.6V729l-9.2 5v9.4h-8v8.6h7.9v25.9c0 3.6 1 6.4 2.9 8.6 1.9 2.2 4.4 3.3 7.6 3.4 3.1.1 5.9-.6 8.3-2.1l.2-.1v-.2l2.2-8.7-.6.4c-2.5 1.5-4.8 2.3-6.9 2.3zM-1140.4 743.3h9.5v45.8h-9.5z"></path></g><path class="Logos__citi--hat" d="M-1125.4 735.3c-4.3-6-9.8-10.8-16.4-14.2-6.7-3.5-13.6-5.2-21-5.2-7.2 0-14.2 1.7-20.9 5.1-6.6 3.5-12.2 8.2-16.4 14.2l-.4.7h10.8l.1-.1c3.7-3.8 7.8-6.6 12.5-8.7 4.5-2 9.3-2.9 14.3-2.9s9.8 1 14.4 2.9c4.6 2 8.7 4.9 12.4 8.7l.2.1h10.8l-.4-.6z"></path></svg>
