<svg class="bank-logo fidelity" width="212.5" height="49.7" viewBox="0 0 212.5 49.7"><g><path d="M34.1 15.7H19.9l1.8-6.5h14.2L38.5 0H10.8L0 38.6h13.5l4-14.4h14.2zM39.3 10.4l-7.9 28.2h13.4l7.9-28.2zM55.6 0H42.2l-2.1 7.7h13.3zM76.9 0l-3.7 13.6c-1.1-2.1-3.9-3.7-7.7-3.7-4.4 0-8.1 2-10.2 5.7-2.8 5.1-4.8 12.3-4.8 17.2 0 4.4 2.7 6.5 7.1 6.5 4.3 0 7-1.6 9.6-3.8l-.9 3.2h13.1L90.2 0H76.9zm-8.1 29.2c-.6.4-1.2.7-2.3.7-1.3 0-2.1-.9-2.1-2 0-2.3.9-4.7 1.9-7 .7-1.7 1.9-2 3.1-2 .8 0 1.7.5 2.1 1.1l-2.7 9.2zM104.9 9.7c-5.4 0-11.2 1.7-14.6 6.1-2.8 3.7-4.9 10.6-4.9 14.8 0 7.6 6.2 8.7 14.1 8.7 5.8 0 15.4-2.7 17-10.8h-13.1c-.8 2.7-1.6 3.5-3.5 3.5s-2-1.4-2-2c0-1.2.4-2.2.7-3.7H117c.7-2.3 1.4-6.1 1.4-7.8.2-7.1-5.2-8.8-13.5-8.8zm.8 11.1h-5.5c.7-2.8 1.9-4 3.5-4 1.4 0 2.3.5 2.3 2 .1.6-.1 1.4-.3 2zM128 0l-10.8 38.6h13.3L141.3 0zM159 0h-13.4l-2.1 7.7h13.3zM142.7 10.4l-7.9 28.2h13.4l7.9-28.2zM198.8 10.4L191.6 26l.2-15.6v-.1h-18.2l1.8-6.3H162l-7.2 25.7c-.4 1.4-.6 2.7-.6 3.9 0 2.9 1.5 4.8 5.4 4.8h11.9l2-6.9h-2.8c-1.8 0-2.3-.4-2.3-1.7 0-.7.2-1.7.5-2.5l3-10.7h7.1l2 21.8c-.2 1.2-.6 2.1-1.2 2.6-.2.2-.4.3-.7.4-1.1.5-3.7.4-4.6.4H174.2l-2.1 7.7h9.1c5.4 0 8-2.7 11.9-8.7l19.5-30.6h-13.8z"></path></g></svg>
