<!-- nfcu -->
<!-- .Logos__nfcu: #0a447d -->
<svg class="Logos Logos__nfcu" height="32.7" viewBox="0 0 86 32.7" width="86"><path d="M0 18.2h9.7V21H3.8v3.4h5.5v2.8H3.8v5.5H0V18.2zm10.6 14.5H21v-2.8h-6.7v-3.1h6.1V24h-6.1v-3h6.5v-2.8H10.6v14.5zm11.6 0H28c.9 0 2.6 0 4-.6 2.8-1.2 3.7-3.5 3.7-6.8 0-2.2-.5-4.6-2.6-6-1.4-1-3.6-1.2-5.2-1.2h-5.8v14.6zM26 20.9h1.5c1.2 0 4.3 0 4.3 4.4 0 3.4-1.6 4.5-4.1 4.6H26v-9zm10.7 11.8h10.4v-2.8h-6.7v-3.1h6.1V24h-6.1v-3h6.5v-2.8H36.7v14.5zm11.4 0h3.8V27h1.6c1.7 0 1.8.6 1.9 2.4.1 1.3.2 2.4.5 3.3H60c-.3-1-.5-2.6-.6-3.6-.3-2.2-.5-3.5-3.1-3.6v-.1c.4-.1 1.2-.2 2.1-.7.6-.4 1.2-1.1 1.2-2.7s-.5-2.4-.9-2.8c-.8-.9-1.7-1.1-4.2-1.1h-6.3v14.6zm3.8-11.9h1.4c1.1 0 2.6 0 2.6 1.8 0 .5-.2 1.4-1 1.7-.3.1-.7.1-1.6.1h-1.4v-3.6zm8.3 11.9H64l.9-2.9h5.5l.9 2.9h4.3l-5.4-14.6h-4.6l-5.4 14.6zm5.6-5.6l1.9-6.1h.1l1.8 6.1h-3.8zM76 32.7h10v-2.9h-6.1V18.1H76v14.6zM0 16.6h3.3V5.3L8 16.6h5.1V2H9.8v10.9L5.2 2H0v14.6zm14.1 0h3.8l.9-2.9h5.5l.9 2.9h4.3L24.1 2h-4.6l-5.4 14.6zm5.6-5.6l1.9-6.1h.1l1.8 6.1h-3.8zm11.8 5.6H36L41 2h-3.8L34 12.6 30.9 2h-4.2l4.8 14.6zM40.9 2l5.2 9.3v5.3h3.8v-5.2L55.2 2h-3.9l-3.1 6.1-3-6.1h-4.3zm35.5 6.5c0 4.4-3.4 8.1-7.7 8.5-.2 0-.5.1-.8.1-.3 0-.5 0-.8-.1-4.3-.4-7.7-4-7.7-8.5 0-1.7.5-3.3 1.4-4.7l.2-.2.2-.2c1.5-1.9 3.7-3.1 6-3.3.2-.1.5-.1.7-.1.3 0 .5 0 .8.1 4.3.3 7.7 4 7.7 8.4m-4.6 6.3c.7-.6 1.2-1.4 1.6-2.4h-2c-.2.9-.5 1.7-.8 2.4h1.2m-9.4-2.4c.4.9 1 1.7 1.6 2.4h1.2c-.3-.7-.6-1.5-.8-2.4h-2m-2.5-3.6c0 1.1.3 2.2.7 3.1h.9c-.3-1-.5-2-.6-3.1h-1m2.6-4.4c0 .1-.1.1-.1.2h2v-.1l.1-.3V4c.2-.7.4-1.3.7-1.8H64c-.6.6-1.1 1.4-1.5 2.2m10.9.2c-.4-.9-1-1.7-1.6-2.4h-1.2c.3.7.6 1.5.8 2.4h2m2.5 3.6c0-1.1-.3-2.2-.7-3.1h-.9c.3 1 .5 2 .6 3.1h1m-1.7 0c0-1.1-.2-2.2-.6-3.1h-2.1c.2 1 .3 2 .3 3.1h2.4M65 4.4v.2h2.7V2.2h-1.8c-.4.6-.7 1.4-.9 2.2m.5-2.7c.2-.3.4-.6.6-.8-.5.2-1 .5-1.5.8h.9M67.6.6c-.5.1-1 .5-1.5 1.1h1.5V.6m2.1 1.1c-.4-.6-1-1-1.5-1.1v1.1h1.5zm-1.5.5v2.4h2.7c-.2-.9-.5-1.7-.9-2.4h-1.8zm-3.4 2.9c-.2 1-.3 2-.3 3.1h3.2V5.1h-2.9zm-.3 3.7c0 1.1.1 2.2.3 3.1h2.8V8.8h-3.1zm.4 3.6c.2.9.5 1.7.9 2.4h1.8v-2.4h-2.7zm1.2 2.9c.4.6 1 1 1.5 1.1v-1.1h-1.5zm2.1 1.2c.5-.1 1-.5 1.5-1.1h-1.5v1.1zm1.8-1.7c.4-.6.7-1.5.9-2.4h-2.7v2.4H70zm1-2.9c.2-1 .3-2 .3-3.1h-3.2v3.1H71zm.3-3.7c0-1.1-.1-2.2-.3-3.1h-2.8v3.1h3.1zm-.1-6.5c-.5-.4-1-.7-1.5-.9.2.2.4.5.6.9h.9zm-9 3.4c-.4 1-.6 2-.6 3.1H64c0-1.1.1-2.1.3-3.1h-2.1zM61 8.2c0-1.1.2-2.1.6-3.1h-.9c-.5 1-.7 2-.7 3.1h1m.6.6c0 1.1.2 2.2.6 3.1h2.1c-.2-1-.3-2-.3-3.1h-2.4m3 6.5c.5.4 1 .6 1.5.8-.2-.2-.5-.5-.6-.8h-.9zm5.7 0c-.2.3-.4.6-.6.8.5-.2 1.1-.5 1.5-.8h-.9m3.3-3.4c.4-.9.6-2 .6-3.1h-2.4c0 1.1-.1 2.2-.3 3.1h2.1zm1.2-3.1c0 1.1-.2 2.2-.6 3.1h.9c.4-.9.7-2 .7-3.1h-1m0-4.2c-.5-.9-1.2-1.7-2-2.4h-.3c.6.7 1.1 1.5 1.5 2.4h.8M72 1.7m-9 .5c-.6.5-1.1 1-1.6 1.7-.2.2-.3.5-.5.7h.8c0-.1.1-.1.1-.2l.2-.2.1-.2c.3-.6.7-1.2 1.2-1.7H63m-2 10.1c.5.9 1.2 1.7 2 2.4h.3c-.6-.7-1.1-1.5-1.5-2.4H61m2.8 2.9 8.2 0 .8-.5c.8-.6 1.5-1.4 2-2.4H74c-.4.9-.9 1.7-1.5 2.4h.3"></path></svg>
