<svg class="bank-logo pnc" height="53.4" viewBox="-605.1 1071.5 176.4 53.4" width="176.4" enable-background="new -605.1 1071.5 176.4 53.4"><path class="Logos__pnc--circle" d="M-576.8 1073.5c-13.7 0-24.7 11.1-24.7 24.7 0 13.7 11.1 24.7 24.7 24.7s24.7-11.1 24.7-24.7c.2-13.7-11.1-24.7-24.7-24.7zm-13.3 12.1v-.8c0-2.8 1.2-5 2.6-5.4 2-.6 4.8 1.8 7.5 6.7l2.6 4.4c-.8.2-1.4.6-1.8 1.4l-8.2 14.4c-1.2 2-2.1 4-2.6 5.7-.1-3.9-.3-11.5-.1-26.4zm8.8 30.5l-.8.4c-2.4 1.4-4.8 1.6-6 .4-1.4-1.4-.8-5 2-9.9l2.6-4.4c.4.6 1.2.8 2.2.8h16.7c2.4 0 4.4-.2 6.2-.6-3.3 2.3-9.8 6.1-22.9 13.3zm16.7-14.2h-5c.2-.8.2-1.4-.4-2.4l-8.2-14.4c-1.2-2.1-2.4-3.9-3.6-5 3.4 1.8 10.1 5.7 22.7 13.1l.8.4c2.4 1.4 3.9 3.4 3.4 5-.6 2-4 3.3-9.7 3.3z"></path><path class="Logos__pnc--type" d="M-526.3 1080.1H-543v1.6h.4c5.8.6 6.4 1.4 6.4 4.4v30.8h6.7V1101h2.6c6.2 0 19.3 0 19.3-10.4 0-10.5-12.1-10.5-18.7-10.5m-.9 18.1h-2.6v-11.9c0-2.8 0-3.2 5.4-3.2 6.1 0 9.3 2.6 9.3 7.6.2 6.6-6 7.5-12.1 7.5m56.8-18.1h-3.9v28.7l-20.5-28.7h-14.1v1.6h.4c5.7.8 6.4 1 6.4 5v30.1h4.2v-30.7c1 1.4 22.1 30.8 22.1 30.8h5.7v-36.8h-.3zm5.4 17.3c0 10.1 6 20.1 20 20.1 6.4 0 9.7-.8 12.6-1.6h.2v-3l-.4.2c-3.2.8-6.2 1.4-8.9 1.4-10.8 0-16.3-6.1-16.3-18.5 0-8.2 4-13.3 10.4-13.3 4.4 0 7.1 1.8 7.6 5.3v.2h7.3v-.2c-.2-2.1-2-8.2-14.4-8.2-11.9 0-18.1 5.8-18.1 17.6"></path></svg>
