<svg class="bank-logo schwab" width="228.8" height="31.1" viewBox="0 0 228.8 31.1"><g><path d="M105.4 24.8c0 3.3-3.8 6.3-7.2 6.3-2.2 0-4-1.4-4-2.2 0-.5.2-2.1.9-2.1 1.2 0 2.4 2.6 4.8 2.6 1.5 0 2.9-1 2.9-2.6 0-2.2-3.8-4.2-3.8-7.7 0-3.6 3.9-8 7.4-8 1.8 0 2.5 1 2.5 1.9 0 .7-.6 1.6-1.6 1.6-1.4 0-2.3-1.1-3.7-1.1-1.5 0-2.4 1-2.4 2.8.3 2.6 4.2 5 4.2 8.5M34.1 25.8c-2 2.3-4.7 5.3-7.5 5.3-1.1 0-1.4-.5-1.4-1.4 0-2.4 5-10.8 5-13.8 0-1-.3-1.5-1.4-1.5-3.1 0-9.5 8.1-11.8 15.7-.1.5-.5.6-1.7.6s-1.4-.1-1.4-.6c0-.8 4.5-11.8 6.6-17.9 1.8-5.1 3.3-9 3.3-10.1 0-.5-.3-.9-1.3-1-.3 0-1-.1-1.2-.1l-.1-.1V.1c0-.1 0-.1.1-.1h5.9c.5 0 .6.1.6.5 0 .3-1.3 4.4-4.2 11.8-2 5.2-3 7.1-2.6 7.1.5 0 5.4-8.3 9.6-8.3 1.7 0 2.8 1.1 2.8 3.5 0 3.9-4 11.8-4 12.6 0 .4.2.5.7.5.7 0 2.4-1.8 3.3-2.7.1-.1.1 0 .2 0l.5.5v.3M13.2 26.5c-.5 1-3.8 4.5-7.7 4.5-4 0-5.3-3-5.4-5.6C-.3 17.6 8.9 11 14.2 11c2.6 0 3.7 1.7 3.7 3 0 .8-.6 1.4-1.2 1.4-1.6 0-2.1-3.2-4.2-3.2-3 0-9.1 8.6-8.9 13.2 0 2.6 1.8 3.7 3.4 3.7 1.8 0 3.4-1.2 4.3-2 .6-.4 1.2-1.1 1.3-1.2h.1l.4.5.1.1M56.5 16.6l.4.4h.2c0-.1.1-.1.2-.2.7-.8 2.3-2.9 3.1-2.9.4 0 .7.4.7 1.2 0 2.8-4.7 14.3-4.7 15.1 0 .4.2.5.4.5h1.7c.3 0 .4-.2.7-.7 0 0 .9-2 1.3-3 3.6-7.3 5.4-10.8 6.8-12.1 3.1-3 2.7-.1 4.1 0 1 .1 1.6-1 1.6-2.2 0-1.3-.9-1.7-1.6-1.7-2.8 0-4.8 2.6-8.3 8.7-.3.5-.4.8-.6.8-.1 0-.2 0-.2-.3 0-.5 1.6-6.4 1.6-7.6 0-1-.5-1.4-1.4-1.4-1.7 0-5.1 3.7-6.2 5.4.2-.1.2-.1.2 0"></path><path d="M39.9 28.3c-.9 0-1.4-.4-1.4-2 0-5.5 4.6-13.8 9.2-13.8 1.7 0 2.4 1.2 2.4 2.6-.1 2.3-6.3 13.2-10.2 13.2m14.2-16.8l-1.1-.7c-.1-.1-.3-.2-.4-.1-.6.2-.6 1.1-1.3 1.1-.7 0-1.4-.3-2.7-.3-8.8 0-13.3 11.9-13.3 15.8 0 2.6 1.4 3.8 3 3.8 2 0 4.4-1 7.5-5.6.8-1.1.8-1.4 1-1.4.1 0 .2.1.2.3 0 .4-1.4 2.8-1.4 4.8 0 1.2.5 1.8 1.5 1.8 2.5 0 5.4-3.7 6.5-5.3v-.1l-.5-.6c-.1-.1-.1 0-.2 0-1 1-2.6 3.3-3.5 3.3-.4 0-.6-.1-.6-.8 0-1.7 5.4-14.6 5.5-15.6 0-.1 0-.3-.2-.4zM86.4 18.1C87 17 90.1 12 92.7 12c1 0 1.7.9 1.7 1.9.1 2.7-3.4 4.2-8 4.2m6.6 8.3l-.4-.4h-.1c-1 .7-3.3 2.8-5.6 2.8-2.1 0-3.3-1.4-3.3-3.4 0-2.6 1.2-4.7 2.1-6.1.6.1 1.1.1 2.2.1 3 0 9.3-1.3 9.3-5.1 0-1.6-1.4-3.1-3.9-3.1-5.5 0-13.5 7.6-13.5 14.7 0 3.2 2.1 5.3 5.1 5.3 3.6 0 7.2-3.3 8.1-4.5.1-.2.1-.3 0-.3zM78.4 25.8c-1.6 2-4.2 5.3-6.5 5.3-1.6 0-2.4-.9-2.3-2.6.1-2.5 5.3-15.3 5.7-16.2 2-5.1 3.7-9.1 3.7-10.1 0-.5-.3-.9-1.2-1-.4-.1-1.1-.1-1.3-.1l-.1-.1V.2c0-.1.1-.1.1-.1h5.9c.5 0 .6.1.6.4 0 .3-1.7 4.4-4.6 11.9-2.5 6.6-5.1 13.8-5.2 15.1 0 .5.2.7.7.7.8 0 1.9-1.1 3.7-3.1 0-.1.1 0 .2 0l.5.6c.1 0 .2.1.1.1"></path><path d="M123.9 16.2c-.5-1.7-1.4-3.7-3.9-3.7-1.9 0-3 1.4-3 3.1 0 1.6 1.2 2.7 3.4 3.7l.8.4c2.3 1 4.4 2.6 4.4 5.6 0 3.5-2.7 5.9-6.7 5.9-1.1 0-2.2-.2-2.9-.5-.8-.3-1.3-.5-1.7-.6-.2-.8-.6-2.7-.9-4.5l.9-.3c.6 1.5 2.2 4.8 5.2 4.8 1.9 0 3.1-1.5 3.1-3.3 0-1.6-.8-2.8-3.1-3.9l-.9-.5c-1.9-1-4.4-2.5-4.4-5.4 0-3.1 2.3-5.6 6.2-5.6.8 0 1.8.1 2.7.4.5.2.9.2 1.2.4.1 1 .3 2.3.6 3.9l-1 .1M144.1 16.8c-.9-3.3-2.8-4.3-5.5-4.3-4.8 0-6.9 4-6.9 8.3 0 5.4 2.7 9.2 6.9 9.2 3.2 0 4.6-1.6 6.1-4.7l.8.2c-.4 1.4-1 3.7-1.5 4.8-.8.2-3.4.9-5.5.9-7.6 0-10.7-5-10.7-9.6 0-6.1 4.7-10.2 11.3-10.2 2.5 0 4.4.6 5.3.8.2 1.6.4 2.9.5 4.6h-.8M155.1 11.7v.8c-2.2.2-2.4.4-2.4 3.6V20h8.9v-3.9c0-3.2-.2-3.4-2.5-3.6v-.8h8.3v.8c-2.3.2-2.6.4-2.6 3.6v10.2c0 3.2.2 3.4 2.5 3.6v.8h-8.5v-.8c2.5-.2 2.7-.4 2.7-3.6v-5h-8.9v5c0 3.2.2 3.4 2.5 3.6v.8h-8.3v-.8c2.3-.2 2.6-.4 2.6-3.6V16.1c0-3.2-.2-3.4-2.7-3.6v-.8h8.4M183.5 11.9l5.1 13.9h.1c1.1-3.6 2.5-9 2.9-10.9.5-1.8.2-2.2-1-2.3-.2 0-1-.1-1-.1v-.8h6.7v.8c-1.9.2-2.1.4-3.1 3-.4 1.2-2.5 7.3-4.9 15.4H187l-5-13.7h-.1l-4.6 13.7H176l-4.8-15.5c-.8-2.5-1.3-2.7-2.9-2.9v-.8h7.9v.8s-.7 0-.9.1c-1.1.1-1.4.4-1 1.9l3.4 11.4h.1l4.4-13.9h1.3"></path><path d="M202.4 11.6l-5.9 15.3c-1 2.6-1.3 2.7-3.2 3v.8h6.5v-.8l-.8-.1c-1.3-.1-1.5-.5-1-2.1.4-1.2.9-2.9 1.3-3.7h5.4c.6 1.5 1.3 3.3 1.6 4.2.4 1.1.3 1.4-.8 1.6l-.8.1v.8h7.7v-.8c-1.7-.2-2.1-.4-3.1-3-1.1-2.9-2.4-6.5-3.7-10.1l-2-5.3-1.2.1m-.5 4.6l2.4 6.4h-4.6l2.2-6.4zM220.1 21.1c3 0 5.1 1.4 5.1 4.4 0 3-2 4.1-3.9 4.1-1.9.1-2.2-.5-2.2-3.3v-5.2h1m-6.5-9.4v.8c2.1.2 2.3.4 2.3 3.6v10.2c0 3.2-.2 3.4-2.5 3.6v.8h7.3c2.1 0 4.2-.3 5.6-1.2 1.6-1 2.6-2.3 2.6-4.4 0-2.9-2.3-4.5-5.3-4.9v-.1c1.7-.3 4.1-1.7 4.1-4.2 0-1.5-.6-2.6-1.6-3.3-1-.7-2.2-1-4.5-1h-8zm5.5 2.6c0-.7 0-1.2.2-1.3.2-.1.6-.1 1.3-.1 1.8 0 3.7.9 3.7 3.6 0 2.5-1.6 3.6-4.1 3.6H219v-5.8z"></path></g></svg>
