<!-- suntrust -->
<!-- .Logos__suntrust: #00386d -->
<!-- .Logos__suntrust--fan: #fab731 -->
<svg class="Logos Logos__suntrust" height="65" viewBox="0 0 247.5 142.5" width="220"><g><path d="M163.5 139.5v2.1h-6c-3.5 0-5.2-.6-6.6-3.4-1.1-2.2-7.1-14.4-7.1-14.4h2.4c4.4 0 5.6-3.4 5.6-6.5 0-4.8-2.4-6-5.5-6h-4v26c0 1.6 1.1 2.1 3.5 2.1v2.1h-15.2v-2.1c2.5 0 3.5-.6 3.5-2.1V113c0-1.6-.2-2.1-2.6-2.1h-3.2v-3.7c0-3.1-.2-6.7-4.7-6.7h-5.1v35.1c0 3 .8 3.8 4.2 3.8h1.1v2.1h-19.6v-2.1h1.2c3.4 0 4-.9 4-3.8v-35.1h-5.1c-4.6 0-4.8 3.6-4.8 6.7v3.7H97c-2.4 0-2.7.7-2.7 2.2v28.4h-7.8l-13.9-24.8v20.5c0 1.5.3 2.2 2.7 2.2h.8v2.1H65.9v-2.1h.8c2.4 0 2.7-.6 2.7-2.2v-24.4c0-1.6-.2-2-2.6-2H65c-2.4 0-2.6.5-2.6 0v16.8c0 6.8-.6 14.7-11.7 14.7-2.3 0-7.4 0-10.5-3-1.8-1.9-2.8-5-2.8-9.7v-16.9c0-1.6-1-2-3.4-2v-2.1h14.8v2.1c-2.4 0-3.4.4-3.4 2v18c0 4.1.3 8.6 6.4 8.8 6.8.2 7.4-5.5 7.4-9.4v-17.4c0-1.6-.3-2-2.7-2h-.8v-2.1h21.6L91 133.2v-20.3c0-1.6-.3-2.2-2.7-2.2h-.8v-2.1H96V97.2h35.5v11.6h14.9c5.3 0 13.3.4 13.3 8.5 0 4.4-2.9 7.4-6.9 8.3l7.1 12.4c1.1 1.4 2.7 1.5 3.6 1.5zM16.7 113.8c-8.2-1.8-9.7-3.6-9.6-7.5.1-3.9 3.8-6.2 8.5-6.3 3.3-.1 6 .3 8.7 2.2.8.6 1.6 1.8 1.9 3.1.2 1.1.3 2.5.3 3.5h3.2v-9.7c-2.9-1.4-6.5-2.7-13.1-2.7-11.1 0-16.5 6-16.5 13.5 0 8 5.4 11 13.5 13 8.5 2.1 11.7 3.4 11.8 8 0 3.7-2.5 8-10 7.9-5.1-.1-8-1.8-10-4.3-.7-1-1.1-2.2-1.3-3.3-.2-1.2-.2-2.3-.3-3.5H.3v10.9c2.5 1.9 8.9 3.8 15.1 3.8 11.2 0 16.2-5.9 16.9-12.4.5-4.5 0-8.2-2.9-11.2-2.3-2.1-5.9-3.5-12.7-5zm203.4-5v8.7h2.8c0-1.6 0-3.8.6-4.7.6-.8 1.2-1.2 2.9-1.2h3.2v25.3c0 1.6-.6 2.6-3.1 2.6h-1.1v2.1h16.4v-2.1h-1.1c-2.5 0-3.1-1.1-3.1-2.6v-25.3h3.2c1.7 0 2.4.4 2.9 1.2.6.9.6 3.1.6 4.7h2.9v-8.7h-27.1zm-36.9 2.1h.8c2.4 0 2.7.5 2.7 2.1v17.2c0 3.9-.5 9.6-7.4 9.4-6.1-.2-6.4-4.7-6.4-8.8v-18c0-1.6 1-2 3.4-2v-2.1h-14.8v2.1c2.4 0 3.4.4 3.4 2v16.9c0 4.7.9 7.8 2.8 9.7 3 3 8 3 10.4 3 11.2 0 11.8-7.9 11.8-12.7V113c0-1.6.3-2.1 2.6-2.1h.8v-2.1h-10.2v2.1zm24.2 9.5c-6.2-1.3-7.4-2.3-7.4-5.3 0-3.1 3.5-4.5 6.2-4.6 2-.1 4.9 0 7.1 1.8.8.6 1 1.5 1.1 2.4.1 1 .2 1.9.2 2.7h2.9v-7.6c-2.4-1.1-5.1-2-10.2-2.1h-1.6c-7.6.5-11.1 5.1-11.2 10.3 0 5.8 2.9 8.5 10 10.2 7.2 1.6 9.2 2.3 9.2 6 0 2.6-2.3 5.5-7.5 5.4-4.1-.1-6.3-1.6-7.4-2.9-.6-.7-.9-1.5-1-2.4-.2-1.1-.2-2-.2-2.9h-2.9v8.1c1.9 1.4 6.8 2.9 11.5 2.9 8.5 0 12.7-4.6 13.2-10 .3-3.3-.4-6.2-2.4-8.3-1.7-1.8-4-2.6-9.6-3.7z"></path><path class="Logos__suntrust--fan" d="M33.5 81l-3.6-18.8c-.5-1.6-.4-4.5.2-6.1l.7-2c.6-1.6 1.3-1.6 1.5 0L35 79c.3 2.8.4 4.1-.2 4.2-.5.1-1-.5-1.3-2.2zm3.6-6c.3 2.1.6 2.7 1.1 2.6.6-.1.4-2.1.3-3.7l-.7-15.4c-.1-1.6-.6-1.9-1.2-.7s-.9 4.5-.7 6.1L37.1 75zm4.3-2.9c.5.1.6-1.7.7-3.2l1.4-32.3c.1-1.3-.6-1.3-1.3 0l-1 1.8c-.7 1.3-1.2 3.5-1.2 4.8l.6 26.5c.1 1.5.4 2.3.8 2.4zm3.7-.8c.5 0 .8-1.8 1-3.5l2.2-24.6c.2-1.3-.3-1.9-.9-.7-.6 1.2-1.7 3.5-1.8 5l-.9 21.1c-.3 1.6 0 2.7.4 2.7zm4-5.2c.5 0 .7-1.3 1-2.9L56 24.5c.3-1.2-.4-1.3-1.4-.2l-.3.4c-.9 1.1-1.8 3.1-2 4.3l-3.4 34.1c-.2 1.2-.2 2.9.2 3zm3.1 2.4c.6.1 1.1-1.8 1.4-3.1L61.1 31c.3-1.2-1-1.7-1.7-.9-.8.8-1.6 2.7-1.8 3.9l-5.4 31.1c-.4 1.5-.4 3.3 0 3.4zm6-.9c.8.3 1.4-1.4 2-2.6 5.5-11.8 8.7-18.4 20.1-43.9.5-1.2 1.9-3.7.6-4.4-1.5-.7-2.8 1-3.4 2.3L58.7 64.7s-1.1 2.7-.5 2.9zm6.2-4.8c.4.3 1.5-.9 2.3-2.3l34.2-57c.6-1 1-2.7-.3-3.3-1-.5-2.6.5-3.4 1.8L65.4 59.4c-.9 1.7-1.5 3-1 3.4zm.8 6.1c.5.5 1.6-.8 2.6-2.3l39.9-52.8c1-1.4 1-2.9-.2-3.6-1.3-.8-3.5.9-4.5 2.4l-36.6 53c-.9 1.5-1.7 2.9-1.2 3.3zm9.4-7.1c-1.1 1.4-2.1 2.4-1.5 3 .5.6 2.9-2 2.9-2L131.3 7c.9-.9 1-2.6.1-3.6l-1.5-1.9c-1.1-.8-2.2-.8-3 .3L75.8 60.3l-1.2 1.5zm53.6-42.5L73.9 69.2c-1.6 1.4-2.5 2.6-2.1 3 .5.4 1.7-.4 3.1-1.7l56.5-45c1.1-1 2-1.7 1.7-3.3-.2-1-.6-2-1.7-3.1-.9-.8-2.2-.8-3.2.2zM80.5 70.5c.4.6 2-.3 3.6-1.3L148.4 32c1.3-.9 2.2-2.6 1.8-3.8l-1.5-5.1c-.3-1.2-1.4-1.4-2.6-.5l-63 45.1c-1.5 1.2-3.1 2.1-2.6 2.8zm58.5-17l-.2-6.3c0-1.3-1.2-1.7-2.7-.9L79.6 74.8c-1.8.9-3.4 1.6-3.2 2.3.2.7 1.9.3 3.8-.5l55.7-19.4c1.7-.6 3.1-2.3 3.1-3.7zm7.6 15l.8-6.5c.2-1.4-1.3-2.1-3.1-1.5L87.8 77.7c-2 .7-3.8 1.1-3.6 1.9.2.6 1.7.3 3.9 0l54.5-7.8c2-.3 3.8-1.8 4-3.3zM84.8 85.7H131c2.2.1 4-1 4.6-2.6l1-2.5c.7-1.9-1.1-3-3.2-2.8l-48.2 5.7c-2.1.2-4.8.7-4.7 1.5.1.7 2.3.7 4.3.7zM56.6 63.1c.7.2 1.6-2 2.4-4.5.8-2.3 14.8-45.2 14.8-45.2.4-1.2 1.2-3.5-.2-3.8-.8-.2-2.7 1.5-3.4 3.3L57 59.4c-.5 1.9-.9 3.5-.4 3.7z"></path></g></svg>
