<!-- td -->
<!-- .Logos__td: #21aa21 -->
<!-- .Logos__td .st0: #1b3f25 -->
<!-- .Logos__td .st1: #fff (background color) --> 
<svg class="Logos Logos__td" height="51.1" viewBox="-340 265.4 168.4 51.1" width="168.4" enable-background="new -340 265.4 168.4 51.1"><path class="st0" d="M-254.3 289.1h2.4c1.6 0 3.3.4 3.3 2.3 0 1.8-1.7 2.4-3.4 2.4h-2.3v-4.7zm-8.3 9.4h13.3c4.8 0 9.4-.6 9.4-6.4 0-2.3-2-4.8-5.2-5.2v-.1c3.1-.8 4.7-2.5 4.7-5.6 0-4.4-3.9-5.6-7.9-5.6h-14.4l.1 22.9zm8.3-18.6h2.4c1.6 0 3 .5 3 2.2 0 1.7-1.7 2.2-3.2 2.2h-2.2v-4.4zM-226.5 291.5c0 1.5-.9 3.1-2.6 3.1-1.3 0-1.9-.5-1.9-1.6 0-1.8 2-1.9 3.7-1.9h.8v.4zm-10.1-4.7c1.6-.8 3.7-1.4 5.7-1.4 2.1 0 4.3.3 4.4 2.5-.8-.1-2.1-.2-3.2-.2-4.1 0-8.8 1.1-8.8 6.3 0 3.6 3.1 5 6.3 5 2.3 0 4.4-.9 5.6-2.9h.1v2.5h7.7v-10.4c0-6.2-5.8-7.1-10.5-7.1-3.2 0-4.7.3-7.2 1l-.1 4.7zM-216.6 281.4h7.8v3h.1c1-2.4 3.3-3.3 5.6-3.3 4.4 0 6 2.3 6 5.6v11.9h-8.3v-9.9c0-1 0-2.3-1.4-2.3-1.5 0-1.5 1.3-1.5 2.3v9.9h-8.3v-17.2zM-186 288.2l4.8-6.8h9.4l-5.8 7.6 6 9.6h-9.7l-4.7-8.3h-.1v8.3h-8.3V274h8.3v14.2z"></path><path class="st1" d="M-340 316.5h60.8v-51.1H-340v51.1zm39.9-11h-14.2v-24h7.1v19.7h6.8c4.7 0 6.7-3.1 6.7-11 0-8-2.3-10.3-7-10.3h-15.6v25.5h-7V280h-10.3v-4.2h35.1c8.5 0 12.5 4.1 12.5 14.5 0 13.5-6 15.2-14.1 15.2"></path></svg>
