<!-- us -->
<!-- .Logos__us: #0c2074 -->
<!-- .Logos__us--shield: #de162b -->
<!-- .Logos__us--us-text: #fbfbfb -->
<svg class="Logos Logos__us" width="131" height="34" viewBox="0 0 131 34"><g class="Logos__us--bank-text" transform="translate(46.150000, 0.000000)"><path d="M0.26,0 L7.215,0 L7.215,8.84 L7.28,8.84 C8.32,7.28 10.205,6.37 12.285,6.37 C18.395,6.37 20.085,11.57 20.085,15.86 C20.085,20.41 17.615,25.545 12.415,25.545 C8.97,25.545 7.93,24.245 7.085,23.075 L7.02,23.075 L7.02,25.09 L0.26,25.09 L0.26,0 L0.26,0 Z M10.075,11.505 C7.605,11.505 7.02,13.845 7.02,15.99 C7.02,18.2 7.605,20.54 10.075,20.54 C12.545,20.54 13.13,18.2 13.13,15.99 C13.13,13.845 12.545,11.505 10.075,11.505 L10.075,11.505 Z"></path><path d="M39.52,21.06 C39.52,22.425 39.585,23.985 40.365,25.155 L33.28,25.155 C33.085,24.635 33.02,23.92 33.02,23.4 L32.955,23.4 C31.46,25.09 29.315,25.61 27.105,25.61 C23.595,25.61 20.67,23.92 20.67,20.085 C20.67,14.3 27.43,14.56 31.005,13.845 C31.98,13.65 32.89,13.39 32.89,12.22 C32.89,10.985 31.72,10.53 30.615,10.53 C28.47,10.53 28.08,11.635 28.015,12.415 L21.515,12.415 C21.71,7.28 26.585,6.435 30.875,6.435 C39.585,6.435 39.52,10.075 39.52,13.585 L39.52,21.06 L39.52,21.06 Z M32.825,16.9 C31.98,17.29 31.005,17.55 30.095,17.81 C28.535,18.135 27.755,18.525 27.755,19.76 C27.755,20.605 28.665,21.45 29.965,21.45 C31.525,21.45 32.76,20.475 32.89,18.59 L32.89,16.9 L32.825,16.9 Z M41.99,6.89 L48.685,6.89 L48.685,9.23 L48.75,9.23 C50.05,7.41 51.935,6.435 54.665,6.435 C57.915,6.435 60.905,8.45 60.905,12.61 L60.905,25.155 L53.95,25.155 L53.95,15.535 C53.95,13.455 53.69,11.96 51.675,11.96 C50.505,11.96 48.88,12.545 48.88,15.47 L48.88,25.09 L41.925,25.09 L41.925,6.89 L41.99,6.89 Z M63.44,0 L70.395,0 L70.395,12.155 L74.815,6.89 L82.68,6.89 L76.18,13.78 L83.72,25.09 L75.335,25.09 L71.63,18.525 L70.395,19.825 L70.395,25.09 L63.44,25.09 L63.44,0 Z"></path></g><path class="Logos__us--shield" d="M0,0 L0,25.935 L21.97,33.41 L43.94,25.935 L43.94,0 L0,0 Z M21.97,25.09 L15.21,25.09 L15.21,22.75 L15.145,22.75 C13.845,24.57 11.96,25.545 9.23,25.545 C5.98,25.545 2.99,23.53 2.99,19.37 L2.99,6.89 L9.945,6.89 L9.945,16.445 C9.945,18.59 10.205,20.02 12.22,20.02 C13.39,20.02 15.015,19.435 15.015,16.51 L15.015,6.89 L21.97,6.89 L21.97,25.09 Z M32.5,25.61 C28.21,25.61 23.53,23.855 23.4,19.175 L30.03,19.175 C30.095,19.825 30.355,20.345 30.875,20.8 C31.2,21.125 31.915,21.32 32.76,21.32 C33.67,21.32 35.1,20.995 35.1,19.89 C35.1,18.85 34.515,18.525 31.265,17.94 C25.935,17.03 23.79,15.34 23.79,12.22 C23.79,7.605 28.73,6.435 32.435,6.435 C36.4,6.435 41.145,7.54 41.275,12.22 L34.97,12.22 C34.905,11.635 34.645,11.18 34.19,10.855 C33.8,10.53 33.215,10.335 32.63,10.335 C31.655,10.335 30.55,10.53 30.55,11.765 C30.55,12.285 31.005,12.545 31.33,12.74 C32.5,13.26 35.1,13.39 37.44,14.17 C39.78,14.885 41.795,16.25 41.795,19.24 C41.73,24.18 36.92,25.61 32.5,25.61 L32.5,25.61 Z"></path><path class="Logos__us--us-text" d="M21.97,25.09 L15.21,25.09 L15.21,22.75 L15.145,22.75 C13.845,24.57 11.96,25.545 9.23,25.545 C5.98,25.545 2.99,23.53 2.99,19.37 L2.99,6.89 L9.945,6.89 L9.945,16.445 C9.945,18.59 10.205,20.02 12.22,20.02 C13.39,20.02 15.015,19.435 15.015,16.51 L15.015,6.89 L21.97,6.89 L21.97,25.09 L21.97,25.09 Z M32.5,25.61 C28.21,25.61 23.53,23.855 23.4,19.175 L30.03,19.175 C30.095,19.825 30.355,20.345 30.875,20.8 C31.2,21.125 31.915,21.32 32.76,21.32 C33.67,21.32 35.1,20.995 35.1,19.89 C35.1,18.85 34.515,18.525 31.265,17.94 C25.935,17.03 23.79,15.34 23.79,12.22 C23.79,7.605 28.73,6.435 32.435,6.435 C36.4,6.435 41.145,7.54 41.275,12.22 L34.97,12.22 C34.905,11.635 34.645,11.18 34.19,10.855 C33.8,10.53 33.215,10.335 32.63,10.335 C31.655,10.335 30.55,10.53 30.55,11.765 C30.55,12.285 31.005,12.545 31.33,12.74 C32.5,13.26 35.1,13.39 37.44,14.17 C39.78,14.885 41.795,16.25 41.795,19.24 C41.73,24.18 36.92,25.61 32.5,25.61 L32.5,25.61 Z"></path></svg>
