<svg class="bank-logo usaa" fill="white" width="211.3" height="52" viewBox="0 0 211.3 52"><path d="M26.6 25.8c1.5-6.3 2.9-12.3 4.3-18.4.7 1.6 1 3.1 1.5 4.7.3.8.8 1.7 1.5 2.1 7.2 4.3 14.5 8.5 21.8 12.8 1.7 1 3.5 1.5 5.4.5.5-.3 1.2-.8 1.2-1.3.1-1.8.1-3.6.1-5.7-2.8 1.7-5 1.1-7.3-.3-4.6-2.8-9.2-5.7-14-8.1-2.8-1.4-3.9-3.5-4.1-6.8 1.4-.1 2.9-.3 4.4-.4.1-1.3.3-3-1.6-3.5C37.7.8 35.5.3 33.3.3 26.2.3 27.6-.9 25.8 6c-1 3.7-1.9 7.4-2.9 11.4-5.5-3.4-10.8-6.5-16-9.5-1.8-1.1-3.7-1.7-5.7-.7-.5.3-1 1-1.1 1.5-.2 1.7-.1 3.4-.1 5.3 2.9-1.7 5.2-.8 7.7.6 6.2 3.8 12.5 7.4 18.9 11.2zm6.5-10.5c.5 2.4.9 4.3 1.4 6.1.2.7.8 1.5 1.4 1.9 6.5 3.8 12.9 7.6 19.4 11.4 1 .6 2.3 1.2 3.3 1.1 1.2-.1 3.1-.8 3.4-1.7.6-1.6.2-3.5.2-5.4-3.8 1.2-4.2 1.2-7.4-.7-3.8-2.2-7.6-4.5-11.5-6.7-3.2-1.9-6.5-3.8-10.2-6zm2.1 9.2c.5 2.3.8 4.1 1.4 5.9.3.8.9 1.7 1.6 2.2C44 36 49.7 39.4 55.5 42.7c.9.5 1.9 1 2.9 1.1 1.5.1 3.4 0 3.8-1.8.4-1.6.1-3.4.1-5.2-4.3 1-4.3 1-8.3-1.3-.8-.5-1.6-.9-2.4-1.4-5.3-3.1-10.6-6.2-16.4-9.6zm-9 2.6c-6.8-4-13.4-7.8-20-11.6-1.7-1-3.5-1.2-5.2-.2-.4.2-.9.8-1 1.2V22c2.8-1.6 5.1-.9 7.4.5 5.7 3.4 11.5 6.7 17.4 10.2.6-1.9 1-3.7 1.4-5.6zm-1.7 7c-6.2-3.6-12.2-7.3-18.4-10.6-1.3-.7-3.3-.4-5-.3-.4 0-1 .9-1.1 1.5-.1 1.6 0 3.3 0 5.2 2.9-1.7 5.3-.8 7.7.7 3.6 2.2 7.4 4.4 11.1 6.5 1.4.8 2.9 1.6 4.4 2.5.5-2 .9-3.7 1.3-5.5zm-3 12.5c.5-1.9.9-3.7 1.4-5.6-5.8-3.3-11.4-6.7-17.2-9.9-.6-.4-1.5-.5-2.2-.6-2.4-.1-3.5 1-3.5 3.3v3.8c4.1-1.1 4.1-1.1 8 1.2 4.4 2.5 8.9 5.1 13.5 7.8z"></path><path d="M87.8 52c-.7-.2-1.4-.4-2.2-.5-6.4-1.1-10.8-4.8-11.3-11.3-.8-10.4-.7-20.9-1-31.4h8.5V34.4c0 1.3.1 2.7.4 4 1.1 4.8 4.4 7.1 9.2 6.6 4.4-.5 7.2-3.6 7.3-8.3.1-8.5 0-17 0-25.5V8.8h7.4c0 .5.1 1 .1 1.4 0 8.2.2 16.3-.1 24.5-.1 3.1-.8 6.4-2 9.3-1.9 4.6-5.9 6.8-10.7 7.6-.5.1-1 .3-1.6.4h-4zM122.9 52c-2.3-.3-4.7-.5-7-.8-3.7-.5-3.7-.5-4-4.1-.1-1.5-.3-3.1-.4-4.5 3.1.9 6.1 1.9 9.2 2.4 1.9.3 4-.1 5.9-.6 1.9-.5 3.1-2.1 3.2-4.2.1-2.2-.9-3.8-2.8-4.8-2.3-1.3-4.8-2.4-7.2-3.6-3.5-1.8-6.4-4.1-7.5-8.1-1.8-7 2.1-13.1 9.6-15 4.7-1.2 9.4-.6 13.8 1.3.5.2 1.1.9 1.1 1.5.1 2.1.1 4.2.1 6.7l-2.1-1.4c-3.3-2-6.7-2.7-10.5-1.8-2.1.5-3.7 1.8-4.2 4-.4 2.2.6 3.9 2.3 5.1 1.3.9 2.8 1.6 4.2 2.3 1.4.7 2.8 1.3 4.2 2 5.4 2.7 7.9 6.9 7.3 12.3-.6 5.1-4.4 9.2-9.8 10.6-1.3.3-2.7.6-4.1.8-.5-.1-.9-.1-1.3-.1zM58.3 52c-6.1-3.5-12.3-7-18.4-10.5-.4-.2-.8-.6-.9-1-.5-2.1-1-4.2-1.6-6.8 4.3 2.5 8.2 4.8 12.1 7.1 1.8 1.1 3.7 2.1 5.4 3.2 2.2 1.4 4.5 2 6.9.6 1.3 3.6.6 6-2.3 7.4h-1.2zM26.6 25.8C20.2 22 13.9 18.4 7.7 14.7 5.3 13.2 2.9 12.3 0 14c0-2-.1-3.6.1-5.3 0-.5.6-1.2 1.1-1.5 2-1.1 3.9-.5 5.8.6 5.2 3.1 10.4 6.1 15.9 9.3 1-3.9 1.9-7.6 2.9-11.4 1.8-6.9.4-5.7 7.5-5.7 2.2 0 4.4.5 6.5 1.1 1.9.5 1.7 2.3 1.6 3.5-1.6.2-3 .3-4.4.4 0 3.5 1.1 5.6 4 7 4.8 2.5 9.4 5.4 14 8.1 2.3 1.4 4.5 2 7.3.3 0 2.1.1 3.9-.1 5.7 0 .5-.7 1-1.2 1.3-1.9 1-3.7.5-5.4-.5-7.3-4.2-14.6-8.5-21.8-12.8-.7-.4-1.2-1.3-1.5-2.1-.5-1.5-.8-3.1-1.5-4.7-1.3 6.1-2.7 12.2-4.2 18.5zM33.1 15.3c3.7 2.2 7 4.1 10.2 6 3.8 2.2 7.6 4.5 11.5 6.7 3.2 1.9 3.6 1.9 7.4.7 0 1.9.4 3.8-.2 5.4-.3.9-2.2 1.6-3.4 1.7-1.1.1-2.3-.5-3.3-1.1-6.5-3.7-13-7.5-19.4-11.4-.6-.4-1.2-1.2-1.4-1.9-.5-1.8-.8-3.7-1.4-6.1zM35.2 24.5c5.8 3.4 11.1 6.5 16.4 9.6.8.5 1.6.9 2.4 1.4 4 2.3 4 2.3 8.3 1.3 0 1.8.3 3.6-.1 5.2-.4 1.8-2.3 1.9-3.8 1.8-1-.1-2-.6-2.9-1.1C49.7 39.4 44 36 38.2 32.6c-.7-.4-1.3-1.4-1.6-2.2-.5-1.8-.8-3.6-1.4-5.9zM26.2 27.1c-.5 1.9-.9 3.7-1.3 5.6-6-3.5-11.7-6.8-17.4-10.2-2.4-1.4-4.6-2.1-7.5-.5 0-2-.1-3.8 0-5.6 0-.4.5-.9 1-1.2 1.8-1 3.5-.7 5.2.2 6.7 3.9 13.3 7.8 20 11.7zM24.5 34.1c-.4 1.9-.8 3.6-1.3 5.5-1.6-.9-3-1.7-4.4-2.5-3.7-2.2-7.4-4.3-11.1-6.5-2.4-1.5-4.8-2.3-7.7-.7 0-1.9-.1-3.6.1-5.3 0-.5.7-1.5 1.1-1.5 1.7-.1 3.7-.5 5 .3 6.1 3.4 12.1 7 18.3 10.7zM21.5 46.6c-4.6-2.7-9-5.3-13.5-7.8-3.8-2.2-3.8-2.2-8-1.2v-3.8c0-2.3 1.1-3.4 3.4-3.3.8 0 1.6.2 2.2.6 5.7 3.3 11.4 6.6 17.2 9.9-.4 1.9-.8 3.7-1.3 5.6zM210.3 48c-1.8-5.1-3.7-10.3-5.5-15.4-2.8-8.1-5.7-16.3-8.6-24.3h-8.4c.1 2 .7 3.6.2 5-3.9 10.9-8 21.8-12.1 32.6-.2.5-.5.9-.9 1.8-4.7-13.4-9.3-26.4-13.9-39.4h-9c2.2 3 .9 5.4-.1 8l-6.3 16.8c-2.2 5.8-4.3 11.6-6.5 17.4 7.2 1.2 7.7.9 9.9-5.5.4-1.2.9-1.7 2.2-1.6 2.5.1 5.1 0 7.6 0 5.6 0 5.6 0 7.5 5.4.1.2.1.5.2.6.6.5 1.2 1.3 1.8 1.3 4.1.1 8.3.1 12.4 0 .6 0 1.5-.7 1.8-1.2.7-1.5 1.1-3.2 1.8-4.7.3-.6 1.1-1.2 1.7-1.3 4.1-.1 8.2-.1 12.2 0 .6 0 1.4.6 1.6 1.1 1 2 1.2 4.9 2.7 5.9 1.6 1 4.5.3 6.7.3.6 0 .8 0 1.8-.1v-.8c.2-.7-.5-1.2-.8-1.9zm-58.4-10.7c1.9-5 3.7-10.5 5.7-16.1 1.8 5.7 3.4 11.1 5.1 16.1h-10.8zm35.1 0c1.8-5 3.6-10.2 5.4-15.3.2 0 .3-.1.5-.1 1.6 5.1 3.2 10.4 4.9 15.4H187z"></path></svg>
