<svg class="bank-logo wells" width="210" height="50" viewBox="0 0 210 89.3"><path d="M26.9 68.1h-2.7V57.6H33c4.2 0 6.6.3 7.8 2.4.8 1.9 1.4 4.2 1.4 6.9v.2h3.9V53.6H10.2v3.9h2c3.1 0 4.1.3 4.1 3.2v20.7c0 2.9-1 3.2-4.1 3.2h-2v3.9h21.5v-3.9h-4.1c-3.1 0-3.6-.3-3.6-3.2v-9.2h2.7c4.4 0 5.1 1.2 5.1 7.1h3.4V61.9H32c0 5.4-.6 6.2-5.1 6.2zM23.4 36.1L31 16.6l8 19.3h6.3l10-26.8c1.2-3.1 2.2-4.2 5.1-4.2h.5c3.1 0 4.7.3 4.7 3.2v20.7c0 2.9-1.7 3.2-4.7 3.2h-2v3.9h38.5v-14h-4.1c-.5 6.9-2 10-8.5 10H73.6V19.7h2.5c4.4 0 4.9.8 5.3 6.8h4.1V8.6h-4.1c-.3 5.3-1 6.8-5.4 6.8h-2.5V5.1h9.8c7.1 0 9.2 1.4 9.3 9.5h4.1V1H44.9v3.9h2.4c1.9 0 2.9.3 2.9 1.5 0 .7 0 1.5-.5 2.7l-6.8 17.6h-.3c-3.1-8.8-7.3-19-7.3-19-.3-.5-.3-1-.3-1.5 0-1 .7-1.4 2.4-1.4h3.1V1h-19v4.1h2.4c3.1 0 3.9 1.5 4.2 4.4L21.2 27h-.5c-3.2-9.5-7.3-19.2-7.3-19.2-.2-.5-.2-1-.2-1.2 0-1.2.8-1.7 2.9-1.7h1.7V1H0v3.9h.8c2.5 0 4.4 1.7 5.6 4.7L16.7 36h6.7zM144.4 8.3v20.5c0 2.9-1.4 3.2-4.4 3.2h-.5v4.1h34.7V22h-4.1c0 3.4-.5 5.4-1.5 7.3-1.2 2-3.6 2.5-7.8 2.5h-8.5V8.1c0-2.9.7-3.2 4.1-3.2h2.5V1h-21.2v4.1h2.2c3.2 0 4.5.3 4.5 3.2zM106.8 8.3v20.5c0 2.9-1.4 3.2-4.4 3.2h-2v4.1h35.9V22h-4.1c0 3.4-.5 5.4-1.5 7.3-1 2-3.6 2.5-7.6 2.5h-8.5V8.1c0-2.9.7-3.2 4.1-3.2h2.5V1H100v4.1h2c3.1 0 4.8.3 4.8 3.2zM196.6 14.6l-7.3-1.4c-3.4-.7-5.9-1-5.9-3.6 0-2.9 2.9-5.3 6.9-5.4 5.8-.2 12.4 1.9 13.2 8.6h3.9V.7h-3.1l-1.7 2.9C199 .7 194.1 0 190.3 0c-7.8.2-13.6 4.2-13.4 10.7.2 5.8 3.1 8.5 12 10l5.9 1.2c4.1.8 9 .5 8.5 4.9-.3 3.9-4.2 5.3-9.8 5.1-6.4-.2-10.8-3.1-12-9.8h-4.1v14.1h3.6l1.2-3.7c1.2 1 6.6 4.2 12.2 4.2 9.3 0 15.6-2.9 15.6-10.8 0-8.6-5.8-10.1-13.4-11.3zM146.6 73.9h1.7c3.4 0 3.9 0 3.9 2.4v1.9c0 4.1-4.2 6.4-9 6.4-6.6-.2-10.2-5.1-10.2-14.1 0-8.8 4.4-13.6 10.2-13.6s9.3 2.4 11 7.6h3.4V53.1h-2.7l-1.9 3.6c-2.5-2.7-7.1-3.7-11-3.7-4.7-.2-9.3 1.5-12.4 4.6-3.6 3.6-5.3 7.8-5.3 13.2-.2 5.4 1.9 10 5.3 13.6 3.4 3.2 7.5 4.9 12.2 4.9 4.1 0 8.6-1.2 11.9-3.7l1.9 2.9h2.9V76.6c0-2.9.3-2.7 2.9-2.7h1.4v-4.1h-16.1v4.1zM117.6 84.2c-1 .2-1.9-.8-2-2.9v-2.2c-.3-4.7-1.2-6.9-7.5-8.5 6.8-.8 10.7-3.9 10.7-9 0-5.6-4.2-8.3-13.2-8.3H81.5v3.9h2.9c3.1 0 3.6.3 3.6 3.2v20.8c0 2.5-1.7 3.2-3.7 3.2h-3.1v.1c-1.6-.1-2.6-.9-3.6-3.4L66.4 53.7h-8.6L46.1 81.4c-1 2.4-1.9 3.4-4.6 3.4H40v3.9h18.1v-3.9h-3.6c-1.9 0-2.9 0-2.9-1.2 0-.5.2-1 .5-1.7l1.7-4.4h13.7l1.5 4.1c.3.7.5 1.2.5 1.7 0 1.2-1 1.4-3.1 1.4h-3.7v4.1h20.5v-.2h19.3v-3.9h-3.2c-3.1 0-3.6-.3-3.6-3.2V72h3.6c6.1 0 8 1.2 8.1 7.1l.2 4.1c.2 4.7 3.4 6.1 8.1 6.1 4.2 0 7.1-2.5 7.1-9 0-.7 0-1.2.2-2h-3.4c.4 4.2.2 5.8-2 5.9zm-61.8-11L61 59.8l5.3 13.4H55.8zm47.8-5.1H96V57.5h7.5c4.9 0 7.3 1.2 7.3 5.3-.1 3.6-2.5 5.2-7.2 5.3zM186.1 52.7c-11.5 0-20.5 7.1-20.5 18.1 0 11 9 18.3 20.7 18.3 11.5 0 20.3-7.3 20.2-18.3-.1-11-8.7-18.1-20.4-18.1zm0 32.4c-6.8 0-12-4.9-12-14.1s5.3-13.9 12-13.9c6.8 0 11.9 4.7 11.9 13.9s-5.1 14.1-11.9 14.1z"></path></svg>
