<?xml version="1.0" encoding="UTF-8" standalone="no"?>
<svg width="32px" height="32px" viewBox="0 0 32 32" version="1.1" xmlns="http://www.w3.org/2000/svg" xmlns:xlink="http://www.w3.org/1999/xlink" xmlns:sketch="http://www.bohemiancoding.com/sketch/ns">
    <!-- Generator: Sketch 3.3.1 (12002) - http://www.bohemiancoding.com/sketch -->
    <title>address</title>
    <desc>Created with Sketch.</desc>
    <defs></defs>
    <g id="Page-1" stroke="none" stroke-width="1" fill="none" fill-rule="evenodd" sketch:type="MSPage">
        <g id="address" sketch:type="MSArtboardGroup" fill="#444444">
            <g id="Imported-Layers" sketch:type="MSLayerGroup" transform="translate(1.000000, 1.000000)">
                <path d="M3.52941176,2.94117647 L25.8823529,2.94117647 L25.8823529,4.11764706 L3.52941176,4.11764706 L3.52941176,2.94117647 Z" id="Fill-1" sketch:type="MSShapeGroup"></path>
                <path d="M23.99,21.8217647 L22.3529412,23.3852941 L22.3529412,18.2129412 C22.3529412,17.8358824 22.1411765,17.5311765 21.7647059,17.5311765 C21.3882353,17.5311765 21.1764706,17.8358824 21.1764706,18.2129412 L21.1764706,23.3852941 L19.5929412,21.8217647 C19.3264706,21.5552941 18.8858824,21.5552941 18.6188235,21.8217647 C18.3523529,22.0882353 18.2664706,22.5194118 18.5329412,22.7858824 L21.1764706,25.5123529 L21.1764706,25.5141176 L21.7376471,25.9952941 L22.2594118,25.5141176 C22.26,25.5135294 22.2805882,25.5129412 22.2805882,25.5129412 L25.0176471,22.7858824 C25.2841176,22.5194118 25.2894118,22.0882353 25.0223529,21.8217647 C24.7558824,21.5552941 24.2564706,21.5552941 23.99,21.8217647" id="Fill-2" sketch:type="MSShapeGroup"></path>
                <path d="M27.0588235,15.5470588 L27.0588235,5.29411765 L3.40882353,5.29411765 C2.28117647,5.29411765 1.36352941,4.36294118 1.36352941,3.23529412 C1.36352941,2.10764706 2.28117647,1.17647059 3.40882353,1.17647059 L26.5905882,1.17647059 C26.9670588,1.17647059 27.2723529,0.965294118 27.2723529,0.588235294 C27.2723529,0.211176471 26.9670588,0 26.5905882,0 L3.40882353,0 C1.53,0 0.000588235294,1.54411765 0,3.42294118 L0,21.7488235 C0,23.6288235 1.52882353,25.2941176 3.40882353,25.2941176 L14.3176471,25.2941176 C14.3758824,25.2941176 14.4276471,25.2541176 14.4811765,25.2382353 C15.8164706,27.9482353 18.5988235,29.8129412 21.8182353,29.8129412 C26.3294118,29.8129412 29.8929412,26.1382353 29.8929412,21.6264706 C29.8929412,19.2129412 28.8235294,17.0458824 27.0588235,15.5470588 L27.0588235,15.5470588 Z M13.6364706,21.6347059 L13.6370588,21.6335294 L13.6370588,21.6358824 L13.6364706,21.6347059 L13.6364706,21.6347059 Z M21.8182353,28.44 C18.0588235,28.44 15,25.3817647 15,21.6217647 C15,17.8623529 18.0588235,14.8041176 21.8182353,14.8041176 C25.5776471,14.8041176 28.6364706,17.8623529 28.6364706,21.6217647 C28.6364706,25.3817647 25.5776471,28.44 21.8182353,28.44 L21.8182353,28.44 Z" id="Fill-3" sketch:type="MSShapeGroup"></path>
            </g>
        </g>
    </g>
</svg>