<?xml version="1.0" encoding="UTF-8" standalone="no"?>
<svg width="32px" height="32px" viewBox="0 0 32 32" version="1.1" xmlns="http://www.w3.org/2000/svg" xmlns:xlink="http://www.w3.org/1999/xlink" xmlns:sketch="http://www.bohemiancoding.com/sketch/ns">
    <!-- Generator: Sketch 3.3.1 (12002) - http://www.bohemiancoding.com/sketch -->
    <title>home</title>
    <desc>Created with Sketch.</desc>
    <defs></defs>
    <g id="Page-1" stroke="none" stroke-width="1" fill="none" fill-rule="evenodd" sketch:type="MSPage">
        <g id="home" sketch:type="MSArtboardGroup" fill="#444444">
            <g id="Imported-Layers" sketch:type="MSLayerGroup">
                <path d="M5.2244898,15.5 L5.2244898,29.7083333 L13.7142857,29.7083333 L13.7142857,21.3125 L18.9387755,21.3125 L18.9387755,29.7083333 L28.0816327,29.7083333 L28.0816327,16.1458333 L16.6354286,4.8263125 L5.2244898,15.5" id="Fill-1" sketch:type="MSShapeGroup"></path>
                <path d="M31.3469388,16.1787708 C31.1843265,16.1787708 31.0223673,16.1193542 30.8956735,15.999875 L16.3265306,2.2184375 L1.75738776,15.999875 C1.49681633,16.2459375 1.08342857,16.2375417 0.833959184,15.9798542 C0.584489796,15.7221667 0.594285714,15.3133542 0.854204082,15.0666458 L16.3265306,0.430770833 L31.7982041,15.066 C32.0581224,15.3127083 32.0679184,15.7215208 31.818449,15.9792083 C31.690449,16.1116042 31.5193469,16.1787708 31.3469388,16.1787708" id="Fill-2" sketch:type="MSShapeGroup"></path>
                <path d="M26.122449,8.42877083 C25.7613061,8.42877083 25.4693878,8.1394375 25.4693878,7.7829375 L25.4693878,3.9079375 L21.5510204,3.9079375 C21.1898776,3.9079375 20.8979592,3.61860417 20.8979592,3.26210417 C20.8979592,2.90560417 21.1898776,2.61627083 21.5510204,2.61627083 L26.7755102,2.61627083 L26.7755102,7.7829375 C26.7755102,8.1394375 26.4835918,8.42877083 26.122449,8.42877083" id="Fill-3" sketch:type="MSShapeGroup"></path>
            </g>
        </g>
    </g>
</svg>