<?xml version="1.0" encoding="UTF-8" standalone="no"?>
<svg width="32px" height="32px" viewBox="0 0 32 32" version="1.1" xmlns="http://www.w3.org/2000/svg" xmlns:xlink="http://www.w3.org/1999/xlink" xmlns:sketch="http://www.bohemiancoding.com/sketch/ns">
    <!-- Generator: Sketch 3.3.1 (12002) - http://www.bohemiancoding.com/sketch -->
    <title>location</title>
    <desc>Created with Sketch.</desc>
    <defs></defs>
    <g id="Page-1" stroke="none" stroke-width="1" fill="none" fill-rule="evenodd" sketch:type="MSPage">
        <g id="location" sketch:type="MSArtboardGroup" fill="#444444">
            <g id="Imported-Layers" sketch:type="MSLayerGroup" transform="translate(0.500000, 0.300000)">
                <path d="M22.6192174,18.9504348 C22.1360217,19.7288043 21.6096957,20.5395217 21.0395652,21.382587 C25.8391739,22.1003043 28.295587,23.6375 28.295587,24.4023913 C28.295587,25.4206739 23.9421087,27.8076739 15.5,27.8076739 C7.05721739,27.8076739 2.70373913,25.4206739 2.70373913,24.4023913 C2.70373913,23.6375 5.16015217,22.1003043 9.96043478,21.382587 C9.38963043,20.5395217 8.86330435,19.7288043 8.3801087,18.9504348 C3.64317391,19.8440435 0.0276304348,21.6804565 0.0276304348,24.4023913 C0.0276304348,28.3946522 7.812,30.4837826 15.5,30.4837826 C23.188,30.4837826 30.9716957,28.3946522 30.9716957,24.4023913 C30.9716957,21.6804565 27.3568261,19.8440435 22.6192174,18.9504348" id="Fill-1" sketch:type="MSShapeGroup"></path>
                <path d="M15.5006739,24.1483261 C16.1961522,24.1483261 16.8505217,23.8167609 17.2616087,23.2553913 C19.8932391,19.6627609 24.5486304,12.8043478 24.5486304,9.21980435 C24.5486304,4.22206522 20.4977391,0.171173913 15.5006739,0.171173913 C10.5022609,0.171173913 6.45204348,4.22206522 6.45204348,9.21980435 C6.45204348,12.8036739 11.106087,19.6627609 13.7383913,23.2553913 C14.1508261,23.8167609 14.8051957,24.1483261 15.5006739,24.1483261 L15.5006739,24.1483261 Z M11.7361957,9.04121739 C11.7361957,6.96286957 13.4209783,5.27808696 15.5,5.27808696 C17.5783478,5.27808696 19.2631304,6.96286957 19.2631304,9.04121739 C19.2631304,11.1195652 17.5783478,12.8043478 15.5,12.8043478 C13.4209783,12.8050217 11.7361957,11.1202391 11.7361957,9.04121739 L11.7361957,9.04121739 Z" id="Fill-2" sketch:type="MSShapeGroup"></path>
            </g>
        </g>
    </g>
</svg>