<?xml version="1.0" encoding="UTF-8" standalone="no"?>
<svg width="32px" height="32px" viewBox="0 0 32 32" version="1.1" xmlns="http://www.w3.org/2000/svg" xmlns:xlink="http://www.w3.org/1999/xlink" xmlns:sketch="http://www.bohemiancoding.com/sketch/ns">
    <!-- Generator: Sketch 3.3.1 (12002) - http://www.bohemiancoding.com/sketch -->
    <title>logo</title>
    <desc>Created with Sketch.</desc>
    <defs></defs>
    <g id="Page-1" stroke="none" stroke-width="1" fill="none" fill-rule="evenodd" sketch:type="MSPage">
        <g id="logo" sketch:type="MSArtboardGroup" fill="#444444">
            <g id="Imported-Layers" sketch:type="MSLayerGroup" transform="translate(3.000000, -0.200000)">
                <path d="M3.50374074,27.3473939 C3.93514815,27.3313939 4.36607407,27.3192727 4.79844444,27.3100606 L4.79844444,26.2637576 C4.36607407,26.272 3.93514815,26.2831515 3.50374074,26.2972121 L3.50374074,27.3473939" id="Fill-1" sketch:type="MSShapeGroup"></path>
                <path d="M1.89222222,27.4206061 C2.31785185,27.3973333 2.74396296,27.3769697 3.17007407,27.36 L3.17007407,26.3093333 C2.74396296,26.3243636 2.31785185,26.3427879 1.89222222,26.3641212 L1.89222222,27.4206061" id="Fill-2" sketch:type="MSShapeGroup"></path>
                <path d="M0.266740741,27.526303 C0.697666667,27.494303 1.12859259,27.465697 1.55951852,27.44 L1.55951852,26.3815758 C1.12859259,26.4043636 0.697666667,26.4305455 0.266740741,26.4596364 L0.266740741,27.526303" id="Fill-3" sketch:type="MSShapeGroup"></path>
                <path d="M13.2710741,27.5529697 C13.7015185,27.5864242 14.131963,27.6237576 14.5614444,27.6635152 L14.5614444,26.5847273 C14.131963,26.5478788 13.7015185,26.5139394 13.2710741,26.4838788 L13.2710741,27.5529697" id="Fill-4" sketch:type="MSShapeGroup"></path>
                <path d="M6.76192593,27.2911515 C7.19381481,27.2921212 7.62474074,27.296 8.05711111,27.3037576 L8.05711111,26.2579394 C7.62474074,26.2516364 7.19381481,26.2472727 6.76192593,26.2467879 L6.76192593,27.2911515" id="Fill-5" sketch:type="MSShapeGroup"></path>
                <path d="M5.13211111,27.3037576 C5.564,27.296 5.99588889,27.2921212 6.42777778,27.2911515 L6.42777778,26.2467879 C5.99588889,26.2472727 5.564,26.2516364 5.13211111,26.2579394 L5.13211111,27.3037576" id="Fill-6" sketch:type="MSShapeGroup"></path>
                <path d="M19.7195556,28.3088485 C20.1456667,28.3762424 20.5708148,28.4460606 20.9954815,28.5197576 L20.9954815,27.3590303 C20.5708148,27.2930909 20.1456667,27.2295758 19.7195556,27.1694545 L19.7195556,28.3088485" id="Fill-7" sketch:type="MSShapeGroup"></path>
                <path d="M0.266740741,9.968 C0.697666667,9.98545455 1.12859259,10.0009697 1.55951852,10.0150303 L1.55951852,8.95660606 C1.12859259,8.94012121 0.697666667,8.92169697 0.266740741,8.90133333 L0.266740741,9.968" id="Fill-8" sketch:type="MSShapeGroup"></path>
                <path d="M3.50374074,10.0659394 C3.93514815,10.0741818 4.36607407,10.0814545 4.79844444,10.086303 L4.79844444,9.04048485 C4.36607407,9.03466667 3.93514815,9.02642424 3.50374074,9.01624242 L3.50374074,10.0659394" id="Fill-9" sketch:type="MSShapeGroup"></path>
                <path d="M6.42777778,16.992 C5.99588889,16.992 5.564,16.992 5.13211111,16.9929697 L5.13211111,18.038303 C5.564,18.0373333 5.99588889,18.0363636 6.42777778,18.0358788 L6.42777778,16.992" id="Fill-10" sketch:type="MSShapeGroup"></path>
                <path d="M3.50374074,18.0455758 C3.93514815,18.0431515 4.36607407,18.0407273 4.79844444,18.0397576 L4.79844444,16.9929697 C4.36607407,16.9939394 3.93514815,16.9949091 3.50374074,16.9958788 L3.50374074,18.0455758" id="Fill-11" sketch:type="MSShapeGroup"></path>
                <path d="M22.9209259,28.8746667 C23.3441481,28.9580606 23.7654444,29.0443636 24.1867407,29.1345455 L24.1867407,27.9161212 C23.7654444,27.8351515 23.3441481,27.7570909 22.9209259,27.6814545 L22.9209259,28.8746667" id="Fill-12" sketch:type="MSShapeGroup"></path>
                <path d="M24.1867407,3.24218182 C23.7654444,3.33236364 23.3441481,3.41866667 22.9209259,3.50206061 L22.9209259,4.69575758 C23.3441481,4.62012121 23.7654444,4.54206061 24.1867407,4.46012121 L24.1867407,3.24218182" id="Fill-13" sketch:type="MSShapeGroup"></path>
                <path d="M21.3233704,28.5764848 C21.748037,28.6516364 22.1717407,28.7292121 22.594,28.8106667 L22.594,27.6237576 C22.1717407,27.5500606 21.748037,27.4792727 21.3233704,27.4113939 L21.3233704,28.5764848" id="Fill-14" sketch:type="MSShapeGroup"></path>
                <path d="M20.9954815,3.85745455 C20.5708148,3.93066667 20.1456667,4.00048485 19.7195556,4.06739394 L19.7195556,5.20775758 C20.1456667,5.14763636 20.5708148,5.08412121 20.9954815,5.01769697 L20.9954815,3.85745455" id="Fill-15" sketch:type="MSShapeGroup"></path>
                <path d="M22.594,3.56606061 C22.1717407,3.6470303 21.748037,3.72557576 21.3233704,3.80024242 L21.3233704,4.96581818 C21.748037,4.89842424 22.1717407,4.82715152 22.594,4.75345455 L22.594,3.56606061" id="Fill-16" sketch:type="MSShapeGroup"></path>
                <path d="M6.42777778,5.08557576 C5.99588889,5.08460606 5.564,5.08072727 5.13211111,5.07345455 L5.13211111,6.11878788 C5.564,6.12606061 5.99588889,6.1289697 6.42777778,6.12993939 L6.42777778,5.08557576" id="Fill-17" sketch:type="MSShapeGroup"></path>
                <path d="M8.05711111,5.07345455 C7.62474074,5.08072727 7.19381481,5.08460606 6.76192593,5.08557576 L6.76192593,6.12993939 C7.19381481,6.1289697 7.62474074,6.12606061 8.05711111,6.11878788 L8.05711111,5.07345455" id="Fill-18" sketch:type="MSShapeGroup"></path>
                <path d="M3.50374074,28.6758788 C3.93514815,28.6584242 4.36607407,28.6443636 4.79844444,28.6341818 L4.79844444,27.5883636 C4.36607407,27.5975758 3.93514815,27.609697 3.50374074,27.6261818 L3.50374074,28.6758788" id="Fill-19" sketch:type="MSShapeGroup"></path>
                <path d="M6.76192593,28.6133333 C7.19381481,28.6138182 7.62474074,28.6186667 8.05711111,28.6269091 L8.05711111,27.5815758 C7.62474074,27.5738182 7.19381481,27.5699394 6.76192593,27.5689697 L6.76192593,28.6133333" id="Fill-20" sketch:type="MSShapeGroup"></path>
                <path d="M19.7195556,29.7527273 C20.1456667,29.8269091 20.5708148,29.9054545 20.9954815,29.9873939 L20.9954815,28.8281212 C20.5708148,28.7524848 20.1456667,28.6807273 19.7195556,28.6128485 L19.7195556,29.7527273" id="Fill-21" sketch:type="MSShapeGroup"></path>
                <path d="M13.2710741,28.9061818 C13.7015185,28.944 14.131963,28.9852121 14.5614444,29.030303 L14.5614444,27.9510303 C14.131963,27.9093333 13.7015185,27.872 13.2710741,27.8370909 L13.2710741,28.9061818" id="Fill-22" sketch:type="MSShapeGroup"></path>
                <path d="M3.50374074,15.3813333 C3.93514815,15.382303 4.36607407,15.3832727 4.79844444,15.3842424 L4.79844444,14.3374545 C4.36607407,14.336 3.93514815,14.3340606 3.50374074,14.3316364 L3.50374074,15.3813333" id="Fill-23" sketch:type="MSShapeGroup"></path>
                <path d="M6.42777778,14.3408485 C5.99588889,14.3408485 5.564,14.3398788 5.13211111,14.3389091 L5.13211111,15.3842424 C5.564,15.3852121 5.99588889,15.385697 6.42777778,15.385697 L6.42777778,14.3408485" id="Fill-24" sketch:type="MSShapeGroup"></path>
                <path d="M24.1867407,1.70084848 C23.7654444,1.80169697 23.3441481,1.89818182 22.9209259,1.99175758 L22.9209259,3.1849697 C23.3441481,3.09915152 23.7654444,3.01090909 24.1867407,2.91830303 L24.1867407,1.70084848" id="Fill-25" sketch:type="MSShapeGroup"></path>
                <path d="M20.9954815,2.38933333 C20.5708148,2.47127273 20.1456667,2.54933333 19.7195556,2.62448485 L19.7195556,3.76436364 C20.1456667,3.696 20.5708148,3.62472727 20.9954815,3.54909091 L20.9954815,2.38933333" id="Fill-26" sketch:type="MSShapeGroup"></path>
                <path d="M8.05711111,3.74981818 C7.62474074,3.75806061 7.19381481,3.76242424 6.76192593,3.76339394 L6.76192593,4.80824242 C7.19381481,4.80678788 7.62474074,4.80290909 8.05711111,4.79515152 L8.05711111,3.74981818" id="Fill-27" sketch:type="MSShapeGroup"></path>
                <path d="M6.42777778,11.696 C5.99588889,11.696 5.564,11.6945455 5.13211111,11.6916364 L5.13211111,12.7369697 C5.564,12.7393939 5.99588889,12.7403636 6.42777778,12.7408485 L6.42777778,11.696" id="Fill-28" sketch:type="MSShapeGroup"></path>
                <path d="M1.89222222,12.7006061 C2.31785185,12.7078788 2.74396296,12.7141818 3.17007407,12.7195152 L3.17007407,11.6688485 C2.74396296,11.6615758 2.31785185,11.6538182 1.89222222,11.6446061 L1.89222222,12.7006061" id="Fill-29" sketch:type="MSShapeGroup"></path>
                <path d="M0.266740741,7.26690909 C0.697666667,7.29309091 1.12859259,7.31539394 1.55951852,7.33527273 L1.55951852,6.27684848 C1.12859259,6.25454545 0.697666667,6.22933333 0.266740741,6.20121212 L0.266740741,7.26690909" id="Fill-30" sketch:type="MSShapeGroup"></path>
                <path d="M3.50374074,7.40848485 C3.93514815,7.42109091 4.36607407,7.43030303 4.79844444,7.43757576 L4.79844444,6.39127273 C4.36607407,6.38351515 3.93514815,6.37236364 3.50374074,6.35830303 L3.50374074,7.40848485" id="Fill-31" sketch:type="MSShapeGroup"></path>
                <path d="M1.89222222,7.35030303 C2.31785185,7.36872727 2.74396296,7.38521212 3.17007407,7.39830303 L3.17007407,6.34763636 C2.74396296,6.33260606 2.31785185,6.31466667 1.89222222,6.29333333 L1.89222222,7.35030303" id="Fill-32" sketch:type="MSShapeGroup"></path>
                <path d="M1.89222222,8.688 C2.31785185,8.70351515 2.74396296,8.71757576 3.17007407,8.72824242 L3.17007407,7.67757576 C2.74396296,7.66448485 2.31785185,7.6489697 1.89222222,7.63151515 L1.89222222,8.688" id="Fill-33" sketch:type="MSShapeGroup"></path>
                <path d="M1.89222222,24.745697 C2.31785185,24.7277576 2.74396296,24.7122424 3.17007407,24.6991515 L3.17007407,23.6484848 C2.74396296,23.6601212 2.31785185,23.6732121 1.89222222,23.6887273 L1.89222222,24.745697" id="Fill-34" sketch:type="MSShapeGroup"></path>
                <path d="M3.50374074,24.6899394 C3.93514815,24.6778182 4.36607407,24.6681212 4.79844444,24.6613333 L4.79844444,23.6145455 C4.36607407,23.6213333 3.93514815,23.6295758 3.50374074,23.6397576 L3.50374074,24.6899394" id="Fill-35" sketch:type="MSShapeGroup"></path>
                <path d="M1.89222222,19.3958788 C2.31785185,19.3886061 2.74396296,19.3827879 3.17007407,19.3779394 L3.17007407,18.3272727 C2.74396296,18.3306667 2.31785185,18.3340606 1.89222222,18.3389091 L1.89222222,19.3958788" id="Fill-36" sketch:type="MSShapeGroup"></path>
                <path d="M3.50374074,19.3745455 C3.93514815,19.369697 4.36607407,19.366303 4.79844444,19.3638788 L4.79844444,18.3175758 C4.36607407,18.3190303 3.93514815,18.3214545 3.50374074,18.3248485 L3.50374074,19.3745455" id="Fill-37" sketch:type="MSShapeGroup"></path>
                <path d="M0.266740741,19.4254545 C0.697666667,19.4162424 1.12859259,19.408 1.55951852,19.4007273 L1.55951852,18.342303 C1.12859259,18.3471515 0.697666667,18.3524848 0.266740741,18.3592727 L0.266740741,19.4254545" id="Fill-38" sketch:type="MSShapeGroup"></path>
                <path d="M3.50374074,14.0523636 C3.93514815,14.0552727 4.36607407,14.057697 4.79844444,14.0596364 L4.79844444,13.0133333 C4.36607407,13.0104242 3.93514815,13.0070303 3.50374074,13.0026667 L3.50374074,14.0523636" id="Fill-39" sketch:type="MSShapeGroup"></path>
                <path d="M1.89222222,23.408 C2.31785185,23.3934545 2.74396296,23.3798788 3.17007407,23.3692121 L3.17007407,22.3180606 C2.74396296,22.3272727 2.31785185,22.3384242 1.89222222,22.3515152 L1.89222222,23.408" id="Fill-40" sketch:type="MSShapeGroup"></path>
                <path d="M1.89222222,14.038303 C2.31785185,14.0426667 2.74396296,14.0465455 3.17007407,14.0499394 L3.17007407,12.9992727 C2.74396296,12.9944242 2.31785185,12.9881212 1.89222222,12.9818182 L1.89222222,14.038303" id="Fill-41" sketch:type="MSShapeGroup"></path>
                <path d="M0.266740741,14.0179394 C0.697666667,14.0242424 1.12859259,14.0295758 1.55951852,14.0344242 L1.55951852,12.976 C1.12859259,12.9692121 0.697666667,12.9604848 0.266740741,12.9512727 L0.266740741,14.0179394" id="Fill-42" sketch:type="MSShapeGroup"></path>
                <path d="M0.266740741,26.176 C0.697666667,26.1478788 1.12859259,26.1226667 1.55951852,26.0998788 L1.55951852,25.0419394 C1.12859259,25.0613333 0.697666667,25.0841212 0.266740741,25.1098182 L0.266740741,26.176" id="Fill-43" sketch:type="MSShapeGroup"></path>
                <path d="M3.50374074,26.0184242 C3.93514815,26.0043636 4.36607407,25.993697 4.79844444,25.9854545 L4.79844444,24.9396364 C4.36607407,24.9469091 3.93514815,24.9566061 3.50374074,24.9687273 L3.50374074,26.0184242" id="Fill-44" sketch:type="MSShapeGroup"></path>
                <path d="M1.89222222,20.7330909 C2.31785185,20.7233939 2.74396296,20.7151515 3.17007407,20.7083636 L3.17007407,19.6572121 C2.74396296,19.6630303 2.31785185,19.6688485 1.89222222,19.6761212 L1.89222222,20.7330909" id="Fill-45" sketch:type="MSShapeGroup"></path>
                <path d="M6.42777778,19.6363636 C5.99588889,19.6363636 5.564,19.6378182 5.13211111,19.6402424 L5.13211111,20.6855758 C5.564,20.6821818 5.99588889,20.6812121 6.42777778,20.6812121 L6.42777778,19.6363636" id="Fill-46" sketch:type="MSShapeGroup"></path>
                <path d="M0.266740741,20.7757576 C0.697666667,20.7621818 1.12859259,20.7510303 1.55951852,20.7403636 L1.55951852,19.6819394 C1.12859259,19.6901818 0.697666667,19.6989091 0.266740741,19.7090909 L0.266740741,20.7757576" id="Fill-47" sketch:type="MSShapeGroup"></path>
                <path d="M6.42777778,20.9580606 C5.99588889,20.9585455 5.564,20.9604848 5.13211111,20.9638788 L5.13211111,22.0092121 C5.564,22.0053333 5.99588889,22.0029091 6.42777778,22.0029091 L6.42777778,20.9580606" id="Fill-48" sketch:type="MSShapeGroup"></path>
                <path d="M1.89222222,22.070303 C2.31785185,22.0581818 2.74396296,22.0475152 3.17007407,22.038303 L3.17007407,20.9876364 C2.74396296,20.9953939 2.31785185,21.0036364 1.89222222,21.014303 L1.89222222,22.070303" id="Fill-49" sketch:type="MSShapeGroup"></path>
                <path d="M3.50374074,22.0315152 C3.93514815,22.0237576 4.36607407,22.0174545 4.79844444,22.0126061 L4.79844444,20.966303 C4.36607407,20.969697 3.93514815,20.9755152 3.50374074,20.982303 L3.50374074,22.0315152" id="Fill-50" sketch:type="MSShapeGroup"></path>
                <path d="M11.6465556,30.2618182 C12.0774815,30.2933333 12.5084074,30.3292121 12.9388519,30.3694545 L12.9388519,29.1612121 C12.5084074,29.1243636 12.0774815,29.0909091 11.6465556,29.0618182 L11.6465556,30.2618182" id="Fill-51" sketch:type="MSShapeGroup"></path>
                <path d="M6.42777778,2.30254545 C5.99588889,2.30109091 5.564,2.29672727 5.13211111,2.2870303 L5.13211111,3.472 C5.564,3.48024242 5.99588889,3.48460606 6.42777778,3.48557576 L6.42777778,2.30254545" id="Fill-52" sketch:type="MSShapeGroup"></path>
                <path d="M21.3233704,31.6819394 C21.748037,31.7755152 22.1717407,31.8734545 22.594,31.9752727 L22.594,30.6298182 C22.1717407,30.5372121 21.748037,30.4470303 21.3233704,30.3612121 L21.3233704,31.6819394" id="Fill-53" sketch:type="MSShapeGroup"></path>
                <path d="M8.05711111,2.2870303 C7.62474074,2.29672727 7.19381481,2.30109091 6.76192593,2.30254545 L6.76192593,3.48557576 C7.19381481,3.48509091 7.62474074,3.48024242 8.05711111,3.472 L8.05711111,2.2870303" id="Fill-54" sketch:type="MSShapeGroup"></path>
                <path d="M10.0186667,30.16 C10.4505556,30.1818182 10.881963,30.2075152 11.3128889,30.2375758 L11.3128889,29.04 C10.881963,29.0123636 10.4505556,28.9895758 10.0186667,28.969697 L10.0186667,30.16" id="Fill-55" sketch:type="MSShapeGroup"></path>
                <path d="M8.39077778,30.0974545 C8.82314815,30.1090909 9.25503704,30.1246061 9.68548148,30.144 L9.68548148,28.9546667 C9.25503704,28.9372121 8.82218519,28.9226667 8.39077778,28.9124848 L8.39077778,30.0974545" id="Fill-56" sketch:type="MSShapeGroup"></path>
                <path d="M19.7195556,31.3478788 C20.1456667,31.4307879 20.5708148,31.5185455 20.9954815,31.6101818 L20.9954815,30.2962424 C20.5708148,30.2123636 20.1456667,30.1323636 19.7195556,30.0557576 L19.7195556,31.3478788" id="Fill-57" sketch:type="MSShapeGroup"></path>
                <path d="M11.3128889,2.13915152 C10.881963,2.16921212 10.4505556,2.19490909 10.0186667,2.21672727 L10.0186667,3.40751515 C10.4505556,3.38763636 10.881963,3.36436364 11.3128889,3.33672727 L11.3128889,2.13915152" id="Fill-58" sketch:type="MSShapeGroup"></path>
                <path d="M22.594,0.401454545 C22.1717407,0.503272727 21.748037,0.601212121 21.3233704,0.694787879 L21.3233704,2.01551515 C21.748037,1.92921212 22.1717407,1.84 22.594,1.74690909 L22.594,0.401454545" id="Fill-59" sketch:type="MSShapeGroup"></path>
                <path d="M20.9954815,0.766545455 C20.5708148,0.858181818 20.1456667,0.945454545 19.7195556,1.02933333 L19.7195556,2.3209697 C20.1456667,2.24484848 20.5708148,2.16484848 20.9954815,2.0809697 L20.9954815,0.766545455" id="Fill-60" sketch:type="MSShapeGroup"></path>
                <path d="M19.3902222,1.09284848 C18.9694074,1.17333333 18.5481111,1.24945455 18.1263333,1.32169697 L18.1263333,2.58860606 C18.5481111,2.52218182 18.9694074,2.45284848 19.3902222,2.37915152 L19.3902222,1.09284848" id="Fill-61" sketch:type="MSShapeGroup"></path>
                <path d="M16.1806667,1.62666667 C15.7521481,1.68678788 15.3231481,1.744 14.8936667,1.79636364 L14.8936667,3.0230303 C15.3231481,2.97454545 15.7521481,2.92266667 16.1806667,2.86690909 L16.1806667,1.62666667" id="Fill-62" sketch:type="MSShapeGroup"></path>
                <path d="M0.266740741,11.3178182 C0.697666667,11.3313939 1.12859259,11.344 1.55951852,11.3551515 L1.55951852,10.2967273 C1.12859259,10.2831515 0.697666667,10.2681212 0.266740741,10.2511515 L0.266740741,11.3178182" id="Fill-63" sketch:type="MSShapeGroup"></path>
                <path d="M14.5614444,1.83612121 C14.131963,1.8870303 13.7015185,1.93309091 13.2710741,1.97575758 L13.2710741,3.18642424 C13.7015185,3.14812121 14.131963,3.10593939 14.5614444,3.05939394 L14.5614444,1.83612121" id="Fill-64" sketch:type="MSShapeGroup"></path>
                <path d="M12.9388519,2.00727273 C12.5084074,2.04751515 12.0774815,2.08339394 11.6465556,2.11587879 L11.6465556,3.31490909 C12.0774815,3.28581818 12.5084074,3.25236364 12.9388519,3.216 L12.9388519,2.00727273" id="Fill-65" sketch:type="MSShapeGroup"></path>
                <path d="M6.42777778,10.374303 C5.99588889,10.3738182 5.564,10.3718788 5.13211111,10.368 L5.13211111,11.4133333 C5.564,11.4162424 5.99588889,11.4186667 6.42777778,11.4186667 L6.42777778,10.374303" id="Fill-66" sketch:type="MSShapeGroup"></path>
                <path d="M3.50374074,11.3949091 C3.93514815,11.4012121 4.36607407,11.4065455 4.79844444,11.4109091 L4.79844444,10.3646061 C4.36607407,10.3597576 3.93514815,10.3529697 3.50374074,10.3452121 L3.50374074,11.3949091" id="Fill-67" sketch:type="MSShapeGroup"></path>
                <path d="M6.76192593,30.0741818 C7.19381481,30.0756364 7.62474074,30.0804848 8.05711111,30.089697 L8.05711111,28.9052121 C7.62474074,28.8969697 7.19381481,28.8921212 6.76192593,28.8906667 L6.76192593,30.0741818" id="Fill-68" sketch:type="MSShapeGroup"></path>
                <path d="M1.89222222,16.7204848 C2.31785185,16.7190303 2.74396296,16.7180606 3.17007407,16.7170909 L3.17007407,15.6596364 C2.74396296,15.6586667 2.31785185,15.657697 1.89222222,15.6567273 L1.89222222,16.7204848" id="Fill-69" sketch:type="MSShapeGroup"></path>
                <path d="M6.42777778,15.6630303 C5.99588889,15.6630303 5.564,15.6625455 5.13211111,15.6625455 L5.13211111,16.7151515 C5.564,16.7141818 5.99588889,16.7141818 6.42777778,16.713697 L6.42777778,15.6630303" id="Fill-70" sketch:type="MSShapeGroup"></path>
                <path d="M14.8936667,30.5803636 C15.3231481,30.6327273 15.7521481,30.6894545 16.1806667,30.7505455 L16.1806667,29.5088485 C15.7521481,29.4540606 15.3231481,29.401697 14.8936667,29.3541818 L14.8936667,30.5803636" id="Fill-71" sketch:type="MSShapeGroup"></path>
                <path d="M16.5119259,30.7980606 C16.9409259,30.8610909 17.368963,30.928 17.7955556,30.9992727 L17.7955556,29.7372121 C17.368963,29.6722424 16.9409259,29.6111515 16.5119259,29.5529697 L16.5119259,30.7980606" id="Fill-72" sketch:type="MSShapeGroup"></path>
                <path d="M25.7703333,21.9020606 C25.7703333,21.7895758 25.7679259,21.6780606 25.7640741,21.5689697 C25.7472222,21.1151515 25.6976296,20.694303 25.6172222,20.3073939 C25.5941111,20.192 25.5681111,20.0790303 25.5392222,19.9704242 C25.4824074,19.7604848 25.4164444,19.561697 25.3398889,19.3750303 C25.2416667,19.1340606 25.128037,18.9095758 25.0028519,18.7006061 C24.933037,18.5837576 24.83,18.4329697 24.83,18.4329697 L24.193963,18.4019394 C24.193963,18.4019394 23.3557037,18.3704242 22.9348889,18.3544242 L22.9348889,17.1301818 L22.9363333,16.9086061 C22.9363333,16.9086061 22.7485556,16.816 22.4172963,16.697697 C22.0662963,16.5721212 21.6989259,16.4751515 21.3233704,16.3932121 C21.2145556,16.3694545 21.1062222,16.3476364 20.9954815,16.3272727 C20.7826667,16.288 20.5674444,16.2526061 20.3474074,16.2249697 L20.3474074,15.609697 L20.3474074,15.3042424 L20.3474074,15.2877576 C20.5510741,15.2218182 20.7677407,15.1471515 20.9954815,15.0652121 C21.1018889,15.0269091 21.2111852,14.9852121 21.3233704,14.9435152 C21.4837037,14.8824242 21.6483704,14.8189091 21.8202593,14.7500606 C22.087,14.6429091 22.3441111,14.5124848 22.594,14.3602424 C22.7052222,14.2918788 22.8135556,14.2181818 22.9209259,14.1415758 L22.9209259,14.0770909 C22.9522222,14.0756364 22.983037,14.0751515 23.0143333,14.073697 C23.1250741,13.9917576 23.2338889,13.9059394 23.3402963,13.8138182 C23.3672593,13.7900606 23.3937407,13.7648485 23.4197407,13.7410909 C23.7028519,13.4826667 23.958037,13.1801212 24.1867407,12.8324848 C24.3085556,12.6453333 24.4241111,12.4470303 24.530037,12.233697 C24.5459259,12.2041212 24.5574815,12.1726061 24.5724074,12.1425455 C24.7452593,11.7716364 24.8685185,11.3517576 24.9407407,10.8843636 C24.9571111,10.7762424 24.9710741,10.665697 24.9826296,10.5522424 C25.0042963,10.3229091 25.0168148,10.0848485 25.0168148,9.83563636 C25.0168148,9.65769697 25.0105556,9.48509091 24.999963,9.31636364 C24.9912963,9.20630303 24.9826296,9.09769697 24.9701111,8.99151515 C24.921963,8.56193939 24.8328889,8.16339394 24.7062593,7.79539394 C24.7014444,7.78133333 24.6975926,7.76775758 24.6922963,7.75369697 C24.660037,7.66206061 24.6224815,7.57333333 24.583963,7.48654545 C24.5594074,7.48993939 24.5348519,7.49381818 24.5112593,7.49721212 L24.5112593,7.33672727 C24.4188148,7.15878788 24.31,6.99345455 24.1867407,6.83878788 C24.0586667,6.67830303 23.9142222,6.53042424 23.7514815,6.39515152 C23.699963,6.35248485 23.647963,6.31030303 23.5930741,6.26957576 C23.5271111,6.22254545 23.4597037,6.17648485 23.3894074,6.13284848 C23.244,6.04315152 23.0875185,5.96266667 22.9209259,5.89042424 C22.8164444,5.84630303 22.7071481,5.80509091 22.594,5.76727273 C22.2781481,5.66060606 21.9314815,5.57915152 21.5472593,5.52387879 C21.4755185,5.51321212 21.3999259,5.50545455 21.3233704,5.49915152 C21.2184074,5.48993939 21.1081481,5.48606061 20.9954815,5.48412121 C20.8982222,5.48169697 20.7975926,5.48169697 20.6955185,5.48315152 C20.5934444,5.48509091 20.488,5.48848485 20.3815926,5.49333333 C20.1678148,5.50254545 19.9468148,5.51660606 19.7195556,5.53260606 C19.6107407,5.54036364 19.5014444,5.54763636 19.3902222,5.55587879 L19.3902222,5.25672727 C18.9737407,5.31490909 18.5543704,5.36969697 18.135963,5.42157576 L18.135963,4.30351515 C18.5543704,4.24630303 18.9737407,4.18521212 19.3902222,4.12218182 L19.3902222,4.11830303 L19.3902222,3.81624242 L19.3902222,2.68169697 C18.9694074,2.7529697 18.5481111,2.82133333 18.1263333,2.88581818 C18.0160741,2.90327273 17.9062963,2.91927273 17.7955556,2.93575758 C17.368963,2.99927273 16.9409259,3.05939394 16.5119259,3.11563636 C16.4016667,3.13018182 16.2909259,3.14472727 16.1806667,3.15878788 C15.7521481,3.21309091 15.3231481,3.26351515 14.8936667,3.31054545 L14.8936667,4.39321212 L14.8936667,4.68121212 L14.8936667,5.76339394 L14.8936667,6.05139394 C14.7829259,6.06109091 14.6726667,6.06981818 14.5614444,6.07951515 C14.131963,6.11490909 12.4554444,6.18375758 12.0471481,6.18424242 L12.0471481,5.08557576 C12.2238519,5.08218182 12.8565185,5.07587879 13.2710741,5.02012121 L13.2710741,4.82424242 L13.2710741,4.53963636 L13.2710741,3.4710303 C13.1603333,3.48072727 13.0500741,3.48993939 12.9388519,3.49915152 C12.5084074,3.53551515 12.0774815,3.56751515 11.6465556,3.59612121 C11.5353333,3.60387879 11.4241111,3.61066667 11.3128889,3.61745455 C10.881963,3.64460606 10.4505556,3.66739394 10.0186667,3.68678788 C9.90792593,3.69163636 9.79718519,3.69648485 9.68548148,3.70133333 C9.25503704,3.71878788 8.82218519,3.73236364 8.39077778,3.74254545 L8.39077778,4.78884848 L8.39077778,5.06666667 L8.39077778,6.11345455 L8.39077778,6.39127273 C8.27907407,6.39321212 8.16785185,6.39515152 8.05711111,6.39660606 C7.98874074,6.39757576 7.92037037,6.3990303 7.85151852,6.4 C7.48751852,6.40436364 7.12544444,6.40727273 6.76192593,6.40775758 C6.6507037,6.40824242 6.539,6.40824242 6.42777778,6.40775758 C5.99588889,6.40727273 5.564,6.40339394 5.13211111,6.39660606 L5.13211111,7.44242424 L5.13211111,7.71684848 C5.56207407,7.73090909 5.99251852,7.74206061 6.42248148,7.74981818 L6.42248148,8.79612121 C5.99251852,8.78884848 5.56207407,8.77866667 5.13211111,8.76654545 L5.13211111,9.04387879 L5.13211111,10.089697 C5.564,10.0935758 5.99588889,10.096 6.42777778,10.0964848 L6.76192593,10.0964848 L6.76192593,10.374303 L6.76192593,11.4186667 L6.76192593,11.696 L6.76192593,12.7408485 L6.76192593,13.0186667 L6.76192593,14.0630303 L6.76192593,14.3389091 C7.18177778,14.3398788 7.60403704,14.3408485 8.02437037,14.3408485 L8.02437037,15.385697 C7.60403704,15.385697 7.18177778,15.3852121 6.76192593,15.3842424 L6.76192593,15.385697 L6.76192593,15.6630303 L6.76192593,16.713697 L6.76192593,16.992 C6.76192593,16.992 6.76192593,16.992 6.76192593,16.9929697 C7.18177778,16.992 7.60403704,16.992 8.02437037,16.992 L8.02437037,18.0358788 C7.60403704,18.0363636 7.18177778,18.0373333 6.76192593,18.038303 L6.76192593,18.313697 L6.76192593,19.3580606 L6.76192593,19.6363636 L6.76192593,20.6812121 L6.76192593,20.9580606 L6.76192593,22.0029091 L6.76192593,22.2802424 C6.6507037,22.2797576 6.539,22.2797576 6.42777778,22.2802424 C5.99588889,22.2807273 5.564,22.2821818 5.13211111,22.2875152 L5.13211111,23.3328485 L5.13211111,23.6106667 L5.13211111,24.6564848 L5.13211111,24.934303 L5.13211111,24.9682424 C5.55244444,24.9561212 5.97422222,24.9464242 6.39551852,24.9396364 L6.39551852,25.9694545 L6.42777778,25.9694545 C6.539,25.9684848 6.6507037,25.9684848 6.76192593,25.9694545 C7.12544444,25.9699394 7.48751852,25.9723636 7.85151852,25.9772121 C7.92037037,25.9781818 7.98874074,25.9791515 8.05711111,25.9801212 C8.16785185,25.9815758 8.27907407,25.9835152 8.39077778,25.9854545 L8.39077778,26.2637576 L8.39077778,27.3100606 L8.39077778,27.5883636 L8.39077778,28.6341818 C8.82314815,28.6443636 9.25503704,28.6584242 9.68548148,28.6758788 C9.79718519,28.6802424 9.90792593,28.6850909 10.0186667,28.6899394 C10.4505556,28.7088485 10.881963,28.7321212 11.3128889,28.7587879 C11.4241111,28.7660606 11.5353333,28.7728485 11.6465556,28.7806061 C11.6557037,28.7815758 11.6653333,28.7820606 11.6744815,28.7825455 L11.6744815,27.753697 C12.0962593,27.7876364 12.5175556,27.8254545 12.9388519,27.865697 L12.9388519,27.8113939 L12.9388519,27.5272727 L12.9388519,26.4606061 L12.9388519,26.1769697 C13.0500741,26.1842424 13.1603333,26.1915152 13.2710741,26.1992727 C13.7015185,26.2293333 14.131963,26.2618182 14.5614444,26.2972121 C14.6726667,26.3064242 14.7829259,26.3156364 14.8936667,26.3253333 L14.8936667,26.6128485 L14.8936667,27.696 L14.8936667,27.984 L14.8936667,29.0661818 C15.3231481,29.1132121 15.7521481,29.1636364 16.1806667,29.2184242 C16.2909259,29.2324848 16.4016667,29.2465455 16.5119259,29.2610909 C16.9409259,29.3173333 17.368963,29.3769697 17.7955556,29.4409697 C17.9062963,29.4579394 18.0160741,29.4739394 18.1263333,29.4909091 C18.5481111,29.5558788 18.9694074,29.6242424 19.3902222,29.6955152 L19.3902222,28.5604848 L19.3902222,28.2584242 L19.3902222,27.1229091 L19.3902222,26.8208485 C19.5014444,26.8290909 19.6107407,26.8373333 19.7195556,26.8455758 C20.1687778,26.8775758 20.5977778,26.9076364 20.9954815,26.9110303 C21.1076667,26.9115152 21.2164815,26.9090909 21.3233704,26.9052121 C21.476,26.8993939 21.6242963,26.8882424 21.7648889,26.8698182 C22.0585926,26.8290909 22.3335185,26.774303 22.594,26.7059394 C22.7061852,26.6768485 22.815,26.6453333 22.9209259,26.6113939 C23.192963,26.5221818 23.4447778,26.416 23.6763704,26.2904242 C23.8174444,26.214303 23.9537037,26.1323636 24.0793704,26.0421818 C24.0827407,26.0397576 24.0856296,26.0378182 24.089,26.0349091 C24.1231852,26.0111515 24.1544815,25.9854545 24.1867407,25.9612121 C24.3008519,25.8734545 24.4101481,25.7818182 24.5112593,25.6833939 C24.7327407,25.4690909 24.9214815,25.2286061 25.0794074,24.9638788 C25.1386296,24.8654545 25.194963,24.7641212 25.245037,24.6589091 C25.2917407,24.5609697 25.336037,24.4601212 25.3764815,24.3563636 C25.4814444,24.0780606 25.5647407,23.7813333 25.6278148,23.4671515 C25.6494815,23.3619394 25.6677778,23.2533333 25.6846296,23.1427879 C25.74,22.7675152 25.7703333,22.3709091 25.7708148,21.9515152 L25.7708148,21.9340606 C25.7708148,21.9229091 25.7703333,21.9127273 25.7703333,21.9020606 L25.7703333,21.9020606 Z M22.9348889,7.82254545 C23.3557037,7.76387879 23.7745926,7.70278788 24.193963,7.63975758 L24.193963,8.89115152 C23.7745926,8.94448485 23.3557037,8.99684848 22.9348889,9.04678788 L22.9348889,7.82254545 L22.9348889,7.82254545 Z M22.9348889,10.9226667 C23.3557037,10.8858182 23.7745926,10.8470303 24.193963,10.8072727 L24.193963,12.0591515 C23.7745926,12.0892121 23.3557037,12.118303 22.9348889,12.1464242 L22.9348889,10.9226667 L22.9348889,10.9226667 Z M10.0268519,7.6169697 C10.4577778,7.59757576 10.8887037,7.57527273 11.3181852,7.5510303 L11.3181852,8.61769697 C10.8887037,8.6390303 10.4577778,8.65842424 10.0268519,8.67490909 L10.0268519,7.6169697 L10.0268519,7.6169697 Z M10.8333333,11.696 L10.8333333,12.7408485 C10.400963,12.7403636 9.96955556,12.7393939 9.53718519,12.7369697 L9.53718519,11.6916364 C9.96955556,11.6945455 10.400963,11.696 10.8333333,11.696 L10.8333333,11.696 Z M8.41533333,7.67757576 C8.84144444,7.66448485 9.26803704,7.6489697 9.69318519,7.63151515 L9.69318519,8.688 C9.26803704,8.70351515 8.84144444,8.71757576 8.41533333,8.72824242 L8.41533333,7.67757576 L8.41533333,7.67757576 Z M7.72007407,11.4133333 L7.72007407,10.368 C8.15148148,10.3718788 8.58385185,10.3738182 9.01525926,10.374303 L9.01525926,11.4186667 C8.58385185,11.4186667 8.15148148,11.4162424 7.72007407,11.4133333 L7.72007407,11.4133333 Z M8.07396296,24.6613333 C7.64255556,24.6681212 7.21114815,24.6778182 6.77974074,24.6899394 L6.77974074,23.6397576 C7.21114815,23.6295758 7.64255556,23.6213333 8.07396296,23.6145455 L8.07396296,24.6613333 L8.07396296,24.6613333 Z M9.37348148,22.0029091 C8.94159259,22.0029091 8.5097037,22.0053333 8.0782963,22.0092121 L8.0782963,20.9638788 C8.5097037,20.9604848 8.94159259,20.9585455 9.37348148,20.9580606 L9.37348148,22.0029091 L9.37348148,22.0029091 Z M9.37348148,20.6812121 C8.94159259,20.6812121 8.5097037,20.6821818 8.0782963,20.6855758 L8.0782963,19.6402424 C8.5097037,19.6378182 8.94159259,19.6363636 9.37348148,19.6363636 L9.37348148,20.6812121 L9.37348148,20.6812121 Z M9.3807037,16.7209697 L9.3807037,15.6557576 C9.81162963,15.654303 10.2425556,15.6533333 10.673,15.6513939 L10.673,16.7253333 C10.2425556,16.7238788 9.81162963,16.7224242 9.3807037,16.7209697 L9.3807037,16.7209697 Z M11.3335926,27.3037576 C10.9012222,27.296 10.4698148,27.2921212 10.0374444,27.2911515 L10.0374444,26.2467879 C10.4698148,26.2472727 10.9012222,26.2516364 11.3335926,26.2579394 L11.3335926,27.3037576 L11.3335926,27.3037576 Z M12.4068148,14.3083636 L12.4068148,14.0252121 L12.4068148,12.9624242 L12.4068148,12.6792727 L12.4068148,11.616 L12.4068148,11.3333333 L12.4068148,10.2705455 L12.4068148,9.98787879 L12.4068148,9.46618182 C12.5844815,9.45890909 12.7616667,9.45163636 12.9388519,9.44339394 C13.0500741,9.43854545 13.1603333,9.43418182 13.2710741,9.42884848 C13.7015185,9.4089697 14.131963,9.38618182 14.5614444,9.36242424 C14.6726667,9.35612121 14.7829259,9.34981818 14.8936667,9.3430303 C15.0154815,9.33624242 15.1387407,9.3289697 15.261037,9.32169697 C15.5951852,9.30084848 15.9004444,9.28824242 16.1806667,9.28339394 C16.2947778,9.2809697 16.4064815,9.27951515 16.5119259,9.28 C16.717037,9.28048485 16.9057778,9.28678788 17.0767037,9.2969697 C17.3501852,9.31442424 17.5875556,9.35418182 17.7955556,9.41187879 C17.9178519,9.44581818 18.0271481,9.48606061 18.1263333,9.53406061 C18.1532963,9.54715152 18.1855556,9.55830303 18.212037,9.57284848 C18.2548889,9.59660606 18.291,9.62424242 18.3304815,9.65090909 C18.4465185,9.72993939 18.5442593,9.82206061 18.6251481,9.92678788 C18.694,10.0179394 18.7541852,10.1144242 18.797037,10.224 C18.8822593,10.4426667 18.9337778,10.7127273 18.9525556,11.0312727 C18.9578519,11.1209697 18.9617037,11.2130909 18.9617037,11.3105455 C18.9617037,11.3173333 18.9607407,11.3241212 18.9612222,11.3309091 C18.9592963,11.7653333 18.8995926,12.1444848 18.7835556,12.4683636 C18.7455185,12.5764848 18.7002593,12.678303 18.6487407,12.7738182 C18.6367037,12.7951515 18.6265926,12.8179394 18.6145556,12.838303 C18.4797407,13.0686061 18.3145926,13.2678788 18.1263333,13.4414545 C18.0242593,13.5355152 17.9144815,13.6213333 17.7955556,13.6989091 C17.7575185,13.7241212 17.7223704,13.7517576 17.6814444,13.7755152 C17.5861111,13.8317576 17.4864444,13.8836364 17.381,13.9321212 C17.0593704,14.0804848 16.6944074,14.1905455 16.289,14.2637576 C16.2552963,14.2695758 16.2187037,14.2753939 16.1806667,14.281697 C16.1050741,14.2933333 16.0212963,14.3044848 15.9322222,14.3156364 C15.6255185,14.3524848 15.2533333,14.3844848 14.8936667,14.409697 C14.7805185,14.4169697 14.6688148,14.4247273 14.5614444,14.4310303 C14.3674074,14.4426667 14.1849259,14.4523636 14.0294074,14.4591515 C13.7766296,14.4678788 13.5238519,14.4756364 13.2710741,14.4838788 C13.1603333,14.4867879 13.0500741,14.4906667 12.9388519,14.4935758 C12.7616667,14.4993939 12.5844815,14.5047273 12.4068148,14.5100606 L12.4068148,14.3083636 L12.4068148,14.3083636 Z M14.6144074,24.825697 C14.1849259,24.8014545 13.754,24.7796364 13.3230741,24.7602424 L13.3230741,23.7018182 C13.754,23.718303 14.1849259,23.7381818 14.6144074,23.7590303 L14.6144074,24.825697 L14.6144074,24.825697 Z M17.8576667,25.0574545 C17.4281852,25.0206061 16.9996667,24.985697 16.5697037,24.9541818 L16.5697037,23.872 C16.9996667,23.9001212 17.4281852,23.9301818 17.8576667,23.961697 L17.8576667,25.0574545 L17.8576667,25.0574545 Z M19.3902222,22.1968485 C19.3242593,22.3059394 19.2496296,22.4053333 19.162,22.4911515 C19.0488519,22.6007273 18.9174074,22.6899394 18.7686296,22.7602424 C18.746963,22.7709091 18.7281852,22.784 18.7055556,22.7932121 C18.5404074,22.8635152 18.3473333,22.9212121 18.1263333,22.9672727 C18.0223333,22.9895758 17.9120741,23.0084848 17.7955556,23.0249697 C17.4301111,23.0768485 17.0015926,23.1030303 16.5119259,23.1059394 C16.4040741,23.1064242 16.2938148,23.1059394 16.1806667,23.1044848 C15.9365556,23.1015758 15.6794444,23.0933333 15.4078889,23.0797576 C15.2364815,23.0690909 15.0655556,23.0589091 14.8936667,23.0492121 C14.7829259,23.0429091 14.6726667,23.0361212 14.5614444,23.0298182 C14.2374074,23.0113939 13.9119259,22.9949091 13.5869259,22.9789091 C13.4814815,22.9735758 13.377,22.9687273 13.2710741,22.9633939 C13.1603333,22.9585455 13.0500741,22.9532121 12.9388519,22.9483636 C12.7616667,22.9406061 12.5844815,22.9333333 12.4068148,22.9260606 L12.4068148,22.3888485 L12.4068148,22.1061818 L12.4068148,21.0433939 L12.4068148,20.7602424 L12.4068148,19.6979394 L12.4068148,19.4152727 L12.4068148,18.352 L12.4068148,18.0693333 L12.4068148,17.9141818 C12.5844815,17.9161212 12.7616667,17.9180606 12.9388519,17.92 C13.0500741,17.9209697 13.1603333,17.9224242 13.2710741,17.9233939 C13.4376667,17.9258182 13.6047407,17.9277576 13.7708519,17.9301818 C14.0115926,17.9326061 14.2817037,17.9389091 14.5614444,17.9481212 C14.6712222,17.9515152 14.7824444,17.9549091 14.8936667,17.9592727 C15.3452963,17.9767273 15.8017407,18.0009697 16.1806667,18.0305455 C16.3000741,18.0402424 16.4103333,18.0499394 16.5119259,18.0606061 C16.5475556,18.064 16.5851111,18.0678788 16.6188148,18.0712727 C16.7955185,18.0911515 16.9630741,18.1158788 17.1234074,18.1449697 C17.55,18.2210909 17.9212222,18.3292121 18.2385185,18.4673939 C18.2664444,18.4790303 18.2948519,18.4901818 18.3213333,18.5027879 C18.6179259,18.6404848 18.8644444,18.8155152 19.0657037,19.0254545 C19.1721111,19.1355152 19.2655185,19.2547879 19.3444815,19.3847273 C19.3613333,19.4113939 19.3757778,19.44 19.3902222,19.4671515 C19.5905185,19.833697 19.6916296,20.310303 19.6906667,20.8935758 C19.6906667,21.4351515 19.5890741,21.8676364 19.3902222,22.1968485 L19.3902222,22.1968485 Z M24.193963,23.1534545 C23.7745926,23.1015758 23.3557037,23.0521212 22.9348889,23.0041212 L22.9348889,21.7798788 C23.3557037,21.8196364 23.7745926,21.8598788 24.193963,21.9025455 L24.193963,23.1534545 L24.193963,23.1534545 Z" id="Fill-73" sketch:type="MSShapeGroup"></path>
            </g>
        </g>
    </g>
</svg>