<?xml version="1.0" encoding="UTF-8" standalone="no"?>
<svg width="32px" height="32px" viewBox="0 0 32 32" version="1.1" xmlns="http://www.w3.org/2000/svg" xmlns:xlink="http://www.w3.org/1999/xlink" xmlns:sketch="http://www.bohemiancoding.com/sketch/ns">
    <!-- Generator: Sketch 3.3.1 (12002) - http://www.bohemiancoding.com/sketch -->
    <title>menu</title>
    <desc>Created with Sketch.</desc>
    <defs></defs>
    <g id="Page-1" stroke="none" stroke-width="1" fill="none" fill-rule="evenodd" sketch:type="MSPage">
        <g id="menu" sketch:type="MSArtboardGroup" fill="#444444">
            <g id="Imported-Layers" sketch:type="MSLayerGroup" transform="translate(1.000000, 3.000000)">
                <path d="M7.29612245,0.100976744 L29.3877551,0.100976744 L29.3877551,5.49144186 L7.29612245,5.49144186 L7.29612245,0.100976744 Z" id="Fill-1" sketch:type="MSShapeGroup"></path>
                <path d="M0,0.100976744 L4.13265306,0.100976744 L4.13265306,5.49144186 L0,5.49144186 L0,0.100976744 Z" id="Fill-2" sketch:type="MSShapeGroup"></path>
                <path d="M7.29612245,20.1215814 L29.3877551,20.1215814 L29.3877551,25.5120465 L7.29612245,25.5120465 L7.29612245,20.1215814 Z" id="Fill-3" sketch:type="MSShapeGroup"></path>
                <path d="M0,20.1215814 L4.13265306,20.1215814 L4.13265306,25.5120465 L0,25.5120465 L0,20.1215814 Z" id="Fill-4" sketch:type="MSShapeGroup"></path>
                <path d="M7.29612245,10.1109767 L29.3877551,10.1109767 L29.3877551,15.5014419 L7.29612245,15.5014419 L7.29612245,10.1109767 Z" id="Fill-5" sketch:type="MSShapeGroup"></path>
                <path d="M0,10.1109767 L4.13265306,10.1109767 L4.13265306,15.5014419 L0,15.5014419 L0,10.1109767 Z" id="Fill-6" sketch:type="MSShapeGroup"></path>
            </g>
        </g>
    </g>
</svg>