<?xml version="1.0" encoding="UTF-8" standalone="no"?>
<svg width="72px" height="138px" viewBox="0 0 72 138" version="1.1" xmlns="http://www.w3.org/2000/svg" xmlns:xlink="http://www.w3.org/1999/xlink">
    <!-- Generator: Sketch 41.2 (35397) - http://www.bohemiancoding.com/sketch -->
    <title>mobile</title>
    <desc>Created with Sketch.</desc>
    <defs>
        <polygon id="path-1" points="0.000163636364 136.936976 71.4215455 136.936976 71.4215455 0.586849187 0.000163636364 0.586849187 0.000163636364 136.936976"></polygon>
    </defs>
    <g id="Download-Apps" stroke="none" stroke-width="1" fill="none" fill-rule="evenodd">
        <g id="Homescreen_Download_Apps" transform="translate(-906.000000, -498.000000)">
            <g id="mobile" transform="translate(906.000000, 498.000000)">
                <g id="Group-3" transform="translate(0.000000, 0.238402)">
                    <mask id="mask-2" fill="white">
                        <use xlink:href="#path-1"></use>
                    </mask>
                    <g id="Clip-2"></g>
                    <path d="M68.8338,118.666944 C68.8338,126.865839 63.2398909,133.573276 56.4031636,133.573276 L15.0187091,133.573276 C8.18198182,133.573276 2.58807273,126.865839 2.58807273,118.666944 L2.58807273,18.8563866 C2.58807273,10.6583163 8.18198182,3.95005432 15.0187091,3.95005432 L56.4031636,3.95005432 C63.2398909,3.95005432 68.8338,10.6583163 68.8338,18.8563866 L68.8338,118.666944 Z M57.4201636,0.586849187 L14.0017091,0.586849187 C6.30016364,0.586849187 0.000163636364,8.14230561 0.000163636364,17.3773023 L0.000163636364,120.146853 C0.000163636364,129.381025 6.30016364,136.937306 14.0017091,136.937306 L57.4201636,136.937306 C65.1208909,136.937306 71.4217091,129.381025 71.4217091,120.146853 L71.4217091,17.3773023 C71.4217091,8.14230561 65.1208909,0.586849187 57.4201636,0.586849187 L57.4201636,0.586849187 Z" id="Fill-1" fill="#10ADE4" mask="url(#mask-2)"></path>
                </g>
                <path d="M3.99174545,21.7380026 C3.99174545,22.1273655 4.26992727,22.4433105 4.61356364,22.4433105 L66.8788364,22.4433105 C67.2224727,22.4433105 67.5006545,22.1273655 67.5006545,21.7380026 C67.5006545,21.3486396 67.2224727,21.0326946 66.8788364,21.0326946 L4.61356364,21.0326946 C4.26992727,21.0326946 3.99174545,21.3486396 3.99174545,21.7380026" id="Fill-4" fill="#10ADE4"></path>
                <path d="M30.7980818,14.425403 L40.6948091,14.425403 C41.0384455,14.425403 41.3166273,14.1094581 41.3166273,13.7200951 C41.3166273,13.3307322 41.0384455,13.0156121 40.6948091,13.0156121 L30.7980818,13.0156121 C30.4544455,13.0156121 30.1762636,13.3307322 30.1762636,13.7200951 C30.1762636,14.1094581 30.4544455,14.425403 30.7980818,14.425403" id="Fill-6" fill="#10ADE4"></path>
                <path d="M66.8789182,119.907379 L4.61364545,119.907379 C4.27000909,119.907379 3.99182727,120.223323 3.99182727,120.612686 C3.99182727,121.002049 4.27000909,121.317169 4.61364545,121.317169 L66.8789182,121.317169 C67.2225545,121.317169 67.5007364,121.002049 67.5007364,120.612686 C67.5007364,120.223323 67.2225545,119.907379 66.8789182,119.907379" id="Fill-8" fill="#10ADE4"></path>
            </g>
        </g>
    </g>
</svg>