<?xml version="1.0" encoding="UTF-8" standalone="no"?>
<svg width="32px" height="32px" viewBox="0 0 32 32" version="1.1" xmlns="http://www.w3.org/2000/svg" xmlns:xlink="http://www.w3.org/1999/xlink" xmlns:sketch="http://www.bohemiancoding.com/sketch/ns">
    <!-- Generator: Sketch 3.3.1 (12002) - http://www.bohemiancoding.com/sketch -->
    <title>money</title>
    <desc>Created with Sketch.</desc>
    <defs></defs>
    <g id="Page-1" stroke="none" stroke-width="1" fill="none" fill-rule="evenodd" sketch:type="MSPage">
        <g id="money" sketch:type="MSArtboardGroup" fill="#444444">
            <path d="M31.3917021,17.1858667 L31.3770213,13.4313333 C31.3782979,13.4036222 31.3885106,13.3772 31.3885106,13.3501333 C31.3885106,12.1907778 30.2082979,11.1454889 28.2391489,10.3470222 C28.4082979,10.048 28.4989362,9.73802222 28.4989362,9.41966667 L28.4842553,5.66448889 C28.4855319,5.63742222 28.4957447,5.61035556 28.4957447,5.58328889 C28.4957447,3.01324444 22.7153191,1 15.3359574,1 C7.95595745,1 2.17553191,3.01324444 2.17553191,5.58328889 C2.17553191,5.71024444 2.19787234,5.82495556 2.22212766,5.93515556 L2,9.48411111 C2,10.6750444 3.22553191,11.7274222 5.26744681,12.5213778 C5.13659574,12.7798 5.06829787,13.0549778 5.06829787,13.3501333 C5.06829787,13.4770889 5.0906383,13.5918 5.11489362,13.7013556 L4.89276596,17.2509556 C4.89276596,17.5970222 5.00255319,17.9302 5.19851064,18.2504889 C3.30404255,19.0431556 2.17553191,20.0684667 2.17553191,21.2033333 C2.17553191,21.3302889 2.19787234,21.4456444 2.22212766,21.5552 L2,25.1048 C2,27.6948222 7.74914894,29.6474889 15.2485106,29.6474889 C22.6553191,29.6474889 28.4989362,27.6258667 28.4989362,25.0397111 L28.4842553,21.2845333 C28.4855319,21.2574667 28.4957447,21.2310444 28.4957447,21.2033333 C28.4957447,20.8611333 28.3910638,20.5292444 28.1957447,20.2102444 C30.1891489,19.4066222 31.3917021,18.3555333 31.3917021,17.1858667 L31.3917021,17.1858667 Z M2.88531915,5.84686667 C2.86361702,5.75342222 2.84319149,5.6632 2.84319149,5.58328889 C2.84319149,3.69506667 7.86276596,1.67408889 15.3359574,1.67408889 C22.8085106,1.67408889 27.8280851,3.69506667 27.8280851,5.58328889 C27.8280851,7.34906667 23.4340426,9.23148889 16.7491489,9.46671111 C16.7331915,9.46735556 16.7178723,9.46864444 16.7019149,9.46928889 C16.4217021,9.47895556 16.1312766,9.48024444 15.8440426,9.48346667 C15.6665957,9.48604444 15.493617,9.49184444 15.3129787,9.49184444 C8.18191489,9.48797778 3.31106383,7.59782222 2.88531915,5.84686667 L2.88531915,5.84686667 Z M27.8280851,21.2033333 C27.8280851,22.9697556 23.4340426,24.8515333 16.7491489,25.0874 C16.7331915,25.0874 16.7178723,25.0886889 16.7019149,25.0893333 C16.4217021,25.099 16.1312766,25.1002889 15.8440426,25.1041556 C15.6665957,25.1060889 15.493617,25.1118889 15.3129787,25.1118889 C8.18191489,25.1080222 3.31106383,23.2185111 2.88531915,21.4675556 C2.86361702,21.3741111 2.84319149,21.2838889 2.84319149,21.2033333 C2.84319149,20.3584667 3.84851064,19.4871778 5.62808511,18.7821556 C7.39553191,20.5717778 12.2153191,21.7936444 18.1412766,21.7936444 C21.8555319,21.7936444 25.1759574,21.2851778 27.5644681,20.4519111 C27.7342553,20.7013111 27.8280851,20.9539333 27.8280851,21.2033333 L27.8280851,21.2033333 Z M19.6419149,17.2335556 C19.6259574,17.2342 19.6106383,17.2354889 19.5946809,17.2361333 C19.3144681,17.2451556 19.0246809,17.2464444 18.7368085,17.2503111 C18.5593617,17.2528889 18.386383,17.2586889 18.2057447,17.2586889 C11.0746809,17.2541778 6.20382979,15.3646667 5.77808511,13.6137111 C5.75638298,13.5202667 5.73595745,13.4300444 5.73595745,13.3501333 C5.73595745,13.1522889 5.79723404,12.9531556 5.90382979,12.7553111 C8.27191489,13.5492667 11.5451064,14.0274444 15.2485106,14.0274444 C21.176383,14.0274444 26.0938298,12.7308222 27.8248936,10.8877111 C29.6714894,11.5998222 30.7208511,12.4885111 30.7208511,13.3501333 C30.7208511,15.1159111 26.3268085,16.9983333 19.6419149,17.2335556 L19.6419149,17.2335556 Z" id="Imported-Layers" sketch:type="MSShapeGroup"></path>
        </g>
    </g>
</svg>