<?xml version="1.0" encoding="UTF-8" standalone="no"?>
<svg width="32px" height="32px" viewBox="0 0 32 32" version="1.1" xmlns="http://www.w3.org/2000/svg" xmlns:xlink="http://www.w3.org/1999/xlink" xmlns:sketch="http://www.bohemiancoding.com/sketch/ns">
    <!-- Generator: Sketch 3.3.1 (12002) - http://www.bohemiancoding.com/sketch -->
    <title>profile</title>
    <desc>Created with Sketch.</desc>
    <defs></defs>
    <g id="Page-1" stroke="none" stroke-width="1" fill="none" fill-rule="evenodd" sketch:type="MSPage">
        <g id="profile" sketch:type="MSArtboardGroup" stroke="#444444">
            <g id="Imported-Layers" sketch:type="MSLayerGroup" transform="translate(1.000000, 1.000000)">
                <path d="M15.1271642,0.374558824 C6.91746269,0.374558824 0.26238806,6.93220588 0.26238806,15.0207353 C0.26238806,18.6763235 1.63074627,22.0116176 3.87850746,24.5775 C5.0838806,23.9033824 6.85208955,23.3223529 8.62253731,22.5952941 C11.2240299,21.5267647 11.8414925,21.1561765 11.8414925,21.1561765 L11.8661194,18.6970588 C11.8661194,18.6970588 10.8904478,17.9589706 10.5886567,15.6445588 C10.5438806,15.6573529 10.4986567,15.6635294 10.4534328,15.6635294 C9.88701493,15.6635294 9.33671642,14.7070588 9.30402985,14.1842647 C9.27223881,13.6672059 9.37746269,12.2752941 10.0298507,12.2752941 C10.0625373,12.2752941 10.0961194,12.2788235 10.1314925,12.2863235 C9.98014925,11.1516176 9.87,10.1311765 9.92373134,9.59161765 C10.1167164,7.61558824 12.091791,5.53191176 15.1276119,5.53191176 C18.1634328,5.53191176 20.1376119,7.61558824 20.3314925,9.59161765 C20.3847761,10.1311765 20.2741791,11.1516176 20.1228358,12.2863235 C20.158209,12.2788235 20.1922388,12.2752941 20.2244776,12.2752941 C20.8773134,12.2752941 20.9825373,13.6672059 20.9507463,14.1842647 C20.9189552,14.7070588 20.3668657,15.6635294 19.801791,15.6635294 C19.7565672,15.6635294 19.7113433,15.6573529 19.6665672,15.6445588 C19.3638806,17.9589706 18.3891045,18.6970588 18.3891045,18.6970588 L18.4128358,21.1561765 C18.4128358,21.1561765 19.0302985,21.5267647 21.631791,22.5952941 C23.4022388,23.3223529 25.1704478,23.9033824 26.3758209,24.5775 C28.6235821,22.0116176 29.9919403,18.6767647 29.9919403,15.0207353 C29.9919403,6.93220588 23.3368657,0.374558824 15.1271642,0.374558824" id="Fill-1" stroke-width="1.81" sketch:type="MSShapeGroup"></path>
                <path d="M15.0642537,29.5319318 C19.538196,29.5319318 23.5397207,27.5651989 26.25,24.4709836 C25.0513682,23.8006361 23.2930483,23.2228562 21.5325021,22.4998636 C18.945559,21.4373102 18.3315496,21.0687945 18.3315496,21.0687945 L18.307951,18.62343 C18.307951,18.62343 19.2772754,17.8894697 19.5782692,15.5880017 C20.1842639,15.7608531 20.8209814,14.6969836 20.854821,14.1363133 C20.8882152,13.5962624 20.7711127,12.0976321 20.031986,12.2481094 C20.1824829,11.1201883 20.2924614,10.1054541 20.2394758,9.5689129 C20.0466795,7.60393484 18.0835414,5.53191176 15.064699,5.53191176 C12.0458566,5.53191176 10.0818279,7.60393484 9.88992217,9.5689129 C9.83649133,10.1054541 9.94602456,11.1201883 10.0965214,12.2481094 C9.35739481,12.0976321 9.24029222,13.5962624 9.27368649,14.1363133 C9.30841654,14.6969836 9.94379827,15.7608531 10.5511288,15.5880017 C10.851232,17.8894697 11.821447,18.62343 11.821447,18.62343 L11.7969579,21.0687945 C11.7969579,21.0687945 11.1829485,21.4373102 8.59600534,22.4998636 C6.83545918,23.2228562 5.0771393,23.8006361 3.87850746,24.4709836 C6.58923206,27.5651989 10.5903114,29.5319318 15.0642537,29.5319318" id="Fill-2" stroke-width="2" fill="#444444" sketch:type="MSShapeGroup"></path>
            </g>
        </g>
    </g>
</svg>