<?xml version="1.0" encoding="UTF-8" standalone="no"?>
<svg width="32px" height="32px" viewBox="0 0 32 32" version="1.1" xmlns="http://www.w3.org/2000/svg" xmlns:xlink="http://www.w3.org/1999/xlink" xmlns:sketch="http://www.bohemiancoding.com/sketch/ns">
    <!-- Generator: Sketch 3.3.1 (12002) - http://www.bohemiancoding.com/sketch -->
    <title>qr-code</title>
    <desc>Created with Sketch.</desc>
    <defs></defs>
    <g id="Page-1" stroke="none" stroke-width="1" fill="none" fill-rule="evenodd" sketch:type="MSPage">
        <g id="qr-code" sketch:type="MSArtboardGroup" fill="#444444">
            <path d="M8.129,16.683 L9.556,16.683 L9.556,18.109 L10.982,18.109 L10.982,19.535 L3.853,19.535 L3.853,18.109 L5.279,18.109 L5.279,15.257 L8.132,15.257 L8.132,16.683 L8.129,16.683 L8.129,16.683 Z M26.664,29.513 L28.088,29.513 L28.088,28.087 L26.664,28.087 L26.664,29.513 Z M9.555,16.683 L10.981,16.683 L10.981,15.257 L9.555,15.257 L9.555,16.683 Z M29.512,29.513 L30.938,29.513 L30.938,28.087 L29.512,28.087 L29.512,29.513 Z M12.408,30.939 L15.258,30.939 L15.258,29.513 L12.408,29.513 L12.408,30.939 Z M23.811,30.939 L25.237,30.939 L25.237,29.513 L23.811,29.513 L23.811,30.939 Z M19.535,30.939 L20.961,30.939 L20.961,28.087 L19.535,28.087 L19.535,30.939 Z M8.129,13.832 L12.406,13.832 L12.406,12.406 L8.129,12.406 L8.129,13.832 Z M6.705,13.831 L6.705,12.405 L3.852,12.405 L3.852,15.257 L5.278,15.257 L5.278,13.831 L6.705,13.831 L6.705,13.831 Z M1.002,1.001 L10.981,1.001 L10.981,10.98 L1.002,10.98 L1.002,1.001 Z M2.426,9.554 L9.555,9.554 L9.555,2.427 L2.426,2.427 L2.426,9.554 Z M3.852,28.087 L8.128,28.087 L8.128,23.81 L3.852,23.81 L3.852,28.087 Z M18.108,28.087 L19.536,28.087 L19.536,26.661 L18.108,26.661 L18.108,28.087 Z M3.853,8.128 L8.129,8.128 L8.129,3.853 L3.853,3.853 L3.853,8.128 Z M20.959,1.001 L30.938,1.001 L30.938,10.98 L20.959,10.98 L20.959,1.001 Z M22.385,9.554 L29.512,9.554 L29.512,2.427 L22.385,2.427 L22.385,9.554 Z M1,20.958 L10.98,20.958 L10.98,30.937 L1,30.937 L1,20.958 Z M2.427,29.513 L9.556,29.513 L9.556,22.384 L2.427,22.384 L2.427,29.513 Z M1,19.535 L2.427,19.535 L2.427,12.406 L1,12.406 L1,19.535 Z M20.959,20.958 L22.385,20.958 L22.385,19.534 L20.959,19.534 L20.959,20.958 Z M16.682,25.236 L16.682,23.81 L15.256,23.81 L15.256,25.236 L12.406,25.236 L12.406,28.089 L15.256,28.089 L15.256,29.515 L16.682,29.515 L16.682,26.662 L18.108,26.662 L18.108,25.236 L16.682,25.236 L16.682,25.236 Z M12.408,6.704 L15.258,6.704 L15.258,5.276 L12.408,5.276 L12.408,6.704 Z M23.811,18.109 L26.665,18.109 L26.665,19.535 L28.089,19.535 L28.089,15.259 L26.665,15.259 L26.665,12.406 L25.237,12.406 L25.237,16.683 L20.962,16.683 L20.962,18.109 L22.388,18.109 L22.388,19.535 L23.814,19.535 L23.814,18.109 L23.811,18.109 L23.811,18.109 Z M25.237,22.384 L23.811,22.384 L23.811,20.958 L22.385,20.958 L22.385,23.81 L18.108,23.81 L18.108,25.236 L20.962,25.236 L20.962,28.089 L22.388,28.089 L22.388,29.515 L23.814,29.515 L23.814,26.662 L29.515,26.662 L29.515,25.236 L25.239,25.236 L25.239,22.384 L25.237,22.384 L25.237,22.384 Z M25.237,22.384 L26.665,22.384 L26.665,19.534 L25.237,19.534 L25.237,22.384 Z M13.832,22.384 L13.832,20.958 L15.256,20.958 L15.256,19.534 L16.682,19.534 L16.682,18.107 L18.108,18.107 L18.108,15.255 L22.385,15.255 L22.385,12.402 L20.959,12.402 L20.959,13.828 L19.533,13.828 L19.533,8.125 L18.107,8.125 L18.107,5.273 L19.533,5.273 L19.533,1 L18.107,1 L18.107,3.852 L16.681,3.852 L16.681,1 L12.405,1 L12.405,3.852 L13.831,3.852 L13.831,2.426 L15.255,2.426 L15.255,5.276 L16.681,5.276 L16.681,9.553 L18.107,9.553 L18.107,10.979 L16.681,10.979 L16.681,13.831 L15.255,13.831 L15.255,10.98 L13.831,10.98 L13.831,9.554 L12.405,9.554 L12.405,12.406 L13.831,12.406 L13.831,13.832 L12.405,13.832 L12.405,18.109 L13.831,18.109 L13.831,15.257 L15.255,15.257 L15.255,18.109 L13.831,18.109 L13.831,19.535 L12.405,19.535 L12.405,23.81 L15.255,23.81 L15.255,22.384 L13.832,22.384 L13.832,22.384 Z M26.662,23.81 L29.512,23.81 L29.512,22.384 L26.662,22.384 L26.662,23.81 Z M23.811,8.128 L28.086,8.128 L28.086,3.853 L23.811,3.853 L23.811,8.128 Z M16.682,22.384 L19.536,22.384 L19.536,20.958 L18.108,20.958 L18.108,19.534 L16.682,19.534 L16.682,22.384 L16.682,22.384 Z M18.107,19.534 L19.535,19.534 L19.535,18.108 L18.107,18.108 L18.107,19.534 Z M28.086,13.831 L30.938,13.831 L30.938,12.405 L28.086,12.405 L28.086,13.831 Z M29.512,25.236 L30.938,25.236 L30.938,23.81 L29.512,23.81 L29.512,25.236 Z M29.512,16.683 L30.938,16.683 L30.938,15.257 L29.512,15.257 L29.512,16.683 Z M15.256,10.98 L16.682,10.98 L16.682,9.554 L15.256,9.554 L15.256,10.98 Z" id="Imported-Layers" sketch:type="MSShapeGroup"></path>
        </g>
    </g>
</svg>