<?xml version="1.0" encoding="UTF-8" standalone="no"?>
<svg width="32px" height="32px" viewBox="0 0 32 32" version="1.1" xmlns="http://www.w3.org/2000/svg" xmlns:xlink="http://www.w3.org/1999/xlink" xmlns:sketch="http://www.bohemiancoding.com/sketch/ns">
    <!-- Generator: Sketch 3.3.1 (12002) - http://www.bohemiancoding.com/sketch -->
    <title>receive</title>
    <desc>Created with Sketch.</desc>
    <defs></defs>
    <g id="Page-1" stroke="none" stroke-width="1" fill="none" fill-rule="evenodd" sketch:type="MSPage">
        <g id="receive" sketch:type="MSArtboardGroup" fill="#444444">
            <g id="Imported-Layers" sketch:type="MSLayerGroup" transform="translate(0.000000, 2.000000)">
                <path d="M15.872,25.8526667 C9.90222222,25.8526667 4.23111111,23.3139111 0.311703704,18.8869778 C-0.00888888889,18.5247111 0.0325925926,17.9775556 0.404148148,17.6644 C0.777481481,17.3518222 1.33748148,17.3922667 1.65807407,17.7545333 C5.23851852,21.7995556 10.4195556,24.1193333 15.872,24.1193333 C21.3244444,24.1193333 26.5060741,21.7995556 30.0865185,17.7545333 C30.4077037,17.3922667 30.9682963,17.3518222 31.3404444,17.6644 C31.712,17.9775556 31.7528889,18.5247111 31.4322963,18.8869778 C27.5134815,23.3139111 21.8417778,25.8526667 15.872,25.8526667" id="Fill-1" sketch:type="MSShapeGroup"></path>
                <path d="M22.7342222,12.6308 C22.6311111,12.3875556 22.3265185,12.1333333 21.4340741,12.1333333 L18.962963,12.1333333 L18.962963,3.05066667 C18.962963,1.48315556 17.6077037,0.208 16,0.208 C14.3922963,0.208 13.037037,1.48315556 13.037037,3.05066667 L13.037037,12.1333333 L10.2411852,12.1333333 C9.3517037,12.1333333 9.04533333,12.3875556 8.94222222,12.6308 C8.83851852,12.8740444 8.75911111,13.2958222 9.38844444,13.9094222 L14.3324444,18.6899556 C14.7354074,19.0822667 15.2687407,19.2787111 15.8364444,19.2787111 C16.4047407,19.2787111 16.9386667,19.0533778 17.3416296,18.6610667 L22.2874074,13.9146222 C22.9167407,13.3010222 22.8379259,12.8734667 22.7342222,12.6308" id="Fill-2" sketch:type="MSShapeGroup"></path>
            </g>
        </g>
    </g>
</svg>