<?xml version="1.0" encoding="UTF-8" standalone="no"?>
<svg width="32px" height="32px" viewBox="0 0 32 32" version="1.1" xmlns="http://www.w3.org/2000/svg" xmlns:xlink="http://www.w3.org/1999/xlink" xmlns:sketch="http://www.bohemiancoding.com/sketch/ns">
    <!-- Generator: Sketch 3.3.1 (12002) - http://www.bohemiancoding.com/sketch -->
    <title>security</title>
    <desc>Created with Sketch.</desc>
    <defs></defs>
    <g id="Page-1" stroke="none" stroke-width="1" fill="none" fill-rule="evenodd" sketch:type="MSPage">
        <g id="security" sketch:type="MSArtboardGroup" fill="#444444">
            <g id="Imported-Layers" sketch:type="MSLayerGroup">
                <path d="M16.110806,31.654209 C7.4120597,31.654209 0.33480597,24.5769552 0.33480597,15.878209 C0.33480597,7.17946269 7.4120597,0.102208955 16.110806,0.102208955 C24.8100299,0.102208955 31.886806,7.17946269 31.886806,15.878209 C31.886806,24.5769552 24.8100299,31.654209 16.110806,31.654209 L16.110806,31.654209 Z M16.110806,2.52704478 C8.74889552,2.52704478 2.75964179,8.51629851 2.75964179,15.878209 C2.75964179,23.2401194 8.74889552,29.2293731 16.110806,29.2293731 C23.4727164,29.2293731 29.4619701,23.2401194 29.4619701,15.878209 C29.4619701,8.51629851 23.4727164,2.52704478 16.110806,2.52704478 L16.110806,2.52704478 Z" id="Fill-1" sketch:type="MSShapeGroup"></path>
                <path d="M20.8740299,13.8507463 L20.5373134,13.8507463 L20.5373134,11.8944478 C20.5373134,9.67164179 18.7004179,7.86292537 16.4776119,7.86292537 C14.254806,7.86292537 12.4179104,9.67164179 12.4179104,11.8944478 L12.4179104,13.8507463 L12.1910448,13.8507463 C11.5061493,13.8507463 10.9850746,14.6206567 10.9850746,15.3055522 L10.9850746,21.5078209 C10.9850746,22.1927164 11.5061493,22.9253731 12.1910448,22.9253731 L20.8740299,22.9253731 C21.559403,22.9253731 21.9701493,22.1927164 21.9701493,21.5078209 L21.9701493,15.3055522 C21.9701493,14.6206567 21.559403,13.8507463 20.8740299,13.8507463 L20.8740299,13.8507463 Z M14.3283582,13.8507463 L14.3283582,11.8944478 C14.3283582,10.6975522 15.2807164,9.72370149 16.4776119,9.72370149 C17.6745075,9.72370149 18.6268657,10.6975522 18.6268657,11.8944478 L18.6268657,13.8507463 L14.3283582,13.8507463 L14.3283582,13.8507463 Z" id="Fill-2" sketch:type="MSShapeGroup"></path>
            </g>
        </g>
    </g>
</svg>