<?xml version="1.0" encoding="UTF-8" standalone="no"?>
<svg width="32px" height="32px" viewBox="0 0 32 32" version="1.1" xmlns="http://www.w3.org/2000/svg" xmlns:xlink="http://www.w3.org/1999/xlink" xmlns:sketch="http://www.bohemiancoding.com/sketch/ns">
    <!-- Generator: Sketch 3.3.1 (12002) - http://www.bohemiancoding.com/sketch -->
    <title>send</title>
    <desc>Created with Sketch.</desc>
    <defs></defs>
    <g id="Page-1" stroke="none" stroke-width="1" fill="none" fill-rule="evenodd" sketch:type="MSPage">
        <g id="send" sketch:type="MSArtboardGroup" fill="#444444">
            <g id="Imported-Layers" sketch:type="MSLayerGroup" transform="translate(1.000000, 2.000000)">
                <path d="M15.376,25.8526667 C9.59277778,25.8526667 4.09888889,23.3139111 0.301962963,18.8869778 C-0.00861111111,18.5247111 0.0315740741,17.9775556 0.391518519,17.6644 C0.753185185,17.3518222 1.29568519,17.3922667 1.60625926,17.7545333 C5.07481481,21.7995556 10.0939444,24.1193333 15.376,24.1193333 C20.6580556,24.1193333 25.6777593,21.7995556 29.1463148,17.7545333 C29.457463,17.3922667 30.000537,17.3518222 30.3610556,17.6644 C30.721,17.9775556 30.7606111,18.5247111 30.450037,18.8869778 C26.6536852,23.3139111 21.1592222,25.8526667 15.376,25.8526667" id="Fill-1" sketch:type="MSShapeGroup"></path>
                <path d="M21.4365,6.01524444 L15.8697037,0.574311111 C15.4230741,0.139244444 14.7158148,0.139244444 14.2697593,0.574311111 L8.61111111,6.10422222 C8.27585185,6.43182222 8.17137037,6.9316 8.34703704,7.36782222 C8.52327778,7.80346667 8.9435,8.08888889 9.41137037,8.08888889 L12.0555556,8.08888889 L12.0555556,16.0864889 C12.0555556,17.8920444 13.4189815,19.3613333 15.212963,19.3613333 C17.0069444,19.3613333 18.3703704,17.8920444 18.3703704,16.0864889 L18.3703704,8.08888889 L20.7280926,8.08888889 C20.7321111,8.08946667 20.7361296,8.08888889 20.739,8.08888889 C21.3739259,8.08888889 21.8871481,7.5712 21.8871481,6.93333333 C21.8871481,6.55893333 21.7103333,6.22613333 21.4365,6.01524444" id="Fill-2" sketch:type="MSShapeGroup"></path>
            </g>
        </g>
    </g>
</svg>