<svg id="Layer_1" xmlns="http://www.w3.org/2000/svg" viewBox="0 0 311.7 67.7"><style>.st0{fill:#fff}.st1{enable-background:new}</style><path class="st0" d="M93.5 23.4c2.1-.9 3.7-2.6 3.7-5.3V18c0-1.6-.6-2.9-1.5-3.9-1.4-1.4-3.5-2.2-6.5-2.2H76.9v23.9h12.3c5.7 0 9-2.5 9-6.6v-.1c0-3.1-1.8-4.8-4.7-5.7zm-10.2-6.1h4.3c2 0 3 .7 3 2v.1c0 1.4-1.1 2.1-3.1 2.1h-4.2v-4.2zm8.3 11.1c0 1.4-1.2 2.2-3.2 2.2h-5.1v-4.4h5c2.3-.1 3.3.8 3.3 2.2zM107.8 12h-6.6v23.8h18.1v-5.7h-11.5zM132.9 11.5c-7.4 0-12.9 5.6-12.9 12.4v.1c0 6.9 5.5 12.3 12.8 12.3 7.3 0 12.9-5.6 12.9-12.4v-.1c0-6.8-5.4-12.3-12.8-12.3zM139 24c0 3.4-2.4 6.4-6.1 6.4-3.6 0-6.1-3-6.1-6.4v-.1c0-3.4 2.4-6.4 6-6.4s6.1 3 6.2 6.5zM160.9 30.3c-3.3 0-5.7-2.8-5.7-6.4v-.1c0-3.5 2.4-6.3 5.7-6.3 2.3 0 3.8 1.1 5.2 2.8l5-3.8c-2.1-2.9-5.3-5-10.1-5-7.2 0-12.6 5.5-12.6 12.4v.1c0 7.1 5.5 12.3 12.3 12.3 5.3 0 8.3-2.3 10.6-5.4l-5-3.5c-1.5 1.7-2.9 2.9-5.4 2.9M208.8 30.3c-3.3 0-5.7-2.8-5.7-6.4v-.1c0-3.5 2.4-6.3 5.7-6.3 2.3 0 3.8 1.1 5.2 2.8l5-3.8c-2.1-2.9-5.3-5-10.1-5-7.2 0-12.6 5.5-12.6 12.4v.1c0 1.1.2 2.1.4 3 1.3 5.5 6.1 9.3 11.9 9.3 5.3 0 8.3-2.3 10.6-5.4l-5-3.5c-1.4 1.7-2.9 2.9-5.4 2.9M237.2 20.9h-8.5V12h-6.6v23.8h6.6v-9h8.5v9h6.6V12h-6.6zM262.7 11.8h-6.4l-10.2 24h7l1.7-4.3h9.2l1.7 4.3h7.1l-10.1-24zm-6 14.6l2.7-6.8 2.7 6.8h-5.4zM275.3 12h6.6v23.9h-6.6zM302.3 12v12.6L292.5 12h-6.2v23.8h6.6V22.7l10.2 13.1h5.8V12z"/><path class="st0" d="M196.8 12h-7.9l-8.2 9.6V12h-6.6v23.8h6.6v-6.1l2.4-2.7 6 8.8h6.7l-9-12.8z"/><g class="st1"><path class="st0" d="M279.1 46.6c0-.6.5-1 1-1 .6 0 1 .5 1 1s-.5 1-1 1-1-.5-1-1zm.3 2.5h1.5v9.6h-1.5v-9.6zM290.3 52.5c0-1.7-.9-2.2-2.2-2.2-1.2 0-2.3.7-2.8 1.5v7h-1.5v-9.6h1.5v1.4c.7-.8 2-1.6 3.4-1.6 2 0 3.1 1 3.1 3.1v6.8h-1.5v-6.4zM295.2 50.4h-1.6v-1.3h1.6v-.7c0-2 1.1-3.1 2.8-3.1.6 0 1.1.1 1.5.3l-.4 1.1c-.2-.1-.5-.2-.9-.2-1 0-1.5.7-1.5 1.9v.7h2v1.3h-2v8.3h-1.5v-8.3zM299.9 53.9c0-2.8 1.8-5 4.8-5 2.9 0 4.8 2.2 4.8 5s-1.8 5.1-4.8 5.1-4.8-2.3-4.8-5.1zm8 0c0-2-1.1-3.7-3.2-3.7s-3.2 1.8-3.2 3.7c0 2 1.2 3.7 3.2 3.7s3.2-1.7 3.2-3.7z"/></g><path class="st0" d="M7 57.8c.9 0 1.9-.1 2.8-.1v-2.2c-.9 0-1.9 0-2.8.1v2.2zM3.5 58c.9 0 1.8-.1 2.8-.1v-2.3c-.9 0-1.8.1-2.8.1V58zM0 58.2c.9-.1 1.9-.1 2.8-.2v-2.3c-.9 0-1.9.1-2.8.2v2.3zM28.1 58.2c.9.1 1.9.2 2.8.2v-2.3c-.9 0-1.9-.1-2.8-.1v2.2zM14 57.7h2.8v-2.2H14v2.2zM10.5 57.7h2.8v-2.2h-2.8v2.2zM42 59.9c.9.1 1.8.3 2.8.5v-2.5c-.9-.1-1.8-.3-2.8-.4v2.4zM0 20.5c.9 0 1.9.1 2.8.1v-2.3c-.9 0-1.9-.1-2.8-.1v2.3zM7 20.7h2.8v-2.2c-.9 0-1.9 0-2.8-.1v2.3zM13.3 35.6h-2.8v2.2h2.8v-2.2zM7 37.9h2.8v-2.2H7v2.2zM48.9 61.1l2.7.6v-2.6c-.9-.2-1.8-.3-2.7-.5v2.5zM51.7 6.1l-2.7.6v2.6c.9-.2 1.8-.3 2.7-.5V6.1zM45.5 60.4c.9.2 1.8.3 2.7.5v-2.5c-.9-.2-1.8-.3-2.7-.5v2.5zM44.8 7.4c-.9.2-1.8.3-2.8.5v2.4c.9-.1 1.8-.3 2.8-.4V7.4zM48.2 6.8c-.9.2-1.8.3-2.7.5v2.5c.9-.1 1.8-.3 2.7-.5V6.8zM13.3 10h-2.8v2.2h2.8V10zM16.8 10H14v2.2h2.8V10zM7 60.7c.9 0 1.9-.1 2.8-.1v-2.2c-.9 0-1.9 0-2.8.1v2.2zM14 60.5h2.8v-2.2H14v2.2zM42 63c.9.2 1.8.3 2.8.5V61c-.9-.2-1.8-.3-2.8-.5V63zM28.1 61.2c.9.1 1.9.2 2.8.3v-2.3c-.9-.2-1.9-.3-2.8-.3v2.3zM7 32.1h2.8v-2.2H7v2.2zM13.3 29.9h-2.8v2.2h2.8v-2.2zM51.7 2.8l-2.7.6V6l2.7-.6V2.8zM44.8 4.3c-.9.2-1.8.3-2.8.5v2.4c.9-.1 1.8-.3 2.8-.5V4.3zM16.8 7.2H14v2.2h2.8V7.2zM13.3 24.2h-2.8v2.2h2.8v-2.2zM3.5 26.4h2.8v-2.3c-.9 0-1.8 0-2.8-.1v2.4zM0 14.7c.9.1 1.9.1 2.8.1v-2.3c-.9 0-1.9-.1-2.8-.2v2.4zM7 15c.9 0 1.9 0 2.8.1v-2.2c-.9 0-1.9 0-2.8-.1V15zM3.5 14.9c.9 0 1.8.1 2.8.1v-2.3c-.9 0-1.8-.1-2.8-.1v2.3zM3.5 17.8c.9 0 1.8.1 2.8.1v-2.3c-.9 0-1.8-.1-2.8-.1v2.3zM3.5 52.2c.9 0 1.8-.1 2.8-.1v-2.3c-.9 0-1.8.1-2.8.1v2.3zM7 52.1c.9 0 1.9 0 2.8-.1v-2.2c-.9 0-1.9 0-2.8.1v2.2zM3.5 40.7h2.8v-2.3H3.5v2.3zM7 40.7h2.8v-2.2H7v2.2zM0 40.8c.9 0 1.9 0 2.8-.1v-2.3H0v2.4zM7 29.3h2.8v-2.2H7v2.2zM3.5 49.4c.9 0 1.8-.1 2.8-.1V47c-.9 0-1.8 0-2.8.1v2.3zM3.5 29.3h2.8V27H3.5v2.3zM0 29.2h2.8v-2.3c-.9 0-1.9 0-2.8-.1v2.4zM0 55.3c.9-.1 1.9-.1 2.8-.2v-2.3c-.9.1-1.9.2-2.8.2v2.3zM7 55c.9 0 1.9-.1 2.8-.1v-2.2c-.9 0-1.9 0-2.8.1V55zM3.5 43.6c.9 0 1.8 0 2.8-.1v-2.3H3.5v2.4zM13.3 41.3h-2.8v2.2h2.8v-2.2zM0 43.7c.9 0 1.9-.1 2.8-.1v-2.3c-.9 0-1.9 0-2.8.1v2.3zM13.3 44.1h-2.8v2.2h2.8v-2.2zM3.5 46.5c.9 0 1.8 0 2.8-.1v-2.3c-.9 0-1.8 0-2.8.1v2.3zM7 46.4h2.8v-2.2H7v2.2zM24.6 64.1c.9.1 1.9.1 2.8.2v-2.6c-.9-.1-1.9-.2-2.8-.2v2.6zM13.3 4.1h-2.8v2.5h2.8V4.1zM45.5 67.1l2.7.6v-2.9l-2.7-.6v2.9zM16.8 4H14v2.5h2.8V4zM21.1 63.8c.9 0 1.9.1 2.8.2v-2.6c-.9-.1-1.9-.1-2.8-.2v2.6zM17.6 63.7c.9 0 1.9.1 2.8.1v-2.6c-.9 0-1.9-.1-2.8-.1v2.6zM42 66.4c.9.2 1.8.4 2.8.6v-2.8c-.9-.2-1.8-.4-2.8-.5v2.7zM23.9 3.7c-.9.1-1.9.1-2.8.2v2.6c.9 0 1.9-.1 2.8-.2V3.7zM48.2 0l-2.7.6v2.8l2.7-.6V0zM44.8.8c-.9.2-1.9.4-2.8.5v2.8c.9-.2 1.8-.3 2.8-.5V.8zM41.3 1.5c-.9.2-1.8.3-2.7.5v2.7c.9-.1 1.8-.3 2.7-.4V1.5zM34.4 2.6c-.9.1-1.9.3-2.8.4v2.6c.9-.1 1.9-.2 2.8-.3V2.6zM0 23.4c.9 0 1.9.1 2.8.1v-2.3c-.9 0-1.9-.1-2.8-.1v2.3zM30.9 3.1c-.9.1-1.9.2-2.8.3V6c.9-.1 1.9-.2 2.8-.3V3.1zM27.4 3.4c-.9.1-1.9.2-2.8.2v2.6c.9-.1 1.9-.1 2.8-.2V3.4zM13.3 21.4h-2.8v2.2h2.8v-2.2zM7 23.6h2.8v-2.2H7v2.2zM14 63.7h2.8v-2.5H14v2.5zM3.5 35h2.8v-2.3H3.5V35zM13.3 32.7h-2.8V35h2.8v-2.3zM31.6 64.7c.9.1 1.9.2 2.8.4v-2.7c-.9-.1-1.9-.2-2.8-.3v2.6zM35.1 65.2c.9.1 1.9.3 2.8.4v-2.7c-.9-.1-1.8-.3-2.8-.4v2.7z"/><path class="st0" d="M55.1 46.1v-.7c0-1-.1-1.9-.3-2.7-.1-.2-.1-.5-.2-.7-.1-.5-.3-.9-.4-1.3-.2-.5-.5-1-.7-1.4l-.4-.6-1.4-.1s-1.8-.1-2.7-.1v-3.1s-.4-.2-1.1-.5c-.8-.3-1.6-.5-2.4-.7-.2-.1-.5-.1-.7-.1-.5-.1-.9-.2-1.4-.2v-1.3-.7c.4-.1.9-.3 1.4-.5.2-.1.5-.2.7-.3.3-.1.7-.3 1.1-.4.6-.2 1.1-.5 1.7-.8.2-.1.5-.3.7-.5v-.1h.2c.2-.2.5-.4.7-.6l.2-.2c.6-.6 1.2-1.2 1.7-1.9.3-.4.5-.8.7-1.3 0-.1.1-.1.1-.2.4-.8.6-1.7.8-2.7 0-.2.1-.5.1-.7 0-.5.1-1 .1-1.5v-1.1c0-.2 0-.5-.1-.7-.1-.9-.3-1.8-.6-2.6v-.1c-.1-.2-.2-.4-.2-.6h-.2v-.3c-.2-.4-.4-.7-.7-1.1-.3-.3-.6-.7-.9-1l-.3-.3c-.1-.1-.3-.2-.4-.3-.3-.2-.7-.4-1-.5-.2-.1-.5-.2-.7-.3-.7-.2-1.4-.4-2.3-.5-.2 0-.3 0-.5-.1H43.7c-.7.2-1.2.3-1.7.3-.2 0-.5 0-.7.1v-.6c-.9.1-1.8.2-2.7.4V8.5c.9-.1 1.8-.3 2.7-.4v-.6-2.4c-.9.2-1.8.3-2.7.4-.2 0-.5.1-.7.1-.9.1-1.8.3-2.8.4-.2 0-.5.1-.7.1-.9.1-1.9.2-2.8.3V12.2c-.2 0-.5 0-.7.1-.9.1-4.6.2-5.4.2v-2.4c.4 0 1.7 0 2.6-.1v-.4V9 6.7c-.2 0-.5 0-.7.1-.9.1-1.9.1-2.8.2h-4.2c-.9 0-1.9.1-2.8.1v5.6h-7V15.5c.9 0 1.9.1 2.8.1v2.2c-.9 0-1.9 0-2.8-.1V20.5h3.5v9h2.7v2.2h-2.7v3.5h2.7v2.2h-2.7v9h-3.5V52.1c.9 0 1.8 0 2.7-.1v2.2h4.3V59.8c.9 0 1.9.1 2.8.1h.7c.9 0 1.9.1 2.8.1H24.7v-2.2c.9.1 1.8.2 2.7.2v-.1-.6V55v-.6h.7c.9.1 1.9.1 2.8.2.2 0 .5 0 .7.1v5.8c.9.1 1.9.2 2.8.3.2 0 .5.1.7.1.9.1 1.9.2 2.8.4.2 0 .5.1.7.1.9.1 1.8.3 2.7.4v-2.4-.6-2.4-.6c.2 0 .5 0 .7.1 1 .1 1.9.1 2.8.1h.7c.3 0 .6 0 1-.1.6-.1 1.2-.2 1.8-.4.2-.1.5-.1.7-.2.6-.2 1.1-.4 1.6-.7.3-.2.6-.3.9-.5l.2-.2c.2-.2.5-.4.7-.6.5-.5.9-1 1.2-1.5.1-.2.2-.4.4-.7l.3-.6c.2-.6.4-1.2.5-1.9 0-.2.1-.5.1-.7.1-.8.2-1.7.2-2.6v.8c0 .1 0 0 0 0zM49 15.9c.9-.1 1.8-.3 2.7-.4v2.7l-2.7.3v-2.6zm0 6.7c.9-.1 1.8-.2 2.7-.2v2.7c-.9.1-1.8.1-2.7.2v-2.7zm-27.9-7.1c.9 0 1.9-.1 2.8-.1v2.3c-.9 0-1.9.1-2.8.1v-2.3zm1.7 8.7v2.2H20v-2.2h2.8zm-5.2-8.6c.9 0 1.8-.1 2.8-.1v2.3c-.9 0-1.8.1-2.8.1v-2.3zm-1.5 8v-2.2h2.8v2.2h-2.8zm.8 28.4c-.9 0-1.9 0-2.8.1v-2.3c.9 0 1.9 0 2.8-.1V52zm2.8-5.7h-2.8v-2.2h2.8v2.2zm0-2.8h-2.8v-2.2h2.8v2.2zm0-8.5v-2.3h2.8V35h-2.8zm4.2 22.7h-2.8v-2.2h2.8v2.2zm2.3-27.9v-.6-2.3-.6V24v-.6-2.3-.6-1.1H28c.9 0 1.9-.1 2.8-.1h1.5c.7 0 1.4-.1 2-.1h1.9c.6 0 1.1.1 1.6.2.3.1.5.2.7.3.1 0 .1.1.2.1.1.1.2.1.3.2.3.2.5.4.6.6s.3.4.4.6c.2.5.3 1 .3 1.7v.6c0 .9-.1 1.7-.4 2.4-.1.2-.2.5-.3.7 0 0 0 .1-.1.1-.3.5-.6.9-1.1 1.3-.2.2-.5.4-.7.6-.1.1-.2.1-.2.2l-.6.3c-.7.3-1.5.6-2.4.7h-.2c-.2 0-.3 0-.5.1-.7.1-1.5.1-2.2.2h-.7c-.4 0-.8 0-1.2.1-.5 0-1.1 0-1.6.1h-1.8c-.1-.2-.1-.3-.1-.5zM31 52.4c-.9-.1-1.9-.1-2.8-.1V50c.9 0 1.9.1 2.8.1v2.3zm7 .5c-.9-.1-1.9-.2-2.8-.2v-2.3c.9.1 1.9.1 2.8.2v2.3zm3.3-6.1c-.1.2-.3.4-.5.6-.2.2-.5.4-.9.6l-.1.1c-.4.2-.8.3-1.3.4-.2 0-.5.1-.7.1-.8.1-1.7.2-2.8.2h-.7c-.5 0-1.1 0-1.7-.1-.4 0-.7 0-1.1-.1h-.7c-.7 0-1.4-.1-2.1-.1h-2.5v-1.2-.6-2.3-.6-2.3-.6-2.3-.6-.3H31.5c1 0 2 .1 2.8.2.3 0 .5 0 .7.1h.2c.4 0 .7.1 1.1.2.9.2 1.7.4 2.4.7.1 0 .1 0 .2.1.6.3 1.2.7 1.6 1.1.2.2.4.5.6.8 0 .1.1.1.1.2.4.8.7 1.8.6 3.1.2.9-.1 1.9-.5 2.6zm10.4 2l-2.7-.3v-2.6l2.7.3v2.6z"/></svg>