<svg id="Layer_1" data-name="Layer 1" xmlns="http://www.w3.org/2000/svg" viewBox="0 0 221.3 45"><defs><style>.cls-1{fill:#fff;}</style></defs><title>Untitled-2</title><path class="cls-1" d="M15.74,11.27a5.24,5.24,0,0,0,3.49-5V6.17a5,5,0,0,0-1.46-3.65c-1.32-1.33-3.33-2-6.18-2H0V23.1H11.67c5.4,0,8.57-2.36,8.57-6.24V16.8C20.24,13.73,18.49,12.18,15.74,11.27ZM6.11,5.52h4.07c1.87,0,2.85.71,2.85,1.94V7.52c0,1.33-1.07,2-3,2H6.11v-4ZM14,16c0,1.33-1.1,2.07-3,2.07H6.11V13.89h4.78c2.1,0,3.07.81,3.07,2V16Z"/><polygon class="cls-1" points="29.28 0.48 23.02 0.48 23.02 23.09 40.24 23.09 40.24 17.61 29.28 17.61 29.28 0.48"/><path class="cls-1" d="M53.09,0A11.86,11.86,0,0,0,40.86,11.79v0.07c0,6.51,5.17,11.7,12.15,11.7A11.86,11.86,0,0,0,65.24,11.79V11.72C65.24,5.22,60.07,0,53.09,0Zm5.74,11.82a5.78,5.78,0,0,1-5.77,6.05,5.87,5.87,0,0,1-5.79-6.1V11.72A5.77,5.77,0,0,1,53,5.67a5.87,5.87,0,0,1,5.81,6.1v0.07h0Z"/><path class="cls-1" d="M79.61,17.82c-3.17,0-5.39-2.64-5.39-6.05V11.7c0-3.29,2.24-6,5.39-6a6.14,6.14,0,0,1,5,2.64l4.72-3.65A11.06,11.06,0,0,0,79.68,0,11.61,11.61,0,0,0,67.77,11.77v0.07a11.93,11.93,0,0,0,21.71,6.6l-4.77-3.36c-1.36,1.64-2.74,2.74-5.1,2.74"/><path class="cls-1" d="M125,17.82c-3.17,0-5.41-2.64-5.41-6.05V11.7c0-3.29,2.24-6,5.41-6a6.14,6.14,0,0,1,5,2.64l4.72-3.65A11.06,11.06,0,0,0,125.09,0a11.63,11.63,0,0,0-11.94,11.77v0.07a12.73,12.73,0,0,0,.36,2.88h0a12,12,0,0,0,21.33,3.72l-4.72-3.36a6.14,6.14,0,0,1-5.1,2.74"/><polygon class="cls-1" points="151.87 8.94 143.82 8.94 143.82 0.48 137.55 0.48 137.55 23.09 143.82 23.09 143.82 14.49 151.87 14.49 151.87 23.09 158.14 23.09 158.14 0.48 151.87 0.48 151.87 8.94"/><path class="cls-1" d="M176,0.31H170l-9.63,22.78H167L168.58,19h8.72l1.64,4.05h6.72Zm-5.62,13.87L173,7.74l2.53,6.43h-5.08Z"/><rect class="cls-1" x="187.99" y="0.48" width="6.29" height="22.64"/><polygon class="cls-1" points="213.61 0.48 213.61 12.44 204.29 0.48 198.46 0.48 198.46 23.09 204.65 23.09 204.65 10.68 214.32 23.09 219.83 23.09 219.83 0.48 213.61 0.48"/><polygon class="cls-1" points="113.63 0.45 112.44 0.45 110.61 0.45 108.17 0.45 106.18 0.45 106.18 0.45 106.18 0.45 98.38 9.63 98.38 0.45 92.12 0.45 92.12 23.09 98.38 23.09 98.38 17.23 100.68 14.7 106.37 23.09 106.37 23.09 106.37 23.09 112.64 23.09 104.13 10.9 113.63 0.45"/><path class="cls-1" d="M191.62,33.24a1,1,0,1,1,1.91,0A1,1,0,0,1,191.62,33.24Zm0.25,2.42h1.42v9.12h-1.42V35.66Z"/><path class="cls-1" d="M202.58,38.81a1.81,1.81,0,0,0-2-2.11,3.52,3.52,0,0,0-2.7,1.42v6.66h-1.42V35.66h1.42V37a4.52,4.52,0,0,1,3.25-1.55c1.91,0,2.91,1,2.91,2.95v6.4h-1.42v-6Z"/><path class="cls-1" d="M207.54,36.91H206V35.66h1.51V35c0-1.89,1.06-3,2.64-3a2.61,2.61,0,0,1,1.38.32l-0.36,1.06a1.56,1.56,0,0,0-.81-0.21c-0.92,0-1.43.64-1.43,1.79v0.7h1.85v1.25H209v7.87h-1.42V36.91Z"/><path class="cls-1" d="M212.28,40.21a4.52,4.52,0,1,1,9,0A4.52,4.52,0,1,1,212.28,40.21Zm7.53,0c0-1.85-1.08-3.51-3-3.51s-3,1.66-3,3.51,1.09,3.53,3,3.53S219.81,42.08,219.81,40.21Z"/></svg>