<?xml version="1.0" encoding="utf-8"?>
<!-- Generator: Adobe Illustrator 19.2.1, SVG Export Plug-In . SVG Version: 6.00 Build 0)  -->
<svg version="1.1" id="Layer_1" xmlns="http://www.w3.org/2000/svg" xmlns:xlink="http://www.w3.org/1999/xlink" x="0px" y="0px"
	 viewBox="0 0 311.7 67.7" style="enable-background:new 0 0 311.7 67.7;" xml:space="preserve">
<style type="text/css">
	.st0{fill:#FFFFFF;}
	.st1{enable-background:new    ;}
</style>
<path class="st0" d="M93.5,23.4c2.1-0.9,3.7-2.6,3.7-5.3V18c0-1.6-0.6-2.9-1.5-3.9c-1.4-1.4-3.5-2.2-6.5-2.2H76.9v23.9h12.3
	c5.7,0,9-2.5,9-6.6v-0.1C98.2,26,96.4,24.3,93.5,23.4z M83.3,17.3h4.3c2,0,3,0.7,3,2v0.1c0,1.4-1.1,2.1-3.1,2.1h-4.2
	C83.3,21.5,83.3,17.3,83.3,17.3z M91.6,28.4c0,1.4-1.2,2.2-3.2,2.2h-5.1v-4.4h5C90.6,26.1,91.6,27,91.6,28.4L91.6,28.4z"/>
<polygon class="st0" points="107.8,12 101.2,12 101.2,35.8 119.3,35.8 119.3,30.1 107.8,30.1 "/>
<path class="st0" d="M132.9,11.5c-7.4,0-12.9,5.6-12.9,12.4V24c0,6.9,5.5,12.3,12.8,12.3c7.3,0,12.9-5.6,12.9-12.4v-0.1
	C145.7,17,140.3,11.5,132.9,11.5z M139,24c0,3.4-2.4,6.4-6.1,6.4c-3.6,0-6.1-3-6.1-6.4v-0.1c0-3.4,2.4-6.4,6-6.4
	C136.4,17.5,138.9,20.5,139,24L139,24L139,24z"/>
<path class="st0" d="M160.9,30.3c-3.3,0-5.7-2.8-5.7-6.4v-0.1c0-3.5,2.4-6.3,5.7-6.3c2.3,0,3.8,1.1,5.2,2.8l5-3.8
	c-2.1-2.9-5.3-5-10.1-5c-7.2,0-12.6,5.5-12.6,12.4V24c0,7.1,5.5,12.3,12.3,12.3c5.3,0,8.3-2.3,10.6-5.4l-5-3.5
	C164.8,29.1,163.4,30.3,160.9,30.3"/>
<path class="st0" d="M208.8,30.3c-3.3,0-5.7-2.8-5.7-6.4v-0.1c0-3.5,2.4-6.3,5.7-6.3c2.3,0,3.8,1.1,5.2,2.8l5-3.8
	c-2.1-2.9-5.3-5-10.1-5c-7.2,0-12.6,5.5-12.6,12.4V24c0,1.1,0.2,2.1,0.4,3l0,0c1.3,5.5,6.1,9.3,11.9,9.3c5.3,0,8.3-2.3,10.6-5.4
	l-5-3.5C212.8,29.1,211.3,30.3,208.8,30.3"/>
<polygon class="st0" points="237.2,20.9 228.7,20.9 228.7,12 222.1,12 222.1,35.8 228.7,35.8 228.7,26.8 237.2,26.8 237.2,35.8 
	243.8,35.8 243.8,12 237.2,12 "/>
<path class="st0" d="M262.7,11.8h-6.4l-10.2,24h7l1.7-4.3h9.2l1.7,4.3h7.1L262.7,11.8z M256.7,26.4l2.7-6.8l2.7,6.8
	C262.1,26.4,256.7,26.4,256.7,26.4z"/>
<rect x="275.3" y="12" class="st0" width="6.6" height="23.9"/>
<polygon class="st0" points="302.3,12 302.3,24.6 292.5,12 286.3,12 286.3,35.8 292.9,35.8 292.9,22.7 303.1,35.8 308.9,35.8 
	308.9,12 "/>
<polygon class="st0" points="196.8,12 195.6,12 193.6,12 191,12 188.9,12 188.9,12 188.9,12 180.7,21.6 180.7,12 174.1,12 
	174.1,35.8 180.7,35.8 180.7,29.7 183.1,27 189.1,35.8 189.1,35.8 189.1,35.8 195.8,35.8 186.8,23 "/>
<g class="st1">
	<path class="st0" d="M279.1,46.6c0-0.6,0.5-1,1-1c0.6,0,1,0.5,1,1s-0.5,1-1,1C279.6,47.6,279.1,47.1,279.1,46.6z M279.4,49.1h1.5
		v9.6h-1.5V49.1z"/>
	<path class="st0" d="M290.3,52.5c0-1.7-0.9-2.2-2.2-2.2c-1.2,0-2.3,0.7-2.8,1.5v7h-1.5v-9.6h1.5v1.4c0.7-0.8,2-1.6,3.4-1.6
		c2,0,3.1,1,3.1,3.1v6.8h-1.5V52.5z"/>
	<path class="st0" d="M295.2,50.4h-1.6v-1.3h1.6v-0.7c0-2,1.1-3.1,2.8-3.1c0.6,0,1.1,0.1,1.5,0.3l-0.4,1.1c-0.2-0.1-0.5-0.2-0.9-0.2
		c-1,0-1.5,0.7-1.5,1.9v0.7h2v1.3h-2v8.3h-1.5V50.4z"/>
	<path class="st0" d="M299.9,53.9c0-2.8,1.8-5,4.8-5c2.9,0,4.8,2.2,4.8,5c0,2.8-1.8,5.1-4.8,5.1C301.7,59,299.9,56.7,299.9,53.9z
		 M307.9,53.9c0-2-1.1-3.7-3.2-3.7c-2.1,0-3.2,1.8-3.2,3.7c0,2,1.2,3.7,3.2,3.7C306.7,57.6,307.9,55.9,307.9,53.9z"/>
</g>
<g>
	<path class="st0" d="M7,57.8c0.9,0,1.9-0.1,2.8-0.1c0-0.7,0-1.5,0-2.2c-0.9,0-1.9,0-2.8,0.1C7,56.3,7,57.1,7,57.8z"/>
	<path class="st0" d="M3.5,58c0.9,0,1.8-0.1,2.8-0.1c0-0.8,0-1.5,0-2.3c-0.9,0-1.8,0.1-2.8,0.1C3.5,56.5,3.5,57.2,3.5,58z"/>
	<path class="st0" d="M0,58.2c0.9-0.1,1.9-0.1,2.8-0.2c0-0.8,0-1.5,0-2.3c-0.9,0-1.9,0.1-2.8,0.2C0,56.7,0,57.4,0,58.2z"/>
	<path class="st0" d="M28.1,58.2c0.9,0.1,1.9,0.2,2.8,0.2c0-0.8,0-1.5,0-2.3C30,56.1,29,56,28.1,56C28.1,56.7,28.1,57.5,28.1,58.2z"
		/>
	<path class="st0" d="M14,57.7c0.9,0,1.9,0,2.8,0c0-0.7,0-1.5,0-2.2c-0.9,0-1.9,0-2.8,0C14,56.2,14,56.9,14,57.7z"/>
	<path class="st0" d="M10.5,57.7c0.9,0,1.9,0,2.8,0c0-0.7,0-1.5,0-2.2c-0.9,0-1.9,0-2.8,0C10.5,56.2,10.5,57,10.5,57.7z"/>
	<path class="st0" d="M42,59.9c0.9,0.1,1.8,0.3,2.8,0.5c0-0.8,0-1.7,0-2.5c-0.9-0.1-1.8-0.3-2.8-0.4C42,58.2,42,59.1,42,59.9z"/>
	<path class="st0" d="M0,20.5c0.9,0,1.9,0.1,2.8,0.1c0-0.8,0-1.5,0-2.3c-0.9,0-1.9-0.1-2.8-0.1C0,19,0,19.8,0,20.5z"/>
	<path class="st0" d="M7,20.7c0.9,0,1.9,0,2.8,0c0-0.7,0-1.5,0-2.2c-0.9,0-1.9,0-2.8-0.1C7,19.2,7,20,7,20.7z"/>
	<path class="st0" d="M13.3,35.6c-0.9,0-1.9,0-2.8,0c0,0.7,0,1.5,0,2.2c0.9,0,1.9,0,2.8,0C13.3,37.1,13.3,36.3,13.3,35.6z"/>
	<path class="st0" d="M7,37.9c0.9,0,1.9,0,2.8,0c0-0.7,0-1.5,0-2.2c-0.9,0-1.9,0-2.8,0C7,36.4,7,37.1,7,37.9z"/>
	<path class="st0" d="M48.9,61.1c0.9,0.2,1.8,0.4,2.7,0.6c0-0.9,0-1.7,0-2.6c-0.9-0.2-1.8-0.3-2.7-0.5
		C48.9,59.4,48.9,60.2,48.9,61.1z"/>
	<path class="st0" d="M51.7,6.1c-0.9,0.2-1.8,0.4-2.7,0.6c0,0.9,0,1.7,0,2.6c0.9-0.2,1.8-0.3,2.7-0.5C51.7,7.8,51.7,7,51.7,6.1z"/>
	<path class="st0" d="M45.5,60.4c0.9,0.2,1.8,0.3,2.7,0.5c0-0.8,0-1.7,0-2.5c-0.9-0.2-1.8-0.3-2.7-0.5
		C45.5,58.8,45.5,59.6,45.5,60.4z"/>
	<path class="st0" d="M44.8,7.4C43.9,7.6,43,7.7,42,7.9c0,0.8,0,1.6,0,2.4c0.9-0.1,1.8-0.3,2.8-0.4C44.8,9.1,44.8,8.2,44.8,7.4z"/>
	<path class="st0" d="M48.2,6.8c-0.9,0.2-1.8,0.3-2.7,0.5c0,0.8,0,1.7,0,2.5c0.9-0.1,1.8-0.3,2.7-0.5C48.2,8.5,48.2,7.6,48.2,6.8z"
		/>
	<path class="st0" d="M13.3,10c-0.9,0-1.9,0-2.8,0c0,0.7,0,1.5,0,2.2c0.9,0,1.9,0,2.8,0C13.3,11.5,13.3,10.8,13.3,10z"/>
	<path class="st0" d="M16.8,10c-0.9,0-1.9,0-2.8,0c0,0.7,0,1.5,0,2.2c0.9,0,1.9,0,2.8,0C16.8,11.5,16.8,10.8,16.8,10z"/>
	<path class="st0" d="M7,60.7c0.9,0,1.9-0.1,2.8-0.1c0-0.7,0-1.5,0-2.2c-0.9,0-1.9,0-2.8,0.1C7,59.2,7,59.9,7,60.7z"/>
	<path class="st0" d="M14,60.5c0.9,0,1.9,0,2.8,0c0-0.7,0-1.5,0-2.2c-0.9,0-1.9,0-2.8,0C14,59,14,59.8,14,60.5z"/>
	<path class="st0" d="M42,63c0.9,0.2,1.8,0.3,2.8,0.5c0-0.8,0-1.7,0-2.5c-0.9-0.2-1.8-0.3-2.8-0.5C42,61.3,42,62.2,42,63z"/>
	<path class="st0" d="M28.1,61.2c0.9,0.1,1.9,0.2,2.8,0.3c0-0.8,0-1.5,0-2.3C30,59,29,58.9,28.1,58.9C28.1,59.6,28.1,60.4,28.1,61.2
		z"/>
	<path class="st0" d="M7,32.1c0.9,0,1.9,0,2.8,0c0-0.7,0-1.5,0-2.2c-0.9,0-1.9,0-2.8,0C7,30.6,7,31.4,7,32.1z"/>
	<path class="st0" d="M13.3,29.9c-0.9,0-1.9,0-2.8,0c0,0.7,0,1.5,0,2.2c0.9,0,1.9,0,2.8,0C13.3,31.4,13.3,30.7,13.3,29.9z"/>
	<path class="st0" d="M51.7,2.8C50.8,3,49.9,3.2,49,3.4c0,0.9,0,1.7,0,2.6c0.9-0.2,1.8-0.4,2.7-0.6C51.7,4.5,51.7,3.7,51.7,2.8z"/>
	<path class="st0" d="M44.8,4.3C43.9,4.5,43,4.6,42,4.8c0,0.8,0,1.6,0,2.4c0.9-0.1,1.8-0.3,2.8-0.5C44.8,5.9,44.8,5.1,44.8,4.3z"/>
	<path class="st0" d="M16.8,7.2c-0.9,0-1.9,0-2.8,0c0,0.7,0,1.5,0,2.2c0.9,0,1.9,0,2.8,0C16.8,8.7,16.8,7.9,16.8,7.2z"/>
	<path class="st0" d="M13.3,24.2c-0.9,0-1.9,0-2.8,0c0,0.7,0,1.5,0,2.2c0.9,0,1.9,0,2.8,0C13.3,25.7,13.3,25,13.3,24.2z"/>
	<path class="st0" d="M3.5,26.4c0.9,0,1.8,0,2.8,0c0-0.8,0-1.5,0-2.3c-0.9,0-1.8,0-2.8-0.1C3.5,24.9,3.5,25.6,3.5,26.4z"/>
	<path class="st0" d="M0,14.7c0.9,0.1,1.9,0.1,2.8,0.1c0-0.8,0-1.5,0-2.3c-0.9,0-1.9-0.1-2.8-0.2C0,13.2,0,14,0,14.7z"/>
	<path class="st0" d="M7,15c0.9,0,1.9,0,2.8,0.1c0-0.7,0-1.5,0-2.2c-0.9,0-1.9,0-2.8-0.1C7,13.5,7,14.3,7,15z"/>
	<path class="st0" d="M3.5,14.9c0.9,0,1.8,0.1,2.8,0.1c0-0.8,0-1.5,0-2.3c-0.9,0-1.8-0.1-2.8-0.1C3.5,13.4,3.5,14.2,3.5,14.9z"/>
	<path class="st0" d="M3.5,17.8c0.9,0,1.8,0.1,2.8,0.1c0-0.8,0-1.5,0-2.3c-0.9,0-1.8-0.1-2.8-0.1C3.5,16.3,3.5,17,3.5,17.8z"/>
	<path class="st0" d="M3.5,52.2c0.9,0,1.8-0.1,2.8-0.1c0-0.8,0-1.5,0-2.3c-0.9,0-1.8,0.1-2.8,0.1C3.5,50.7,3.5,51.5,3.5,52.2z"/>
	<path class="st0" d="M7,52.1c0.9,0,1.9,0,2.8-0.1c0-0.7,0-1.5,0-2.2c-0.9,0-1.9,0-2.8,0.1C7,50.6,7,51.4,7,52.1z"/>
	<path class="st0" d="M3.5,40.7c0.9,0,1.8,0,2.8,0c0-0.8,0-1.5,0-2.3c-0.9,0-1.8,0-2.8,0C3.5,39.2,3.5,40,3.5,40.7z"/>
	<path class="st0" d="M7,40.7c0.9,0,1.9,0,2.8,0c0-0.7,0-1.5,0-2.2c-0.9,0-1.9,0-2.8,0C7,39.2,7,40,7,40.7z"/>
	<path class="st0" d="M0,40.8c0.9,0,1.9,0,2.8-0.1c0-0.8,0-1.5,0-2.3c-0.9,0-1.9,0-2.8,0C0,39.3,0,40,0,40.8z"/>
	<path class="st0" d="M7,29.3c0.9,0,1.9,0,2.8,0c0-0.7,0-1.5,0-2.2c-0.9,0-1.9,0-2.8,0C7,27.8,7,28.5,7,29.3z"/>
	<path class="st0" d="M3.5,49.4c0.9,0,1.8-0.1,2.8-0.1c0-0.8,0-1.5,0-2.3c-0.9,0-1.8,0-2.8,0.1C3.5,47.8,3.5,48.6,3.5,49.4z"/>
	<path class="st0" d="M3.5,29.3c0.9,0,1.8,0,2.8,0c0-0.8,0-1.5,0-2.3c-0.9,0-1.8,0-2.8,0C3.5,27.7,3.5,28.5,3.5,29.3z"/>
	<path class="st0" d="M0,29.2c0.9,0,1.9,0,2.8,0c0-0.8,0-1.5,0-2.3c-0.9,0-1.9,0-2.8-0.1C0,27.7,0,28.4,0,29.2z"/>
	<path class="st0" d="M0,55.3c0.9-0.1,1.9-0.1,2.8-0.2c0-0.8,0-1.5,0-2.3C1.9,52.9,0.9,53,0,53C0,53.8,0,54.5,0,55.3z"/>
	<path class="st0" d="M7,55c0.9,0,1.9-0.1,2.8-0.1c0-0.7,0-1.5,0-2.2c-0.9,0-1.9,0-2.8,0.1C7,53.5,7,54.2,7,55z"/>
	<path class="st0" d="M3.5,43.6c0.9,0,1.8,0,2.8-0.1c0-0.8,0-1.5,0-2.3c-0.9,0-1.8,0-2.8,0C3.5,42.1,3.5,42.9,3.5,43.6z"/>
	<path class="st0" d="M13.3,41.3c-0.9,0-1.9,0-2.8,0c0,0.7,0,1.5,0,2.2c0.9,0,1.9,0,2.8,0C13.3,42.8,13.3,42,13.3,41.3z"/>
	<path class="st0" d="M0,43.7c0.9,0,1.9-0.1,2.8-0.1c0-0.8,0-1.5,0-2.3c-0.9,0-1.9,0-2.8,0.1C0,42.2,0,42.9,0,43.7z"/>
	<path class="st0" d="M13.3,44.1c-0.9,0-1.9,0-2.8,0c0,0.7,0,1.5,0,2.2c0.9,0,1.9,0,2.8,0C13.3,45.6,13.3,44.8,13.3,44.1z"/>
	<path class="st0" d="M3.5,46.5c0.9,0,1.8,0,2.8-0.1c0-0.8,0-1.5,0-2.3c-0.9,0-1.8,0-2.8,0.1C3.5,45,3.5,45.7,3.5,46.5z"/>
	<path class="st0" d="M7,46.4c0.9,0,1.9,0,2.8,0c0-0.7,0-1.5,0-2.2c-0.9,0-1.9,0-2.8,0C7,44.9,7,45.7,7,46.4z"/>
	<path class="st0" d="M24.6,64.1c0.9,0.1,1.9,0.1,2.8,0.2c0-0.9,0-1.7,0-2.6c-0.9-0.1-1.9-0.2-2.8-0.2
		C24.6,62.3,24.6,63.2,24.6,64.1z"/>
	<path class="st0" d="M13.3,4.1c-0.9,0-1.9,0-2.8,0c0,0.8,0,1.7,0,2.5c0.9,0,1.9,0,2.8,0C13.3,5.8,13.3,4.9,13.3,4.1z"/>
	<path class="st0" d="M45.5,67.1c0.9,0.2,1.8,0.4,2.7,0.6c0-1,0-1.9,0-2.9c-0.9-0.2-1.8-0.4-2.7-0.6C45.5,65.2,45.5,66.2,45.5,67.1z
		"/>
	<path class="st0" d="M16.8,4c-0.9,0-1.9,0-2.8,0c0,0.8,0,1.7,0,2.5c0.9,0,1.9,0,2.8,0C16.8,5.7,16.8,4.9,16.8,4z"/>
	<path class="st0" d="M21.1,63.8c0.9,0,1.9,0.1,2.8,0.2c0-0.9,0-1.7,0-2.6c-0.9-0.1-1.9-0.1-2.8-0.2C21.1,62.1,21.1,63,21.1,63.8z"
		/>
	<path class="st0" d="M17.6,63.7c0.9,0,1.9,0.1,2.8,0.1c0-0.9,0-1.7,0-2.6c-0.9,0-1.9-0.1-2.8-0.1C17.6,62,17.6,62.9,17.6,63.7z"/>
	<path class="st0" d="M42,66.4c0.9,0.2,1.8,0.4,2.8,0.6c0-0.9,0-1.9,0-2.8C43.9,64,43,63.8,42,63.7C42,64.5,42,65.5,42,66.4z"/>
	<path class="st0" d="M23.9,3.7C23,3.8,22,3.8,21.1,3.9c0,0.9,0,1.7,0,2.6c0.9,0,1.9-0.1,2.8-0.2C23.9,5.4,23.9,4.6,23.9,3.7z"/>
	<path class="st0" d="M48.2,0c-0.9,0.2-1.8,0.4-2.7,0.6c0,0.9,0,1.9,0,2.8c0.9-0.2,1.8-0.4,2.7-0.6C48.2,1.9,48.2,1,48.2,0z"/>
	<path class="st0" d="M44.8,0.8C43.9,1,42.9,1.2,42,1.3c0,0.9,0,1.8,0,2.8c0.9-0.2,1.8-0.3,2.8-0.5C44.8,2.7,44.8,1.7,44.8,0.8z"/>
	<path class="st0" d="M41.3,1.5c-0.9,0.2-1.8,0.3-2.7,0.5c0,0.9,0,1.8,0,2.7c0.9-0.1,1.8-0.3,2.7-0.4C41.3,3.3,41.3,2.4,41.3,1.5z"
		/>
	<path class="st0" d="M34.4,2.6c-0.9,0.1-1.9,0.3-2.8,0.4c0,0.9,0,1.8,0,2.6c0.9-0.1,1.9-0.2,2.8-0.3C34.4,4.4,34.4,3.5,34.4,2.6z"
		/>
	<path class="st0" d="M0,23.4c0.9,0,1.9,0.1,2.8,0.1c0-0.8,0-1.5,0-2.3c-0.9,0-1.9-0.1-2.8-0.1C0,21.9,0,22.7,0,23.4z"/>
	<path class="st0" d="M30.9,3.1C30,3.2,29,3.3,28.1,3.4c0,0.9,0,1.7,0,2.6C29,5.9,30,5.8,30.9,5.7C30.9,4.8,30.9,4,30.9,3.1z"/>
	<path class="st0" d="M27.4,3.4c-0.9,0.1-1.9,0.2-2.8,0.2c0,0.9,0,1.7,0,2.6c0.9-0.1,1.9-0.1,2.8-0.2C27.4,5.2,27.4,4.3,27.4,3.4z"
		/>
	<path class="st0" d="M13.3,21.4c-0.9,0-1.9,0-2.8,0c0,0.7,0,1.5,0,2.2c0.9,0,1.9,0,2.8,0C13.3,22.9,13.3,22.1,13.3,21.4z"/>
	<path class="st0" d="M7,23.6c0.9,0,1.9,0,2.8,0c0-0.7,0-1.5,0-2.2c-0.9,0-1.9,0-2.8,0C7,22.1,7,22.8,7,23.6z"/>
	<path class="st0" d="M14,63.7c0.9,0,1.9,0,2.8,0c0-0.8,0-1.7,0-2.5c-0.9,0-1.9,0-2.8,0C14,62,14,62.8,14,63.7z"/>
	<path class="st0" d="M3.5,35c0.9,0,1.8,0,2.8,0c0-0.8,0-1.5,0-2.3c-0.9,0-1.8,0-2.8,0C3.5,33.5,3.5,34.2,3.5,35z"/>
	<path class="st0" d="M13.3,32.7c-0.9,0-1.9,0-2.8,0c0,0.8,0,1.5,0,2.3c0.9,0,1.9,0,2.8,0C13.3,34.2,13.3,33.5,13.3,32.7z"/>
	<path class="st0" d="M31.6,64.7c0.9,0.1,1.9,0.2,2.8,0.4c0-0.9,0-1.8,0-2.7c-0.9-0.1-1.9-0.2-2.8-0.3C31.6,63,31.6,63.9,31.6,64.7z
		"/>
	<path class="st0" d="M35.1,65.2c0.9,0.1,1.9,0.3,2.8,0.4c0-0.9,0-1.8,0-2.7c-0.9-0.1-1.8-0.3-2.8-0.4
		C35.1,63.4,35.1,64.3,35.1,65.2z"/>
	<path class="st0" d="M55.1,46.1c0-0.2,0-0.5,0-0.7c0-1-0.1-1.9-0.3-2.7c-0.1-0.2-0.1-0.5-0.2-0.7c-0.1-0.5-0.3-0.9-0.4-1.3
		c-0.2-0.5-0.5-1-0.7-1.4c-0.2-0.3-0.4-0.6-0.4-0.6l-1.4-0.1c0,0-1.8-0.1-2.7-0.1c0-0.9,0-2.6,0-2.6v-0.5c0,0-0.4-0.2-1.1-0.5
		c-0.8-0.3-1.6-0.5-2.4-0.7c-0.2-0.1-0.5-0.1-0.7-0.1c-0.5-0.1-0.9-0.2-1.4-0.2c0-0.4,0-0.9,0-1.3c0-0.2,0-0.4,0-0.7l0,0
		c0.4-0.1,0.9-0.3,1.4-0.5c0.2-0.1,0.5-0.2,0.7-0.3c0.3-0.1,0.7-0.3,1.1-0.4c0.6-0.2,1.1-0.5,1.7-0.8c0.2-0.1,0.5-0.3,0.7-0.5v-0.1
		c0.1,0,0.1,0,0.2,0c0.2-0.2,0.5-0.4,0.7-0.6c0.1-0.1,0.1-0.1,0.2-0.2c0.6-0.6,1.2-1.2,1.7-1.9c0.3-0.4,0.5-0.8,0.7-1.3
		c0-0.1,0.1-0.1,0.1-0.2c0.4-0.8,0.6-1.7,0.8-2.7c0-0.2,0.1-0.5,0.1-0.7c0-0.5,0.1-1,0.1-1.5c0-0.4,0-0.8,0-1.1c0-0.2,0-0.5-0.1-0.7
		c-0.1-0.9-0.3-1.8-0.6-2.6v-0.1c-0.1-0.2-0.2-0.4-0.2-0.6c-0.1,0-0.1,0-0.2,0c0-0.1,0-0.2,0-0.3c-0.2-0.4-0.4-0.7-0.7-1.1
		c-0.3-0.3-0.6-0.7-0.9-1c-0.1-0.1-0.2-0.2-0.3-0.3s-0.3-0.2-0.4-0.3c-0.3-0.2-0.7-0.4-1-0.5c-0.2-0.1-0.5-0.2-0.7-0.3
		c-0.7-0.2-1.4-0.4-2.3-0.5c-0.2,0-0.3,0-0.5-0.1c-0.2,0-0.5,0-0.7,0s-0.4,0-0.6,0c-0.2,0-0.4,0-0.7,0C43,10.9,42.5,11,42,11
		c-0.2,0-0.5,0-0.7,0.1c0-0.2,0-0.4,0-0.6c-0.9,0.1-1.8,0.2-2.7,0.4c0-0.8,0-1.6,0-2.4c0.9-0.1,1.8-0.3,2.7-0.4l0,0
		c0-0.2,0-0.4,0-0.6c0-0.8,0-1.6,0-2.4c-0.9,0.2-1.8,0.3-2.7,0.4c-0.2,0-0.5,0.1-0.7,0.1C37,5.7,36.1,5.9,35.1,6
		c-0.2,0-0.5,0.1-0.7,0.1c-0.9,0.1-1.9,0.2-2.8,0.3c0,0.8,0,1.5,0,2.3c0,0.2,0,0.4,0,0.6c0,0.8,0,1.5,0,2.3c0,0.2,0,0.4,0,0.6
		c-0.2,0-0.5,0-0.7,0.1c-0.9,0.1-4.6,0.2-5.4,0.2c0-0.7,0-1.6,0-2.4c0.4,0,1.7,0,2.6-0.1c0-0.2,0-0.2,0-0.4s0-0.4,0-0.6
		c0-0.8,0-1.5,0-2.3c-0.2,0-0.5,0-0.7,0.1c-0.9,0.1-1.9,0.1-2.8,0.2c-0.2,0-0.5,0-0.7,0c-1,0-1.9,0-2.8,0c-0.2,0-0.5,0-0.7,0
		c-0.9,0-1.9,0.1-2.8,0.1c0,0.7,0,1.5,0,2.2c0,0.2,0,0.4,0,0.6c0,0.7,0,1.5,0,2.2c0,0.2,0,0.4,0,0.6c-0.2,0-0.5,0-0.7,0
		c-0.1,0-0.3,0-0.4,0c-0.8,0-1.6,0-2.4,0c-0.2,0-0.5,0-0.7,0c-0.9,0-1.9,0-2.8,0c0,0.7,0,1.5,0,2.2c0,0.2,0,0.4,0,0.6
		c0.9,0,1.9,0.1,2.8,0.1c0,0.7,0,1.5,0,2.2c-0.9,0-1.9,0-2.8-0.1c0,0.2,0,0.4,0,0.6c0,0.7,0,1.5,0,2.2c0.9,0,1.9,0,2.8,0
		c0.2,0,0.5,0,0.7,0c0,0.2,0,0.4,0,0.6c0,0.7,0,1.5,0,2.2c0,0.2,0,0.4,0,0.6c0,0.7,0,1.5,0,2.2c0,0.2,0,0.4,0,0.6c0,0.7,0,1.5,0,2.2
		c0,0.2,0,0.4,0,0.6c0.9,0,1.8,0,2.7,0c0,0.7,0,1.5,0,2.2c-0.9,0-1.8,0-2.7,0l0,0c0,0.2,0,0.4,0,0.6c0,0.8,0,1.5,0,2.3
		c0,0.2,0,0.4,0,0.6l0,0c0.9,0,1.8,0,2.7,0c0,0.7,0,1.5,0,2.2c-0.9,0-1.8,0-2.7,0c0,0.2,0,0.4,0,0.6c0,0.7,0,1.5,0,2.2
		c0,0.2,0,0.4,0,0.6c0,0.7,0,1.5,0,2.2c0,0.2,0,0.4,0,0.6c0,0.7,0,1.5,0,2.2c0,0.2,0,0.4,0,0.6c-0.2,0-0.5,0-0.7,0
		c-0.9,0-1.9,0-2.8,0c0,0.7,0,1.5,0,2.2c0,0.2,0,0.4,0,0.6c0,0.7,0,1.5,0,2.2c0,0.2,0,0.4,0,0.6c0,0,0,0,0,0.1c0.9,0,1.8,0,2.7-0.1
		c0,0.7,0,1.5,0,2.2c0,0,0,0,0.1,0c0.2,0,0.5,0,0.7,0c0.8,0,1.6,0,2.4,0c0.1,0,0.3,0,0.4,0c0.2,0,0.5,0,0.7,0c0,0.2,0,0.4,0,0.6
		c0,0.7,0,1.5,0,2.2c0,0.2,0,0.4,0,0.6c0,0.7,0,1.5,0,2.2c0.9,0,1.9,0.1,2.8,0.1c0.2,0,0.5,0,0.7,0c0.9,0,1.9,0.1,2.8,0.1
		c0.2,0,0.5,0,0.7,0c0,0,0,0,0.1,0c0-0.7,0-1.5,0-2.2c0.9,0.1,1.8,0.2,2.7,0.2v-0.1c0-0.2,0-0.4,0-0.6c0-0.8,0-1.5,0-2.3
		c0-0.2,0-0.4,0-0.6c0.2,0,0.5,0,0.7,0c0.9,0.1,1.9,0.1,2.8,0.2c0.2,0,0.5,0,0.7,0.1c0,0.2,0,0.4,0,0.6c0,0.8,0,1.5,0,2.3
		c0,0.2,0,0.4,0,0.6c0,0.8,0,1.5,0,2.3c0.9,0.1,1.9,0.2,2.8,0.3c0.2,0,0.5,0.1,0.7,0.1c0.9,0.1,1.9,0.2,2.8,0.4
		c0.2,0,0.5,0.1,0.7,0.1c0.9,0.1,1.8,0.3,2.7,0.4c0-0.8,0-1.6,0-2.4c0-0.2,0-0.4,0-0.6c0-0.8,0-1.6,0-2.4c0-0.2,0-0.4,0-0.6
		c0.2,0,0.5,0,0.7,0.1c1,0.1,1.9,0.1,2.8,0.1c0.2,0,0.5,0,0.7,0c0.3,0,0.6,0,1-0.1c0.6-0.1,1.2-0.2,1.8-0.4c0.2-0.1,0.5-0.1,0.7-0.2
		c0.6-0.2,1.1-0.4,1.6-0.7c0.3-0.2,0.6-0.3,0.9-0.5l0,0c0.1-0.1,0.1-0.1,0.2-0.2c0.2-0.2,0.5-0.4,0.7-0.6c0.5-0.5,0.9-1,1.2-1.5
		c0.1-0.2,0.2-0.4,0.4-0.7c0.1-0.2,0.2-0.4,0.3-0.6c0.2-0.6,0.4-1.2,0.5-1.9c0-0.2,0.1-0.5,0.1-0.7c0.1-0.8,0.2-1.7,0.2-2.6
		C55.1,46.2,55.1,46.2,55.1,46.1C55.1,46.2,55.1,46.1,55.1,46.1z M49,15.9c0.9-0.1,1.8-0.3,2.7-0.4c0,0.9,0,1.8,0,2.7
		c-0.9,0.1-1.8,0.2-2.7,0.3C49,17.7,49,16.8,49,15.9z M49,22.6c0.9-0.1,1.8-0.2,2.7-0.2c0,0.9,0,1.8,0,2.7c-0.9,0.1-1.8,0.1-2.7,0.2
		C49,24.3,49,23.4,49,22.6z M21.1,15.5c0.9,0,1.9-0.1,2.8-0.1c0,0.8,0,1.5,0,2.3c-0.9,0-1.9,0.1-2.8,0.1
		C21.1,17,21.1,16.2,21.1,15.5z M22.8,24.2c0,0.7,0,1.5,0,2.2c-0.9,0-1.9,0-2.8,0c0-0.7,0-1.5,0-2.2C21,24.2,21.9,24.2,22.8,24.2z
		 M17.6,15.6c0.9,0,1.8-0.1,2.8-0.1c0,0.8,0,1.5,0,2.3c-0.9,0-1.8,0.1-2.8,0.1C17.6,17.1,17.6,16.4,17.6,15.6z M16.1,23.6
		c0-0.7,0-1.5,0-2.2c0.9,0,1.9,0,2.8,0c0,0.7,0,1.5,0,2.2C18,23.6,17,23.6,16.1,23.6z M16.9,52c-0.9,0-1.9,0-2.8,0.1
		c0-0.8,0-1.5,0-2.3c0.9,0,1.9,0,2.8-0.1C16.9,50.5,16.9,51.3,16.9,52z M19.7,46.3c-0.9,0-1.9,0-2.8,0c0-0.7,0-1.5,0-2.2
		c0.9,0,1.9,0,2.8,0C19.7,44.8,19.7,45.6,19.7,46.3z M19.7,43.5c-0.9,0-1.9,0-2.8,0c0-0.7,0-1.5,0-2.2c0.9,0,1.9,0,2.8,0
		C19.7,42,19.7,42.8,19.7,43.5z M19.7,35c0-0.8,0-1.5,0-2.3c0.9,0,1.9,0,2.8,0c0,0.8,0,1.5,0,2.3C21.6,35,20.6,35,19.7,35z
		 M23.9,57.7c-0.9,0-1.9,0-2.8,0c0-0.7,0-1.5,0-2.2c0.9,0,1.9,0,2.8,0C23.9,56.2,23.9,57,23.9,57.7z M26.2,29.8c0-0.2,0-0.4,0-0.6
		c0-0.8,0-1.5,0-2.3c0-0.2,0-0.4,0-0.6c0-0.8,0-1.5,0-2.3c0-0.2,0-0.4,0-0.6c0-0.8,0-1.5,0-2.3c0-0.2,0-0.4,0-0.6c0-0.4,0-0.7,0-1.1
		c0.4,0,0.8,0,1.1,0c0.2,0,0.5,0,0.7,0c0.9,0,1.9-0.1,2.8-0.1c0.2,0,0.5,0,0.7,0c0.3,0,0.5,0,0.8,0c0.7,0,1.4-0.1,2-0.1
		c0.2,0,0.5,0,0.7,0c0.4,0,0.9,0,1.2,0c0.6,0,1.1,0.1,1.6,0.2c0.3,0.1,0.5,0.2,0.7,0.3c0.1,0,0.1,0.1,0.2,0.1
		c0.1,0.1,0.2,0.1,0.3,0.2c0.3,0.2,0.5,0.4,0.6,0.6s0.3,0.4,0.4,0.6c0.2,0.5,0.3,1,0.3,1.7c0,0.2,0,0.4,0,0.6l0,0
		c0,0.9-0.1,1.7-0.4,2.4c-0.1,0.2-0.2,0.5-0.3,0.7c0,0,0,0.1-0.1,0.1c-0.3,0.5-0.6,0.9-1.1,1.3c-0.2,0.2-0.5,0.4-0.7,0.6
		c-0.1,0.1-0.2,0.1-0.2,0.2c-0.2,0.1-0.4,0.2-0.6,0.3c-0.7,0.3-1.5,0.6-2.4,0.7c-0.1,0-0.2,0-0.2,0c-0.2,0-0.3,0-0.5,0.1
		c-0.7,0.1-1.5,0.1-2.2,0.2c-0.2,0-0.5,0-0.7,0c-0.4,0-0.8,0-1.2,0.1c-0.5,0-1.1,0-1.6,0.1c-0.2,0-0.5,0-0.7,0c-0.4,0-0.8,0-1.1,0
		C26.2,30.1,26.2,30,26.2,29.8z M31,52.4c-0.9-0.1-1.9-0.1-2.8-0.1c0-0.8,0-1.5,0-2.3c0.9,0,1.9,0.1,2.8,0.1
		C31,50.9,31,51.6,31,52.4z M38,52.9c-0.9-0.1-1.9-0.2-2.8-0.2c0-0.8,0-1.5,0-2.3c0.9,0.1,1.9,0.1,2.8,0.2C38,51.3,38,52.1,38,52.9z
		 M41.3,46.8c-0.1,0.2-0.3,0.4-0.5,0.6c-0.2,0.2-0.5,0.4-0.9,0.6l-0.1,0.1c-0.4,0.2-0.8,0.3-1.3,0.4c-0.2,0-0.5,0.1-0.7,0.1
		c-0.8,0.1-1.7,0.2-2.8,0.2c-0.2,0-0.5,0-0.7,0c-0.5,0-1.1,0-1.7-0.1c-0.4,0-0.7,0-1.1-0.1c-0.2,0-0.5,0-0.7,0
		c-0.7,0-1.4-0.1-2.1-0.1c-0.2,0-0.5,0-0.7,0s-0.5,0-0.7,0c-0.4,0-0.8,0-1.1,0c0-0.4,0-0.8,0-1.2c0-0.2,0-0.4,0-0.6
		c0-0.8,0-1.5,0-2.3c0-0.2,0-0.4,0-0.6c0-0.8,0-1.5,0-2.3c0-0.2,0-0.4,0-0.6c0-0.8,0-1.5,0-2.3c0-0.2,0-0.4,0-0.6c0-0.1,0-0.2,0-0.3
		c0.4,0,0.8,0,1.1,0c0.2,0,0.5,0,0.7,0c0.4,0,0.7,0,1.1,0c0.5,0,1.1,0,1.7,0c0.2,0,0.5,0,0.7,0c1,0,2,0.1,2.8,0.2
		c0.3,0,0.5,0,0.7,0.1c0.1,0,0.2,0,0.2,0c0.4,0,0.7,0.1,1.1,0.2c0.9,0.2,1.7,0.4,2.4,0.7c0.1,0,0.1,0,0.2,0.1
		c0.6,0.3,1.2,0.7,1.6,1.1c0.2,0.2,0.4,0.5,0.6,0.8c0,0.1,0.1,0.1,0.1,0.2c0.4,0.8,0.7,1.8,0.6,3.1C42,45.1,41.7,46.1,41.3,46.8z
		 M51.7,48.8c-0.9-0.1-1.8-0.2-2.7-0.3c0-0.9,0-1.8,0-2.6c0.9,0.1,1.8,0.2,2.7,0.3C51.7,47,51.7,47.9,51.7,48.8z"/>
</g>
</svg>
