<svg id="Layer_1" data-name="Layer 1" xmlns="http://www.w3.org/2000/svg" viewBox="0 0 221.3 45"><defs><style>.cls-1{fill:#fff}</style></defs><title>Untitled-2</title><path class="cls-1" d="M15.74 11.27a5.24 5.24 0 0 0 3.49-5v-.1a5 5 0 0 0-1.46-3.65c-1.32-1.33-3.33-2-6.18-2H0V23.1h11.67c5.4 0 8.57-2.36 8.57-6.24v-.06c0-3.07-1.75-4.62-4.5-5.53zM6.11 5.52h4.07c1.87 0 2.85.71 2.85 1.94v.06c0 1.33-1.07 2-3 2H6.11v-4zM14 16c0 1.33-1.1 2.07-3 2.07H6.11v-4.18h4.78c2.1 0 3.07.81 3.07 2V16zM29.28.48h-6.26v22.61h17.22v-5.48H29.28V.48zM53.09 0a11.86 11.86 0 0 0-12.23 11.79v.07c0 6.51 5.17 11.7 12.15 11.7a11.86 11.86 0 0 0 12.23-11.77v-.07C65.24 5.22 60.07 0 53.09 0zm5.74 11.82a5.78 5.78 0 0 1-5.77 6.05 5.87 5.87 0 0 1-5.79-6.1v-.05A5.77 5.77 0 0 1 53 5.67a5.87 5.87 0 0 1 5.81 6.1v.07zM79.61 17.82c-3.17 0-5.39-2.64-5.39-6.05v-.07c0-3.29 2.24-6 5.39-6a6.14 6.14 0 0 1 5 2.64l4.72-3.65A11.06 11.06 0 0 0 79.68 0a11.61 11.61 0 0 0-11.91 11.77v.07a11.93 11.93 0 0 0 21.71 6.6l-4.77-3.36c-1.36 1.64-2.74 2.74-5.1 2.74M125 17.82c-3.17 0-5.41-2.64-5.41-6.05v-.07c0-3.29 2.24-6 5.41-6a6.14 6.14 0 0 1 5 2.64l4.72-3.65A11.06 11.06 0 0 0 125.09 0a11.63 11.63 0 0 0-11.94 11.77v.07a12.73 12.73 0 0 0 .36 2.88 12 12 0 0 0 21.33 3.72l-4.72-3.36a6.14 6.14 0 0 1-5.1 2.74M151.87 8.94h-8.05V.48h-6.27v22.61h6.27v-8.6h8.05v8.6h6.27V.48h-6.27v8.46zM176 .31h-6l-9.63 22.78H167l1.58-4.09h8.72l1.64 4.05h6.72zm-5.62 13.87L173 7.74l2.53 6.43h-5.08zM187.99.48h6.29v22.64h-6.29zM213.61.48v11.96L204.29.48h-5.83v22.61h6.19V10.68l9.67 12.41h5.51V.48h-6.22z"/><path class="cls-1" d="M113.63.45h-7.45l-7.8 9.18V.45h-6.26v22.64h6.26v-5.86l2.3-2.53 5.69 8.39h6.27l-8.51-12.19 9.5-10.45zM191.62 33.24a1 1 0 1 1 1.91 0 1 1 0 0 1-1.91 0zm.25 2.42h1.42v9.12h-1.42v-9.12zM202.58 38.81a1.81 1.81 0 0 0-2-2.11 3.52 3.52 0 0 0-2.7 1.42v6.66h-1.42v-9.12h1.42V37a4.52 4.52 0 0 1 3.25-1.55c1.91 0 2.91 1 2.91 2.95v6.4h-1.42v-6zM207.54 36.91H206v-1.25h1.51V35c0-1.89 1.06-3 2.64-3a2.61 2.61 0 0 1 1.38.32l-.36 1.06a1.56 1.56 0 0 0-.81-.21c-.92 0-1.43.64-1.43 1.79v.7h1.85v1.25H209v7.87h-1.42v-7.87zM212.28 40.21a4.52 4.52 0 1 1 9 0 4.52 4.52 0 1 1-9 0zm7.53 0c0-1.85-1.08-3.51-3-3.51s-3 1.66-3 3.51 1.09 3.53 3 3.53 3-1.66 3-3.53z"/></svg>