<svg xmlns="http://www.w3.org/2000/svg" viewBox="0 0 350 573.63"><defs><style>.cls-1{fill:#094b7c;}.cls-2{fill:#fff;}.cls-3{fill:#10ade4;}.cls-4{fill:#153a62;}.cls-5{fill:#b2d5e5;}.cls-6{fill:#3558a8;}.cls-7{fill:#799eb2;}</style></defs><title>Asset 5</title><g id="Layer_2" data-name="Layer 2"><g id="Layer_1-2" data-name="Layer 1"><path class="cls-1" d="M59.7,264.89S44.91,118.9,165.25,5.46c0,0,11.59-12.29,22.51,0,0,0,113.51,96.29,105.61,259.42,0,0,55.82,30.25,56.31,62.86,0,0,4,63.23-15.81,119.54,0,0-13.37,40.12-49.86,6-5.15-4.81-10.29-9.63-15.71-14.14l-31.74-26.45s-57.8,56.31-121.52-1l-42,38S44.73,482.3,25.24,455.9a36.72,36.72,0,0,1-5.92-13.22C14.77,424,.43,364.47.43,354.91.43,354.91-9,302.8,59.7,264.89Z"/><path class="cls-1" d="M109.11,467v55.1a18.48,18.48,0,0,0,4.16,12.07c3.78,4.42,10.22,7.35,19.61-3.16a103.18,103.18,0,0,1,8.88-9h0a2.4,2.4,0,0,1,3.77.81L163,560.9s12.84,28.65,26.67,0l18.59-38.16a2,2,0,0,1,3.15-.61l7.4,6.67s11.61,13.43,21.15,5.75a13,13,0,0,0,4.53-10.24v-54.8s-1.48-18.77-28.16-5.43c0,0-23.09,10.47-54.2,6.61-11.43-1.42-22.34-5.37-32.65-10.5C122.63,456.8,112.32,454.2,109.11,467Z"/><path class="cls-2" d="M142.78,333.12a7.86,7.86,0,1,1-.51-11.28c.4.35,1.15,1.1,1.15,1.1l4.79-5.16a14.93,14.93,0,1,0,.38,19.45l-4.81-5.17Z"/><path class="cls-2" d="M199.52,333.12a7.86,7.86,0,1,1-.51-11.28c.4.35,1.15,1.1,1.15,1.1l4.79-5.16a14.93,14.93,0,1,0,.38,19.45l-4.81-5.17Z"/><path class="cls-2" d="M59.15,327.08a6.63,6.63,0,0,0,4.42-6.39v-.08A6.27,6.27,0,0,0,61.73,316c-1.68-1.68-4.22-2.58-7.82-2.58H39v28.65H54c6.84,0,10.85-3,10.85-7.9v-.08C64.84,330.19,62.63,328.23,59.15,327.08ZM47,319.8h5.16c2.37,0,3.6.9,3.6,2.46v.08c0,1.68-1.35,2.5-3.77,2.5H47Zm9.94,13.26c0,1.68-1.39,2.62-3.8,2.62H47V330.4H53c2.66,0,3.89,1,3.89,2.58Z"/><polygon class="cls-2" points="76.33 313.42 68.36 313.41 68.36 342.04 89.18 342.05 89.18 335.11 76.33 335.11 76.33 313.42"/><polygon class="cls-2" points="226.06 324.27 215.86 324.27 215.86 313.52 207.9 313.52 207.9 342.19 215.86 342.19 215.86 331.3 226.06 331.3 226.06 342.19 234.03 342.19 234.03 313.56 226.06 313.56 226.06 324.27"/><path class="cls-2" d="M256.4,313.35h-7.66l-12.19,28.84h8.36l2.05-5.13h11l2.08,5.13h8.51Zm-7.12,17.56,3.23-8.15,3.2,8.15Z"/><rect class="cls-2" x="271.11" y="313.56" width="7.97" height="28.66"/><polygon class="cls-2" points="303.04 313.58 303.04 328.73 291.25 313.58 283.73 313.56 283.73 342.22 291.7 342.22 291.7 326.5 303.95 342.22 311.01 342.22 311.01 313.58 303.04 313.58"/><polygon class="cls-2" points="179.59 313.49 170.15 313.49 170.15 313.49 170.15 313.49 160.28 325.1 160.28 313.49 152.32 313.49 152.32 342.15 160.28 342.15 160.28 334.73 163.19 331.52 171.25 342.15 171.25 342.15 171.25 342.15 180.69 342.15 168.39 325.81 179.59 313.49"/><path class="cls-2" d="M105.09,312.79A14.93,14.93,0,1,0,120,327.72,14.93,14.93,0,0,0,105.09,312.79Zm0,22.79a7.86,7.86,0,1,1,7.86-7.86A7.86,7.86,0,0,1,105.09,335.58Z"/><path class="cls-3" d="M163.55,216.45,145.1,234.9l23.16,23.16a9.54,9.54,0,0,0,13.49,0L204.9,234.9l-18.46-18.46L175,205Z"/><path class="cls-4" d="M145.1,198,133.39,209.7a9.54,9.54,0,0,0,0,13.49L145.1,234.9l18.46-18.46L175,205l-18.46-18.46Z"/><path class="cls-5" d="M193.46,223.46,204.9,234.9l11.71-11.71a9.54,9.54,0,0,0,0-13.49l-4.7-4.7Z"/><polygon class="cls-5" points="186.45 216.45 186.45 216.45 175 205 193.46 186.55 193.46 186.55 175 205 186.45 216.45"/><polygon class="cls-6" points="175 205 186.45 216.45 193.46 223.46 211.91 205 204.9 197.99 193.46 186.55 175 205"/><path class="cls-7" d="M193.46,186.55l-11.71-11.71a9.54,9.54,0,0,0-13.49,0l-11.71,11.71L175,205Z"/></g></g></svg>