<?xml version="1.0" encoding="utf-8"?>
<!-- Generator: Adobe Illustrator 19.2.1, SVG Export Plug-In . SVG Version: 6.00 Build 0)  -->
<svg version="1.1" id="Layer_1" xmlns="http://www.w3.org/2000/svg" xmlns:xlink="http://www.w3.org/1999/xlink" x="0px" y="0px"
	 viewBox="0 0 64.7 88.8" style="enable-background:new 0 0 64.7 88.8;" xml:space="preserve">
<style type="text/css">
	.st0{fill:none;stroke:#000000;stroke-width:3;stroke-linecap:round;stroke-linejoin:round;stroke-miterlimit:10;}
	.st1{fill:none;stroke:#000000;stroke-width:3;stroke-linecap:round;stroke-miterlimit:10;}
	.st2{fill:none;stroke:#000000;stroke-width:4;stroke-linecap:round;stroke-miterlimit:10;}
</style>
<g>
	<path class="st0" d="M48.7,8.9c-0.8-0.9-2.1-1.5-3.4-1.5h-4.5c-1.3-3.4-4.6-5.9-8.5-5.9S25.1,4,23.8,7.4h-4.5
		c-2.6,0-4.6,2.1-4.6,4.6v5.4c0,2.6,2.1,4.6,4.6,4.6h26c2.6,0,4.6-2.1,4.6-4.6v-3.6h0.2h9.3c2.1,0,3.7,1.7,3.7,3.7v66
		c0,2.1-1.7,3.7-3.7,3.7H5.2c-2.1,0-3.7-1.7-3.7-3.7v-66c0-2.1,1.7-3.7,3.7-3.7H8"/>
	<path class="st1" d="M53.6,17.4c2.2,0,4,1.8,4,4v54.5c0,2.2-1.8,4-4,4H11.1c-2.2,0-4-1.8-4-4V21.4c0-2.2,1.8-4,4-4"/>
	<line class="st2" x1="15.5" y1="34.3" x2="49.2" y2="34.3"/>
	<line class="st2" x1="15.5" y1="43.8" x2="49.2" y2="43.8"/>
	<line class="st2" x1="15.5" y1="53.2" x2="49.2" y2="53.2"/>
	<line class="st2" x1="15.5" y1="62.7" x2="49.2" y2="62.7"/>
</g>
</svg>
