<?xml version="1.0" encoding="UTF-8" standalone="no"?>
<svg width="24px" height="25px" viewBox="0 0 24 25" version="1.1" xmlns="http://www.w3.org/2000/svg" xmlns:xlink="http://www.w3.org/1999/xlink">
    <!-- Generator: sketchtool 41.2 (35397) - http://www.bohemiancoding.com/sketch -->
    <title>57EC4C0D-6DF3-46C5-A5C7-4B74BAD4A8E3</title>
    <desc>Created with sketchtool.</desc>
    <defs>
        <polygon id="path-1" points="23.8525091 24.7118468 23.8525091 0.151866359 4.36363644e-05 0.151866359 4.36363644e-05 24.7118468"></polygon>
    </defs>
    <g id="Web" stroke="none" stroke-width="1" fill="none" fill-rule="evenodd">
        <g id="TX" transform="translate(-1074.000000, -193.000000)">
            <g id="export" transform="translate(1074.000000, 193.000000)">
                <polygon id="Fill-1" fill="#565459" points="11.9208436 6.38593548 10.8185891 7.52133871 7.25611636 11.1890461 8.36448 12.329841 11.1410618 9.4708894 11.1410618 19.0784585 12.7119709 19.0784585 12.7119709 9.4708894 15.4885527 12.329841 16.59648 11.1890461 11.92608 6.38054378"></polygon>
                <g id="Group-4" transform="translate(0.000000, 0.297577)">
                    <mask id="mask-2" fill="white">
                        <use xlink:href="#path-1"></use>
                    </mask>
                    <g id="Clip-3"></g>
                    <path d="M11.9262982,23.2412592 C6.12833455,23.2412592 1.42826182,18.4017546 1.42826182,12.4317892 C1.42826182,6.46182373 6.12833455,1.62231912 11.9262982,1.62231912 C17.7242618,1.62231912 22.4243345,6.46182373 22.4243345,12.4317892 C22.4243345,18.4017546 17.7242618,23.2412592 11.9262982,23.2412592 M11.9262982,0.151731567 C5.33982545,0.151731567 4.36363644e-05,5.64992281 4.36363644e-05,12.4317892 C4.36363644e-05,19.2141048 5.33982545,24.7118468 11.9262982,24.7118468 C18.5132073,24.7118468 23.8525527,19.2141048 23.8525527,12.4317892 C23.8525527,5.64992281 18.5132073,0.151731567 11.9262982,0.151731567" id="Fill-2" fill="#565459" mask="url(#mask-2)"></path>
                </g>
            </g>
        </g>
    </g>
</svg>