<?xml version="1.0" encoding="utf-8"?>
<!-- Generator: Adobe Illustrator 19.2.1, SVG Export Plug-In . SVG Version: 6.00 Build 0)  -->
<svg version="1.1" id="svg2" xmlns:svg="http://www.w3.org/2000/svg"
	 xmlns="http://www.w3.org/2000/svg" xmlns:xlink="http://www.w3.org/1999/xlink" x="0px" y="0px" viewBox="0 0 1672 235.6"
	 style="enable-background:new 0 0 1672 235.6;" xml:space="preserve">
<path id="path6" d="M98.1,0c-1.6,0.1-3.1,0.5-4.6,1.4c6.1,1.2,13.2,2,17.1,7.6c1.9,2.1,1.3,5.2-0.6,7c-3.7,4.4-9.9,5.7-15.3,4.3
	c-18.2-4.3-35.4-12.6-54-14.8C30.7,4.2,20.9,9.1,14,16c-6.4,6.4-8.7,16.1-7.4,24.9C8,47.8,13.1,55,20.5,56
	c-4.4-4.8-5.2-13.1-0.7-18.1c2.6-3.2,7.2-3.6,11-3c14.5,2.7,28.6,7,43,10c8.1,2.2,16.1,4.8,24.3,6.3c0.2,9.9,0.2,19.7,0,29.6
	c-5.3,4-10.4,8.3-15.6,12.4c5.1,3.8,10.3,7.4,15.6,10.9c0.3,14-0.1,27.9,0.2,41.9c-8.6,6.6-20.1,7.7-30.6,6.5
	c-11.1-0.6-21-7.2-28.3-15.3c12.2-6.5,24.7-12.7,37.2-18.6c0.4-22,0.1-44,0.2-66.1C61.1,59.1,45.7,66,30.1,72.6
	c4.5-11.5,13.7-20.8,24.6-26.4c-2.8,0.2-5.8,0-8.5,1.2C25.7,55.5,8.9,72.9,2.6,94c-4.2,13.4-2.9,28.1,1.7,41.3
	c5.7,14.6,16.2,27.6,30.2,35c7.8,4.1,16.3,7.9,25.3,8c18.6,1.6,38.2-5.5,50.8-19.5c5.5-5.9,8.3-13.6,11-21
	c2.5-7.3,3.7-15.1,3.4-22.8c-6,12-14.1,23.2-25,31.1c0.1-13.9,0-27.8,0-41.7c4.8-3.6,9.5-7.3,14.2-11.1c-4.7-4.2-9.4-8.4-14.2-12.6
	c0-9.8,0-19.6,0-29.3c10.7-0.6,22.9-6.2,25.8-17.4c2-7.3,3-15.9-1.4-22.5c-4.1-4.7-9.4-8.7-15.7-9.9C105.2,1.2,101.5-0.2,98.1,0z
	 M48.2,67.1c0,21.2,0.1,42.4-0.1,63.6c-3.5,1.4-7,2.9-10.5,4.4c-6.4-9.3-10.4-20.2-12.3-31.3c-0.5-9.4,1.2-18.9,4.5-27.7
	C36.1,73.2,42.1,70.1,48.2,67.1z"/>
<path id="path8" d="M1269.7,0c-1.7-0.1-3.4,0.3-5,1.4c3.6,0.8,7.4,1.2,10.8,2.9c3,1.4,5,4.4,6,7.5c0.6,3.3-1.9,6.4-4.8,7.7
	c-5.2,2.4-11.2,1.3-16.5-0.1c-12.8-3.9-25.3-9-38.3-12.1c-6.7-1.4-13.7-2.8-20.5-1c-7.4,2.1-14.8,5.6-19.2,12.1
	c-5.6,7.2-6.3,17.2-3.6,25.7c2.2,5.7,6.8,11.2,13.2,12c-2.1-2.7-5.7-5.4-4.7-9.3c0.6-3.8,2.2-7.7,5.2-10.2c3.1-2.3,7.2-2.3,10.8-1.2
	c13,2.4,25.7,6.1,38.6,9.1c8.7,1.9,17.1,5.1,25.9,6.7c0.2,9.8,0,19.7,0.1,29.5c-4.7,4.2-9.4,8.3-14.1,12.6
	c4.7,3.6,9.3,7.3,14.1,10.9c0.1,14,0,28,0.1,42c-8.3,6.2-19.1,7.7-29.1,6.3c-11.1-0.7-20.8-7.3-28.1-15.2c3-2.1,6.5-3.4,9.7-5.2
	c9.1-4.5,18.2-9.2,27.4-13.5c0.3-22,0-44.1,0.1-66.1c-15.5,6.6-30.9,13.5-46.5,20c3.6-8.5,9.2-16.2,16.9-21.4c2.3-2.1,4.6-4.3,7.8-5
	c-3.1,0.2-6.4,0.1-9.2,1.6c-22,8.9-40.7,28.2-44.8,52.1c-1.6,12.1-0.4,24.6,3.8,36.1c5.4,13.4,14.9,25.4,27.3,33
	c5.9,3.6,12.3,6.5,19,8.5c15.9,2.6,33,0.4,46.9-8.1c9.2-6.4,17.7-14.7,21.6-25.5c4.1-9.1,5.8-19.1,6-29.1c-1.9,2.5-3,5.5-4.7,8.2
	c-5.3,8.9-12.1,16.9-20.5,23.1c0.1-13.9-0.1-27.9,0.1-41.8c4.7-3.4,9.2-7.2,13.9-10.6c-4.4-4.5-9.3-8.5-14-12.7
	c-0.1-9.8,0.1-19.6-0.1-29.4c9.2-0.6,18.4-4.7,23.3-12.7c5.1-8.2,5.1-19.5,0.2-27.8c-3.9-5.1-10-8.4-16.3-9.4
	C1275.5,1.3,1272.5,0.1,1269.7,0L1269.7,0z M1219.5,67.1c0.1,21.2,0,42.3,0,63.5c-3.6,1.5-7.2,3.1-10.8,4.6
	c-5.2-7.3-9.3-15.6-11.4-24.4c-2.3-11.5-1.7-24,3.7-34.6C1207.2,73.3,1213.3,70.2,1219.5,67.1L1219.5,67.1z"/>
<path id="path10" d="M475.7,7.1c6,10.4,2.2,24.6-6.7,32.1c-5.5,3.6-11.9,5.6-18.1,7.6c0.1,42.7,0,85.4,0,128.1
	c0.4,1.9-1.4,3.5-3.2,2.7c-3.6-0.2-4.6-4-6.1-6.6c-22.3-41.1-44.4-82.3-67-123.3c-0.4,30.2,0,60.3-0.2,90.5c10.6,2,21,7.1,28,15.6
	c3.2-2.5,5.3-6.9,9.5-7.9c-1,1.9-2.6,3.5-4,5.1c-8,8.9-16.1,17.9-24.1,26.8c-3.7-4.7-8.7-9.2-14.9-9.8c-4.1-0.2-8.8,0.1-11.8,3.3
	c-3.4,3.1-5.7,8.2-3.3,12.6c2.9,6.3,10.1,8,16.2,9.5c-7.6,1.5-16.1,0.6-22.2-4.5c-4.9-4.2-9.3-9.5-10.6-15.9
	c-1.7-8.9,1-18.8,7.6-25.1c7.3-7.2,17.9-9.9,27.9-9.3c0.3-13.1,0.1-26.3,0.1-39.4c-4.9-0.8-11.5-0.1-13.7,5
	c-1.3,4.1,1.8,7.6,4.8,9.8c-3.8-0.7-8-1.4-10.7-4.3c-3.2-4-5.7-8.7-6.6-13.7c-0.9-6.5,0.8-13.9,6.2-18.1c5.7-4.4,13.2-5,20.1-4.8
	c0-9.3,0-18.5,0-27.8c-2.5-3.8-4.9-8.1-9.2-10c-2.8-1.2-6.5-1.6-8.9,0.6c-3.4,2.8-4.2,7.4-5.5,11.3c-1.3-9.7-0.3-20.7,6.5-28.3
	c8.2-10.6,25.5-11,34.5-1.2c3.9,4,6.5,8.9,9.2,13.8c16.6,29.6,32.9,59.3,49.6,88.8c0.1-24.4,0.1-48.9,0-73.3c-2.9-1.1-6.1-1.1-9-2.1
	c-5.5-1.4-10-5-14-8.8c-2.5,3-5.1,5.9-7.4,9c-0.5-0.3-1.6-0.9-2.2-1.2C424.8,32.9,434,22.5,443,12c4.7,4.9,10.8,9,17.8,9.4
	C468.1,20.6,475.2,14.7,475.7,7.1L475.7,7.1z"/>
<path id="path12" d="M1034,30.7c12-7.8,24-15.7,36-23.5c0.1,46.1-0.1,92.3,0.1,138.4c2.6,3.5,6.2,6.4,9.3,9.6c2-2.1,4-4.1,6.1-6.2
	c0.5,0.5,1.4,1.4,1.9,1.9c-9.6,8.3-18.9,17-28.6,25.2c-6.1-6.2-12.4-12.3-18.4-18.6c-2.7,2.4-5.2,5.1-7.7,7.6
	c-0.5-0.4-1.6-1.2-2.1-1.6c4.6-4.4,9.6-8.4,14.2-12.8c0-35,0-69.9,0-104.9C1044.6,39.4,1041.3,31.5,1034,30.7z"/>
<path id="path14" d="M137.9,32.1c10.3-7.7,20.5-15.7,30.8-23.4c0.1,25.4,0,50.8,0,76.3c8.8-7.2,17.6-14.3,26.2-21.7
	c6.9,7.2,13.4,14.9,20.6,21.9c3-2.2,6.1-4.2,9.3-6.2c-0.6,4-5.4,5.4-7.9,8.2c0,13.9,0,27.8,0,41.7c0.2,10.4-1.3,20.7-1.6,31.1
	c-0.5,11.3-4.8,22.8-13.6,30.2c-7.1,6.4-16.9,8.7-26.2,9.4c-0.2,0.2-0.5,0.7-0.7,0.9l0.2-0.8c-3.2,0-6.4-0.1-9.6-0.4
	c4-2.1,8.6-3.4,11.7-6.9c3.6-4.1,7.9-7.9,9.7-13.2c2.9-8.1,3-16.8,3.3-25.3c-0.1-19.1,0.1-38.1-0.1-57.1
	c-4.2-5.5-9.3-10.4-13.8-15.8c-2.5,2.6-5.4,4.8-7.5,7.8c-0.2,19.7,0,39.3-0.1,59c2.6,2.5,5.1,5.1,7.7,7.6c2.1-2.1,4.1-4.1,6.2-6.2
	c0.5,0.4,1.4,1.4,1.8,1.8c-10,7.8-19.9,15.8-29.9,23.6c-6.3-5.6-12.5-11.4-18.7-17.1c-2.1,1.6-4.2,3.1-6.3,4.7
	c-0.4-0.5-1.3-1.4-1.8-1.9c4.8-3.1,9.5-6.3,14.3-9.5c0-35,0-69.9,0-104.9c-0.1-2.7,0-5.5-1.4-7.9c-0.9-1.8-3-2.4-4.6-3.5
	C135.7,33.3,137.3,32.8,137.9,32.1L137.9,32.1z"/>
<path id="path16" d="M826.7,13.5c-9.4,7.6-18.6,15.5-27.9,23.2c-0.1-7.3,0.1-14.5-0.1-21.8c-1.4-0.1-2.1,0.6-1.9,2
	c0,51.5,0,102.9,0,154.4c-5.1-1-10.2-2-15.2-3.1c-0.1-43.4,0-86.8,0-130.2c-0.1-5.5-1.9-11-5.5-15.2c-4.5-5.3-11.5-7.8-18.3-8.3
	c-8.1-0.2-15.4,4-21.1,9.5c-5.2,4.9-7.9,12.5-6.5,19.6c0.6-4.4,2.1-9.3,6.1-11.7c4.4-1.9,10.3-0.4,12.9,3.8
	c2.3,3.3,2.5,7.5,2.6,11.4c0,11.7,0,23.5,0,35.2c-7.7,0.1-16.9,1.4-21.4,8.5c-4.5,5.6-5.9,13.6-2.8,20.2c2,6.5,8.8,9.9,15.1,10.9
	c-3.5-2.3-7.1-6.3-5-10.8c2.8-4.5,9.2-5.2,13.9-3.8c0.2,20.8,0.1,41.6,0.1,62.5c-7.1,2.5-14,6.8-17.8,13.5
	c-2.8,4.8-2.8,10.5-2.6,15.8c0.8,9.4,7,17.9,15.3,22.2c6.3,2.9,13.4,3,20.2,2.8c19.3-1.1,37.6-8.8,57-9.4c5.8-0.4,9.1,5.9,7.6,10.9
	c-1.1,4.5-4.9,7.6-8.5,10.2c6.8-1.4,13.6-4,18.9-8.6c6-5.1,8.7-13.2,8.3-20.9c-0.5-7.6-6.6-13.3-13-16.5c-8.4-4.9-18.5-3.8-27.8-2.8
	c-17.3,2-34.2,7.5-51.8,8c-5.9,0.4-11.5-3.8-12.7-9.6c-1.3-5.6,3.2-10.5,7.8-12.9c10-4.7,21.5-3,31.9-0.8
	c12.1,1.3,23.4,6.2,35.5,7.4c6.9,0.8,14.1-0.5,19.8-4.7c5.8-3.6,8.4-10.6,8.6-17.1c0.1-41-0.1-81.9,0.1-122.9
	c3.7-3.2,7.9-6.2,11.1-9.9c-4.6,1.1-7.4,5.4-11.2,8C841.2,26,834,19.7,826.7,13.5L826.7,13.5z M806.2,34.2
	c4.2,3.6,8.3,7.3,12.5,10.9c0,12.9,0,25.8,0,38.7c-2,2-4.2,4-7.1,4.4c-4.7,1-9.4-1.3-12.9-4.3c0-15.1,0-30.1,0-45.2
	C801.3,37.3,803.7,35.8,806.2,34.2L806.2,34.2z M798.8,87.5c6.1,3.1,14,4.1,20,0c0,5.8,0,11.7,0,17.6c-2.4-2.4-5.5-4.2-9-4.2
	c-4.1-0.1-7.8,1.8-11,4.2C798.8,99.3,798.7,93.4,798.8,87.5L798.8,87.5z M809.7,102.7c4,0.1,7,3.1,9,6.2c0,16.3,0,32.7,0,49
	c0.3,5-3.1,9.3-6.9,12.2c-3.6,2.9-8.6,3-13,2.8c-0.2-21.3,0-42.7-0.1-64C801.6,105.7,805.2,102.7,809.7,102.7z"/>
<path id="path18" d="M1302,40.1c6.5-5.7,12.6-11.8,19.2-17.3c5.6,5.9,11.5,11.5,17.2,17.4c-6.8,6.4-13.7,12.7-20.6,19
	C1312.6,52.8,1307.2,46.6,1302,40.1L1302,40.1z"/>
<path id="path22" d="M554.1,46.2c4-2.8,9.2-2.6,13.8-3.2c-3.5,2.8-7.5,6-7.9,10.8c-0.8,4.3,1.9,8.2,5.1,10.8
	c5.8,4.6,13.2,7.2,17.9,13.1c2.3,2.9,3.6,6.5,3.5,10.2c0,19.4,0,38.8,0,58.2c5.2,4.2,10.3,8.3,15.5,12.5c1.5-1,3-1.9,4.5-2.9
	c-0.1-21.2,0.1-42.3-0.1-63.5c-2.7-3.1-6.3-5.4-9.3-8.2c7.4-6.8,14.7-13.9,22.3-20.6c6.6,6.5,13.5,12.6,20.3,18.9
	c-2.6,2.7-5.2,5.4-7.9,7.9c0,18.6,0,37.2,0,55.8c6.8,5.2,13.5,10.5,20.3,15.6c1-0.6,1.9-1.1,2.9-1.7c-0.1-22.7,0-45.4-0.1-68.2
	c-3.1-2.7-6.4-5.2-9.5-7.9c7.3-6.9,14.7-13.7,22-20.5c7.3,5.7,14.6,11.4,21.9,17.2c2.5-2.8,5.1-5.5,8-8c0.4,0.5,1.1,1.6,1.5,2.1
	c-6.2,5.5-12.4,11.2-18.4,16.9c-0.5,18.1,0,36.3-0.2,54.4c-15.8,10.4-32.4,19.9-48.4,30c-8.5-6.1-16.7-12.5-25.1-18.7
	c-7.5,6-15,12.1-22.6,18c-1.1,1.2-2.2-0.6-3.1-1.1c-7.1-5.7-14.1-11.4-21.2-16.9c-3,2.6-6.2,5.1-9.2,7.7c-0.5-0.5-1.4-1.4-1.9-1.8
	c3.7-2.5,7.3-5.2,10.9-7.8c0-17.6,0-35.1,0-52.7c0-4.7-1.7-9.5-4.9-12.9c-3.5-3.8-8.3-6.5-11.1-11c-3.1-5.2-3.4-11.7-2.2-17.5
	C543.3,54.8,548.6,49.8,554.1,46.2L554.1,46.2z"/>
<path id="path24" d="M1667.1,58.8c0.7,1.8,0.9,3.9,0,5.7c-2.2,5.1-8.2,7-13.3,6.9c-5.4-0.5-9.5-4.3-13.2-8
	c-6.1,4.1-12.1,8.1-18.2,12.2c-7,4.7-14.7,8.2-22.4,11.4c0,9.9,0,19.9,0,29.8c5.7,4.7,11.5,9.2,17,14.1c-4.2,4.5-8.4,9.1-12.4,13.8
	c-4.1,5-8,10.7-8.2,17.4c-0.2,7.6,3,15.8,9.7,19.8c3,1.7,6.6,3.3,10,1.9c-4.3-1.5-9.5-4.6-9.2-9.8c1.2-4.9,7.1-8.2,11.9-6.8
	c5.1,1.4,9.2,5,12.5,9.1c13-9.3,26.6-17.7,40.8-25.1c-0.1-12.6,0.2-25.2-0.1-37.8c-6.3-4.4-12.2-9.2-18.5-13.7
	c6.6-8.3,13.2-17.1,15.9-27.5C1670.3,67.6,1670.7,62.1,1667.1,58.8L1667.1,58.8z M1625.3,77.7c4.2,6,9.8,11.9,17.4,13.2
	c7.6,1.8,15-2.3,20-7.8c-6.8,12.6-17.4,22.8-28.4,31.8c-3-3.1-6.1-6.1-9.1-9.2C1625.3,96.3,1625.2,87,1625.3,77.7L1625.3,77.7z
	 M1636,115.4c3.3,2.8,6.5,5.6,9.8,8.3c1.5,0.9,0.8,2.8,1,4.2c-0.1,10.8,0.1,21.7-0.1,32.5c-2.4-5.5-6.1-10.7-11.3-14
	c-7.5-4.9-17.8-5.2-25.5-0.4c-3.5,1.9-6.3,4.8-9,7.8c3.8-7.4,9.9-13.2,15.7-19.1C1623.2,128.4,1629.7,122,1636,115.4z"/>
<path id="path26" d="M285.6,63.4c-8.6,5-17,10.5-25.4,15.7c-7.2,3.7-14.5,7.3-21.7,10.9c0,20.2,0,40.5,0.1,60.8
	c-3.1,2.4-6.7,4.1-9.5,6.9c0.5,0.3,1.6,1,2.1,1.3c2.4-2.1,4.8-4.2,7.5-6c8.9,7.4,17.4,15.5,26.3,23c0.4-0.2,1.3-0.7,1.8-0.9
	c15.1-11.7,30.4-23.3,45.5-35l-1.9-1.7c-8.4,6.6-16.6,13.5-25,20.1c-6.9-6.2-13.6-12.6-20.4-18.9c-2.3-1.7-1-5-1.2-7.4
	c14.1-10.3,28.2-20.7,42.1-31.3C299.1,88.5,292.3,75.9,285.6,63.4z M263.8,78.3c7.1,11.7,14.3,23.4,21.4,35.2
	c-7.2,5.1-14.3,10.2-21.4,15.3C263.7,112,263.7,95.1,263.8,78.3L263.8,78.3z"/>
<path id="path28" d="M519.5,63.4c-6.1,4-12.2,8-18.4,11.8c-9.1,5.7-19,10-28.5,14.9c0,20.2-0.1,40.5,0,60.7c-2.9,2.2-6.2,3.9-9,6.2
	c0.3,0.5,0.9,1.6,1.2,2.1c3.2-2.1,6.3-4.3,9.6-6.3c8.2,7.8,16.5,15.5,24.8,23.3c15.4-11.5,30.6-23.3,45.8-35c2-0.4,0.4-3.6-0.9-2.4
	c-8.3,6.4-16.3,13.2-24.5,19.8c-6.4-6.3-12.8-12.7-19.1-19.1c-2.1-1.8-0.8-4.8-1-7.2c13.6-10.1,26.7-20.7,40.4-30.8
	C533.5,88.5,526.1,76.1,519.5,63.4z M499.2,78.7c7,11.4,13.4,23.2,19.9,34.9c-6.7,4.9-13.1,10.1-19.7,15
	C499.1,112,499.4,95.4,499.2,78.7z"/>
<path id="path30" d="M913.9,63.4c-6.7,3.9-13.3,7.9-19.8,12.1c-7.6,4.6-15.9,7.9-24,11.6c0.2,21.2,0.1,42.5,0.1,63.7
	c-2.7,2.7-5.4,5.4-8.1,8.1c0.5,0,1.7-0.1,2.2-0.1c1.9-2.1,3.9-4.1,5.9-6.1c9.1,7.4,18,15,27.1,22.6c1.5,1.4,3.2-0.7,4.6-1.2
	c14.5-7.9,28.2-17.3,43.2-24.4c0.2-19.8,0.1-39.6,0.1-59.4c2.7-2.7,5.4-5.4,8.1-8.2c-0.5,0-1.6,0.1-2.1,0.1
	c-2.5,2.1-5.1,4.1-7.6,6.1C933.7,80,923.8,71.7,913.9,63.4L913.9,63.4z M897,78.1c7.1,6.7,14.4,13.3,21.5,20.1
	c-0.1,21.1,0,42.1,0,63.2c-7.3-6.4-14.3-13.2-21.5-19.8L897,78.1L897,78.1z"/>
<path id="path32" d="M1071.2,110.6c10.3-15.8,20.8-31.5,31.4-47.1c4.5,3.9,10.2,6.3,16.2,6.9c5.8,0,10.8-3.5,15.2-6.9
	c-1.1,8.5-3.9,17.4-10.5,23.3c-5.7,5.2-14.4,6.5-21.6,3.9c-4.2-1.4-8.2-3.7-11.7-6.5c-0.6,1.5-1.1,3-1.5,4.5
	c14.6,22,29,44.2,43.3,66.4c3.3-2.1,6.2-4.8,9.1-7.5c0.6,0.4,1.7,1.1,2.3,1.4c-10.3,9.2-21,18.1-31.6,27
	C1098.3,154.3,1085,132.3,1071.2,110.6L1071.2,110.6z"/>
<path id="path34" d="M1565.8,63.4c-6.4,3.9-12.7,7.7-19,11.7c-8.7,6-18.7,9.8-27.9,14.9c0.1,20.2,0,40.5,0,60.7
	c-3.2,2.1-6.3,4.2-9.5,6.3c0.4,0.5,1.2,1.5,1.7,2c2.7-2,5.2-4.4,8.2-6.2c8.2,7.7,16.9,14.9,25.2,22.5c0.8,1.3,2,0,2.8-0.6
	c15.1-11.6,30.2-23.2,45.3-34.8c-1.8-3.1-3.8-0.1-5.6,1.2c-7.1,5.8-14.2,11.5-21.3,17.3c-7.3-6.6-14.3-13.5-21.7-20
	c-0.1-2.1-0.1-4.2,0-6.2c14.2-10.2,28.1-20.7,42.2-31.2C1579.5,88.5,1572.7,75.9,1565.8,63.4L1565.8,63.4z M1544,78.7
	c7.7,11.3,14.4,23.3,21.6,34.9c-7.3,5-14.4,10.3-21.6,15.3C1544.1,112.1,1544,95.4,1544,78.7L1544,78.7z"/>
<path id="path36" d="M982.3,65.1c5.7,5.2,10.5,11.3,15.8,17c5.8-5.5,11.4-11.2,17-17c4.1,2.6,8.3,6.2,13.5,5.2
	c3.7-0.2,5.6-3.8,8.7-5.3c0,7.7-1.8,15.7-6.8,21.6c-5.8,6.9-16.8,9-24.5,4.2c-3-1.4-5-4.2-7.7-5.9c0.1,20.9,0,41.8,0,62.7
	c4.1,3.2,8.2,6.3,12.5,9.4c3.1-2,5.4-5.7,9.3-6.1c-9.1,8.7-18.7,17-28.2,25.3c-7.2-6.8-14.5-13.3-21.6-20.2
	c-2.8,2.5-5.3,5.2-7.9,7.8c-0.4-0.5-1.3-1.5-1.7-1.9c3.5-3.9,7.3-7.3,10.9-11.1c-0.1-17.9,0.1-35.8-0.1-53.7
	c-1.9-4.5-5.2-8.4-7.6-12.8c-3.3,1.9-5.7,5.9-9.7,6.1C963.4,81.7,973.1,73.7,982.3,65.1L982.3,65.1z"/>
<path id="path38" d="M1353.3,87.4c8.5-7.4,16.8-15.1,25.4-22.5c6.1,6.8,12.5,13.3,18.5,20.2c9-6.5,17.7-13.6,26.7-20.2
	c6.3,6.7,12.4,13.6,18.8,20.2c8.9-6.7,17.6-13.6,26.6-20.2c6.1,6.8,12.4,13.4,18.6,20.2c3.8-2.4,7.2-5.3,11.1-7.6
	c0.3,2.2-1.8,3.3-3.2,4.5c-2.1,1.7-4.1,3.4-6.1,5.1c-0.2,18.6,0,37.2-0.1,55.9c3.6,3.7,7.2,7.3,10.9,10.8c1.9-2,3.9-4,5.8-6.1
	c0.6,0.4,1.7,1.1,2.3,1.4c-9.3,9.2-18.9,18.1-28.5,27c-6.8-8-13.8-15.7-20.4-23.8c1.6-1.5,3.2-3,4.7-4.5c0-16.1,0-32.1,0-48.2
	c-5.1-5.7-10.2-11.4-15.4-16.9c-1.5,1.6-3,3.1-4.5,4.7c0,20.1,0.1,40.2-0.1,60.2c2.5,2.8,5.4,5.4,7.9,8.2
	c-6.9,6.1-13.6,12.6-20.4,18.7c-6.4-6.8-12.7-13.6-18.9-20.5c1.8-2.2,5.3-3.8,4.8-7.1c-0.1-15.7,0.1-31.3-0.1-47
	c-4.3-6-9.1-11.7-14-17.2c-1.4,1.5-2.9,3.1-4.4,4.6c0,19.4-0.1,38.9,0.1,58.4c2.1,3.6,5.2,6.5,7.8,9.7c-6.7,7.1-13.6,13.9-20.6,20.7
	c-6.7-8-13.6-15.7-20.3-23.6c2.1-1.6,4.2-3.2,6.3-4.9c-0.1-16.4-0.1-32.9,0-49.3c-3.9-4.9-8.3-9.4-12.4-14.2
	c-2.9,2.2-5.5,4.9-8.9,6.5C1350.9,89.1,1352.4,88.4,1353.3,87.4z"/>
<path id="path40" d="M1294.1,88.7c8.8-8.1,17.9-15.8,26.8-23.8c6.3,7.2,12.5,14.6,18.8,21.8c3.3-2.6,6.2-5.6,9.8-7.7
	c-0.3,1.2-0.6,2.3-1.7,3c-2.7,2.2-5.4,4.5-8.1,6.7c0,18.7-0.1,37.3,0.1,55.9c3.6,4,7.2,8,10.6,12.2c2.8-1.7,5.1-4,7.7-5.9
	c0.6,0.3,1.7,0.9,2.2,1.2c-8.8,8.2-17.9,16.1-27.1,23.9c-6.1-7.3-12.3-14.5-18.6-21.7c-2.7,2.5-5,5.4-7.9,7.6
	c-0.4-0.4-1.3-1.2-1.7-1.6c2.6-2.5,5.1-5.2,7.8-7.6c0.2-16.9,0-33.9,0.1-50.8c-0.2-2.4,0.6-5.2-1.2-7c-3.3-4.1-6.3-8.3-9.7-12.2
	C1299.4,84.8,1297,87,1294.1,88.7L1294.1,88.7z"/>
</svg>
