<?xml version="1.0" encoding="utf-8"?>
<!-- Generator: Adobe Illustrator 19.2.1, SVG Export Plug-In . SVG Version: 6.00 Build 0)  -->
<svg version="1.1" id="Layer_1" xmlns="http://www.w3.org/2000/svg" xmlns:xlink="http://www.w3.org/1999/xlink" x="0px" y="0px"
	 viewBox="0 0 343.9 403.3" style="enable-background:new 0 0 343.9 403.3;" xml:space="preserve">
<style type="text/css">
	.st0{display:none;}
	.st1{display:inline;}
	.st2{fill:#B2B2B4;}
	.st3{fill:#FFFFFF;}
</style>
<g id="max_width__x2F__height" class="st0">
	<path class="st1" d="M421.4-47.3v498h-498v-498H421.4 M422.4-48.3h-500v500h500V-48.3L422.4-48.3z"/>
</g>
<g id="androd">
	<path class="st2" d="M223.7,35l20.2-29.3c1.2-1.7,0.9-4-0.7-5.1s-3.8-0.5-5,1.2l-21,30.4c-13.8-5.4-29.1-8.5-45.3-8.5
		c-16.2,0-31.5,3-45.3,8.5L105.7,1.8c-1.2-1.7-3.4-2.3-5-1.2S98.8,4,100,5.7L120.2,35c-32.1,14.9-54.5,43.3-57.4,76.3h218.3
		C278.3,78.3,255.8,49.9,223.7,35"/>
	<path class="st3" d="M126.4,81.1c-6.8,0-12.3-5.7-12.1-12.5c0.2-6.2,5.4-11.4,11.6-11.6c6.9-0.3,12.6,5.2,12.6,12.1
		C138.4,75.7,133,81.1,126.4,81.1"/>
	<path class="st3" d="M217.6,81.1c-6.8,0-12.3-5.7-12.1-12.6c0.2-6.2,5.4-11.4,11.6-11.6c6.9-0.2,12.5,5.3,12.5,12.1
		C229.6,75.7,224.2,81.1,217.6,81.1"/>
	<path class="st2" d="M48.8,249.3c0,13.5-10.9,24.4-24.4,24.4l0,0C11,273.7,0,262.8,0,249.3v-98.5c0-13.4,10.9-24.4,24.4-24.4l0,0
		c13.5,0,24.4,10.9,24.4,24.4V249.3z"/>
	<path class="st2" d="M62.8,127.2v177.9c0,10.6,8.6,19.1,19.1,19.1h22.6v54.7c0,13.5,10.9,24.4,24.4,24.4s24.4-10.9,24.4-24.4v-54.7
		h37.4v54.7c0,13.5,10.9,24.4,24.4,24.4s24.4-10.9,24.4-24.4v-54.7h22.6c10.6,0,19.1-8.6,19.1-19.1V127.2H62.8z"/>
	<path class="st2" d="M295.1,249.3c0,13.5,10.9,24.4,24.4,24.4l0,0c13.5,0,24.4-10.9,24.4-24.4v-98.5c0-13.4-10.9-24.4-24.4-24.4
		l0,0c-13.5,0-24.4,10.9-24.4,24.4V249.3z"/>
</g>
</svg>
