<?xml version="1.0" encoding="utf-8"?>
<!-- Generator: Adobe Illustrator 19.2.1, SVG Export Plug-In . SVG Version: 6.00 Build 0)  -->
<svg version="1.1" id="Capa_1" xmlns="http://www.w3.org/2000/svg" xmlns:xlink="http://www.w3.org/1999/xlink" x="0px" y="0px"
	 viewBox="0 0 397.7 475.1" style="enable-background:new 0 0 397.7 475.1;" xml:space="preserve">
<style type="text/css">
	.st0{fill:#B2B2B4;}
</style>
<g>
	<g>
		<path class="st0" d="M352.5,310.9c-13.1-18.8-19.7-40.1-19.7-63.7c0-21.5,6.2-41.2,18.6-59.1c6.7-9.7,17.5-20.9,32.6-33.7
			c-9.9-12.2-19.8-21.7-29.7-28.5c-17.9-12.4-38.2-18.6-60.8-18.6c-13.5,0-30,3.2-49.4,9.7c-18.7,6.5-32.3,9.7-40.8,9.7
			c-6.5,0-19.6-2.9-39.4-8.6c-20-5.7-36.8-8.6-50.5-8.6c-32.7,0-59.8,13.7-81.1,41.1C10.8,178.4,0,214,0,257.4
			c0,46.1,14,93.9,42,143.6c28.4,49.3,57,73.9,85.9,73.9c9.7,0,22.3-3.2,37.7-9.7c15.4-6.3,28.9-9.4,40.5-9.4
			c12.4,0,26.7,3,43.1,9.1c17.3,6.1,30.6,9.1,40,9.1c24.4,0,48.8-18.7,73.4-56c16-23.8,27.7-47.6,35.1-71.4
			C380.7,341.7,365.6,329.8,352.5,310.9z"/>
		<path class="st0" d="M255.4,90.2c12-12,20.8-25.1,26.6-39.4c5.5-14.3,8.3-27.2,8.3-38.8c0-0.8,0-1.7-0.1-2.9
			c-0.1-1.1-0.1-2.1-0.1-2.9c-0.2-0.6-0.4-1.6-0.7-3.1s-0.5-2.6-0.7-3.1c-33.7,7.8-57.5,21.9-71.5,42.3
			c-14.3,20.6-21.7,45-22.3,73.4c12.8-1.1,22.6-2.8,29.7-4.9C234.9,107.4,245.1,100.5,255.4,90.2z"/>
	</g>
</g>
</svg>
