<?xml version="1.0" encoding="UTF-8" standalone="no"?>
<!-- Created with Inkscape (http://www.inkscape.org/) -->

<svg
   xmlns:dc="http://purl.org/dc/elements/1.1/"
   xmlns:cc="http://creativecommons.org/ns#"
   xmlns:rdf="http://www.w3.org/1999/02/22-rdf-syntax-ns#"
   xmlns:svg="http://www.w3.org/2000/svg"
   xmlns="http://www.w3.org/2000/svg"
   version="1.1"
   width="797.24377"
   height="67.556252"
   id="svg23413">
  <defs
     id="defs23415" />
  <metadata
     id="metadata23418">
    <rdf:RDF>
      <cc:Work
         rdf:about="">
        <dc:format>image/svg+xml</dc:format>
        <dc:type
           rdf:resource="http://purl.org/dc/dcmitype/StillImage" />
        <dc:title></dc:title>
      </cc:Work>
    </rdf:RDF>
  </metadata>
  <g
     transform="translate(-67.092411,-701.4412)"
     id="layer1">
    <path
       d="m 860.08366,759.7187 c -2.31875,0 -4.2525,1.93375 -4.2525,4.54375 0,2.60875 1.93375,4.5425 4.2525,4.5425 2.31875,0 4.2525,-1.93375 4.2525,-4.5425 0,-2.61 -1.93375,-4.54375 -4.2525,-4.54375 m -153.8625,8.795 19.52125,0 0,-1.73875 -2.12375,-0.48375 c -1.93375,-0.48375 -2.805,-1.54625 -2.805,-4.25375 l 0,-26.28625 4.54375,0 c 2.8025,0 4.2525,0.67625 4.445,6.5725 l 0.48375,12.37 c 0.38625,11.11375 3.57625,14.2075 8.99,14.2075 5.5075,0 6.9575,-3.77 6.9575,-9.085 l 0,-2.22375 -2.03125,0 0,1.6425 c 0,3.5775 -0.48125,6.09 -1.83625,6.09 -1.255,0 -1.3525,-0.96625 -1.6425,-5.4125 l -0.57875,-8.50375 c -0.77375,-11.405 -2.22375,-15.3675 -10.6325,-16.915 8.0225,-2.125 12.95125,-8.02125 12.95125,-16.43 0,-10.92125 -8.60125,-16.14 -16.81625,-16.14 l -32.95625,0 0,1.74 1.83625,0.38625 c 3.47875,0.77375 3.57625,2.61 3.57625,10.43875 l 0,38.465 c 0,8.6025 -2.4175,12.7575 -7.9275,12.7575 -4.92625,0 -7.63375,-2.41625 -7.63375,-11.79125 l 0,-45.71375 c 0,-2.70625 0.86875,-3.47875 2.995,-3.9625 l 2.61,-0.58 0,-1.74 -20.1975,0 0,1.74 2.12375,0.58 c 1.93375,0.58 2.61,1.35375 2.61,4.05875 l 0,44.94125 c 0,10.1475 5.89625,15.75375 14.885,15.75375 8.9875,0 13.4325,-5.60625 13.4325,-16.04375 l 0,-41.945 c 0,-5.21875 1.065,-7.055 5.315,-7.055 3.38375,0 4.835,1.16 4.835,4.34875 l 0,53.735 c 0,2.7075 -0.87,3.67375 -2.80375,4.1575 l -2.12625,0.58 0,1.73875 z m 129.7,-60.21125 c 0,-2.705 0.87125,-3.575 2.8025,-3.9625 l 2.61,-0.58 0,-1.83625 -20.1025,0 0,1.74 2.12625,0.58 c 1.93375,0.58 2.8025,1.35375 2.8025,4.05875 l 0,54.12375 c 0,2.60875 -1.06125,4.05875 -4.06,4.05875 -3.47875,0 -3.9625,-1.16 -5.2175,-6.86125 l -12.37,-57.8925 -3.8675,0 -11.78875,56.055 c -1.355,6.28125 -2.03125,7.7325 -4.64125,8.505 l -1.64375,0.48375 0,1.73875 13.82125,0 0,-1.73875 -2.02875,-0.3875 c -2.9,-0.58 -3.6725,-2.125 -2.2225,-9.47125 l 6.95875,-35.85625 7.63375,37.9825 c 1.16,5.50875 1.065,6.5725 -3.0925,7.345 l -2.02875,0.3875 0,1.73875 51.2225,0 0,-22.035 -1.83625,0 c -0.96625,10.1475 -2.995,19.71625 -11.21,19.71625 l -3.8675,0 0,-57.8925 z m -30.15375,42.235 0,-2.60875 -13.0475,0 -0.385,2.60875 13.4325,0 z m -53.92875,-41.075 0,46.1975 c 0,6.95875 0,10.245 -3.47875,10.825 l -1.74,0.29 0,1.73875 14.20625,0 0,-1.73875 c -6.185,-0.87 -6.185,-2.99625 -6.185,-10.535 l 0,-43.8775 -2.31875,-2.12625 23.67875,58.2775 4.0575,0 0,-53.735 c 0,-7.925 0,-9.665 3.8675,-10.72875 l 1.3525,-0.38625 0,-1.74 -14.595,0 0,1.74 1.64375,0.38625 c 4.92875,0.87 4.92875,2.80375 4.92875,10.14875 l 0,33.6325 0.9675,-0.29 -17.97625,-45.6175 -13.82125,0 0,1.74 1.3525,0.38625 c 1.54875,0.48375 2.4175,2.22375 4.06,5.4125 m -31.025,-5.21875 3.8675,0 c 3.865,0 7.44125,2.5125 7.44125,15.0775 0,12.85375 -2.705,14.11 -8.1175,14.11 l -3.19125,0 0,-29.1875 z m -64.365,30.3475 c 0,27.93 -2.32,31.89375 -7.34625,31.89375 -5.025,0 -7.24875,-3.96375 -7.24875,-31.70125 0,-26.8675 2.4175,-30.73375 7.24875,-30.73375 5.02625,0 7.34625,3.86625 7.34625,30.54125 m 10.535,0.58 c 0,-18.46 -5.89625,-33.73 -17.88125,-33.73 -12.08,0 -17.78375,15.27 -17.78375,33.73 0,18.55625 5.89625,33.82625 17.78375,33.82625 12.275,0 17.88125,-15.27 17.88125,-33.82625 m -41.365,-26.86875 c 0,-2.705 0.67625,-3.575 2.6075,-4.05875 l 2.12625,-0.58 0,-1.74 -20.005,0 0,1.74 2.415,0.58 c 1.9325,0.48375 2.9975,1.16 2.9975,3.9625 l 0,46.4875 c 0,6.475 -0.58125,11.69375 -5.4125,11.69375 -3.09375,0 -5.4125,-2.41625 -5.315,-4.155 0.2875,-2.9975 5.315,-2.8025 5.70125,-7.63625 0.29,-3.47875 -1.93375,-4.92875 -3.9625,-5.2175 -2.99625,-0.3875 -6.6675,2.125 -6.76625,7.15125 -0.0975,6.475 4.15625,12.37125 11.405,12.37125 8.0225,0 14.20875,-5.4125 14.20875,-15.755 l 0,-44.84375 z m -322.80375,0 c 0,-2.705 0.87,-3.575 2.8025,-3.9625 l 2.61,-0.58 0,-1.83625 -20.1025,0 0,1.74 2.12625,0.58 c 1.9325,0.58 2.8025,1.35375 2.8025,4.05875 l 0,54.12375 c 0,2.60875 -1.06375,4.05875 -4.06,4.05875 -3.47875,0 -4.05875,-1.16 -5.315,-6.86125 l -12.37125,-57.8925 -3.865,0 -11.79125,56.055 c -1.3525,6.28125 -2.03,7.7325 -4.63875,8.505 l -1.64375,0.48375 0,1.73875 13.82125,0 0,-1.73875 -2.03,-0.3875 c -2.89875,-0.58 -3.6725,-2.125 -2.2225,-9.47125 l 6.95875,-36.05 7.635,38.17625 c 1.0625,5.50875 1.0625,6.5725 -3.0925,7.345 l -2.03,0.3875 0,1.73875 51.32,0 0,-22.035 -1.83625,0 c -0.96625,10.1475 -2.99625,19.71625 -11.21125,19.71625 l -3.86625,0 0,-57.8925 z m 269.065,-4.05875 2.1275,0 c 5.99375,0 8.0225,9.5675 8.69875,19.71625 l 1.835,0 0,-22.03625 -35.0825,0 0,22.03625 1.83625,0 c 0.6775,-10.14875 2.7075,-19.71625 8.69875,-19.71625 l 2.12625,0 0,57.79375 c 0,2.7075 -0.86875,3.67375 -2.8025,4.1575 l -2.5125,0.58 0,1.73875 20.87625,0 0,-1.73875 -2.9975,-0.67625 c -1.83625,-0.48375 -2.80375,-1.06375 -2.80375,-4.06125 l 0,-57.79375 z m -44.16625,30.83 2.995,0.0975 c 4.35,0.0963 5.605,1.74 6.4775,12.275 l 1.835,0 0,-26.86875 -1.835,0 c -1.065,8.40875 -2.225,11.98375 -6.38,12.08125 l -3.0925,0.0963 0,-28.51125 6.66875,0 c 7.4425,0 9.085,9.375 10.1475,19.71625 l 1.83625,0 0,-22.03625 -33.3425,0 0,1.74 2.12625,0.58 c 2.22125,0.58 2.8025,1.93375 2.8025,4.15625 l 0,53.6375 c 0,2.7075 -0.86875,3.67375 -2.8025,4.1575 l -2.12625,0.58 0,1.73875 34.30875,0 0,-22.035 -1.83625,0 c -1.16,10.05125 -2.41625,19.71625 -11.11375,19.71625 l -6.66875,0 0,-31.12125 z m -36.43625,0 2.99625,0.0975 c 4.34875,0.0963 5.605,1.74 6.475,12.275 l 1.83625,0 0,-26.86875 -1.83625,0 c -1.0625,8.40875 -2.2225,11.98375 -6.3775,12.08125 l -3.09375,0.0963 0,-28.51125 6.66875,0 c 7.4425,0 9.085,9.5675 10.1475,19.71625 l 1.83625,0 0,-22.03625 -34.30875,0 0,1.74 3.0925,0.58 c 2.2225,0.58 2.8025,1.93375 2.8025,4.15625 l 0,53.6375 c 0,2.7075 -0.87,3.67375 -2.8025,4.1575 l -2.12625,0.58 0,1.73875 34.30875,0 0,-22.035 -1.835,0 c -1.16,10.05125 -2.4175,19.71625 -11.115,19.71625 l -6.66875,0 0,-31.12125 z m -39.7225,-30.83 2.9,0 c 3.865,0 7.44125,2.5125 7.44125,15.0775 0,12.66 -2.705,14.11 -8.1175,14.11 l -2.22375,0 0,-29.1875 z m -14.59375,64.27 19.52375,0 0,-1.73875 -2.1275,-0.48375 c -1.9325,-0.48375 -2.8025,-1.54625 -2.8025,-4.25375 l 0,-26.28625 3.57625,0 c 2.8025,0 4.2525,1.16 4.44625,6.5725 l 0.4825,12.37 c 0.3875,11.11375 3.57625,14.2075 8.98875,14.2075 5.50875,0 6.9575,-3.77 6.9575,-9.085 l 0,-2.22375 -2.02875,0 0,1.6425 c 0,3.5775 -0.4825,6.09 -1.83625,6.09 -1.25625,0 -1.35375,-0.96625 -1.6425,-5.4125 l -0.58125,-8.50375 c -0.7725,-11.695 -2.31875,-15.3675 -10.63,-16.915 8.02125,-2.125 12.95,-8.02125 12.95,-16.43 0,-10.92125 -8.60125,-16.14 -16.81625,-16.14 l -18.46,0 0,1.74 2.12625,0.58 c 1.93375,0.58 2.8025,1.35375 2.8025,4.05875 l 0,53.735 c 0,2.7075 -0.86875,3.67375 -2.8025,4.1575 l -2.12625,0.58 0,1.73875 z m -14.78625,-64.27 2.12625,0 c 5.99125,0 8.02125,9.5675 8.69875,19.71625 l 1.835,0 0,-22.03625 -35.0825,0 0,22.03625 1.83625,0 c 0.67625,-10.14875 2.70625,-19.71625 8.69875,-19.71625 l 2.12625,0 0,57.79375 c 0,2.7075 -0.87125,3.67375 -2.8025,4.1575 l -2.51375,0.58 0,1.73875 20.3925,0 0,-1.73875 -2.5125,-0.58 c -2.5125,-0.58 -2.8025,-2.5125 -2.8025,-4.1575 l 0,-57.79375 z m -22.32625,46.97 c 0,-19.8125 -21.745,-25.03125 -21.745,-39.43125 0,-3.0925 1.16,-7.7325 5.99125,-7.7325 6.95875,0 9.56875,8.98875 10.72875,19.91 l 1.83625,0 0,-22.03625 -1.16,0 c -0.48375,2.12625 -1.35375,3.09375 -2.60875,3.09375 -2.22375,0 -3.38375,-3.48 -8.69875,-3.48 -8.215,0 -13.82125,6.8625 -13.82125,15.85 0,16.33375 21.74625,23.195 21.74625,38.2725 0,6.86125 -3.19,10.7275 -7.53875,10.7275 -6.475,0 -10.7275,-7.63375 -11.8875,-19.90875 l -1.83625,0 0,22.035 1.16,0 c 0.96625,-3.18875 2.2225,-3.47875 3.285,-3.47875 1.8375,0 3.77,3.86625 9.375,3.86625 8.6025,0 15.17375,-7.44125 15.17375,-17.6875 m -63.30375,-42.91125 c 0,-2.705 0.87,-3.575 2.8025,-3.9625 l 2.61,-0.58 0,-1.83625 -20.1025,0 0,1.74 2.12625,0.58 c 1.9325,0.58 2.8025,1.35375 2.8025,4.05875 l 0,53.735 c 0,2.7075 -0.87,3.67375 -2.8025,4.1575 l -2.12625,0.58 0,1.73875 31.60375,0 0,-22.035 -1.8375,0 c -0.965,10.1475 -2.995,19.71625 -11.21,19.71625 l -3.86625,0 0,-57.8925 z m -63.98125,42.235 0,-2.60875 -13.04625,0 -0.3875,2.60875 13.43375,0 z m -55.86125,18.17 3.9625,0 8.9875,-47.55 -1.3525,0 9.8575,47.55 3.48,0 11.79125,-56.055 c 1.25625,-5.89625 1.9325,-7.925 4.2525,-8.50625 l 1.83625,-0.4825 0,-1.74 -13.6275,0 0,1.74 2.03,0.38625 c 2.89875,0.58 3.575,2.32 2.2225,9.47125 l -7.635,37.59625 1.16,0 -7.7325,-39.625 c -0.77375,-3.77 -1.25625,-6.8625 1.93375,-7.4425 l 2.125,-0.38625 0,-1.74 -18.6525,0 0,1.74 1.25625,0.29 c 1.93375,0.4825 2.22375,1.64375 2.99625,5.31625 l 2.99625,14.4 -0.58,-8.69875 -6.66875,35.18 0.87,0 -7.82875,-38.65875 c -0.87,-3.9625 -1.16,-6.95875 1.9325,-7.53875 l 1.45125,-0.29 0,-1.74 -19.04,0 0,1.74 1.83625,0.4825 c 1.73875,0.48375 2.70625,1.35375 3.86625,6.66875 l 12.27375,57.8925 z m -51.61,-33.63375 2.99625,0.0975 c 4.34875,0.0963 5.605,1.74 6.475,12.275 l 1.83625,0 0,-26.86875 -1.83625,0 c -1.0625,8.40875 -2.2225,11.98375 -6.37875,12.08125 l -3.0925,0.0963 0,-28.51125 6.66875,0 c 7.44125,0 9.085,9.5675 10.1475,19.71625 l 1.83625,0 0,-22.03625 -33.3425,0 0,1.74 2.12625,0.58 c 2.2225,0.58 2.8025,1.93375 2.8025,4.15625 l 0,53.6375 c 0,2.7075 -0.87,3.67375 -2.8025,4.1575 l -2.12625,0.58 0,1.73875 34.31,0 0,-22.035 -1.8375,0 c -1.15875,10.05125 -2.415,19.71625 -11.11375,19.71625 l -6.66875,0 0,-31.12125 z m -60.79125,33.44 19.8125,0 0,-1.73875 -2.2225,-0.48375 c -1.74,-0.38625 -2.9,-1.54625 -2.9,-4.25375 l 0,-26.3825 14.59375,0 0,26.3825 c 0,2.7075 -1.15875,3.8675 -2.89875,4.25375 l -2.2225,0.48375 0,1.73875 19.8125,0 0,-1.73875 -2.12625,-0.58 c -1.9325,-0.48375 -2.80375,-1.5475 -2.80375,-4.2525 l 0,-53.64 c 0,-2.705 0.87125,-3.575 2.80375,-4.05875 l 2.12625,-0.58 0,-1.74 -19.8125,0 0,1.74 2.2225,0.58 c 1.6425,0.48375 2.89875,1.16 2.89875,3.9625 l 0,24.83875 -14.59375,0 0,-24.83875 c 0,-2.70625 1.06375,-3.47875 2.9,-3.9625 l 2.2225,-0.58 0,-1.74 -19.8125,0 0,1.74 2.12625,0.58 c 1.93375,0.58 2.8025,1.35375 2.8025,4.05875 l 0,53.735 c 0,2.7075 -0.86875,3.67375 -2.8025,4.1575 l -2.12625,0.58 0,1.73875 z m -14.787499,-64.27 2.1275,0 c 5.99125,0 8.02125,9.5675 8.697499,19.71625 l 1.83625,0 0,-22.03625 -35.082499,0 0,22.03625 1.83625,0 c 0.67625,-10.14875 2.70625,-19.71625 8.6975,-19.71625 l 2.12625,0 0,57.79375 c 0,2.7075 -0.86875,3.67375 -2.8025,4.1575 l -2.5125,0.58 0,1.73875 20.87625,0 0,-1.73875 -2.99625,-0.67625 c -1.83625,-0.48375 -2.80375,-1.06375 -2.80375,-4.06125 l 0,-57.79375 z"
       id="path13406"
       style="fill:#1c1c21;fill-opacity:1;fill-rule:nonzero;stroke:none" />
  </g>
</svg>
