<?xml version="1.0" encoding="utf-8"?>
<!-- Generator: Adobe Illustrator 19.2.1, SVG Export Plug-In . SVG Version: 6.00 Build 0)  -->
<svg version="1.1" id="Layer_1" xmlns="http://www.w3.org/2000/svg" xmlns:xlink="http://www.w3.org/1999/xlink" x="0px" y="0px"
	 viewBox="0 0 170 28" style="enable-background:new 0 0 170 28;" xml:space="preserve">
<g>
	<path d="M15.1,5.1c-0.6,0-1.1-0.1-1.7-0.1v9.7c0,0.2,0,0.3-0.2,0.4l-5.5,3.5c0.8,0.4,1.8,0.7,2.8,0.7c3.5,0,7.5-1.9,9.3-6.7
		c0.1-0.3,0.3-0.3,0.3,0.1v0.3c0,5.3-4,10-9.9,10C3.9,23.1,0,18.2,0,13.1c0-3.8,2.1-7.3,6.8-8.8C7,4.3,7,4.4,6.9,4.5
		c-2.1,1.6-3.2,4.3-3.2,6.9c0,2.8,1.1,5.6,3.6,7.1l1.4-1.1c0.5-0.4,0.6-0.7,0.6-1.2v-12C7.8,3.6,6.4,3.2,5.2,3.2
		C3.4,3.2,1.9,4,0.4,5.8C0.2,6,0.1,6,0.1,5.8C0.3,2.1,3.6,0,6.9,0c3.8,0,7.3,1.8,11.1,1.8c1.4,0,2.7-0.3,3.9-0.9
		c0.2-0.1,0.2,0.1,0.1,0.2C20.9,4.1,18,5.1,15.1,5.1z M33.1,22.8c-0.1,0.1-0.1,0.1-0.2,0l-2.6-2.3c-0.3-0.2-0.4-0.4-0.4-0.9v-9.1
		c0-0.1,0-0.2-0.1-0.3l-0.9-0.8c-0.1-0.1-0.2-0.1-0.4,0l-1.7,0.8v8.5c0,0.1,0,0.3,0.1,0.4l0.8,0.7c0.2,0.2,0.5,0.4,0.8,0.3l0.3-0.1
		c0.3-0.1,0.4,0.1,0.2,0.2l-3,2.6c-0.1,0.1-0.2,0.1-0.3,0l-2.7-2.4c-0.3-0.3-0.3-0.3-0.3-0.8V5c0-0.2,0-0.2-0.2-0.3l-0.3-0.3
		c-0.3-0.3-0.5-0.2-0.9,0l-0.7,0.3c-0.1,0-0.2-0.1,0-0.3L24,1.4c0.1-0.1,0.1-0.1,0.2,0l2.1,1.9c0.3,0.3,0.4,0.4,0.4,0.9v5.5l4.4-2.8
		c0.1-0.1,0.3-0.1,0.4,0l2.1,2C33.9,9.2,34,9.4,34,9.7v9.1c0,0.2,0,0.2,0.2,0.3l0.8,0.7c0.3,0.3,0.5,0.2,0.9,0l0.7-0.3
		c0.1,0,0.2,0.1,0,0.3L33.1,22.8z M47.1,11.8l-5.8,3.7v2.8c0,0.3,0,0.4,0.3,0.5l1.9,1c0.3,0.2,0.9,0.3,1.2,0.1l1.8-1
		c0.3-0.2,0.5-0.1,0.4,0.1L42,22.8c-0.1,0.1-0.1,0.1-0.2,0l-4.3-2.2c-0.3-0.2-0.4-0.2-0.4-0.7V9.4c0-0.2,0.1-0.2,0.3-0.3l7-2.2
		c0.1,0,0.2-0.1,0.3,0.1l2.6,4.6C47.3,11.7,47.3,11.8,47.1,11.8z M41.4,8.6L41.4,8.6l-0.1,6.4l2.3-1.9c0.1-0.1,0.1-0.2,0.1-0.3
		L41.4,8.6z M68.7,5.1c-0.6,0-1.1-0.1-1.7-0.1v9.7c0,0.2,0,0.3-0.2,0.4l-5.5,3.5c0.8,0.4,1.8,0.7,2.8,0.7c3.5,0,7.5-1.9,9.3-6.7
		c0.1-0.3,0.3-0.3,0.3,0.1v0.3c0,5.3-4,10-9.9,10c-6.4,0-10.3-4.9-10.3-9.9c0-3.8,2.1-7.3,6.8-8.8c0.2-0.1,0.2,0,0.1,0.1
		c-2.1,1.6-3.2,4.3-3.2,6.9c0,2.8,1.1,5.6,3.6,7.1l1.4-1c0.5-0.3,0.6-0.7,0.6-1.2V4.1c-1.5-0.6-2.9-0.9-4.1-0.9
		c-1.7,0-3.3,0.8-4.8,2.6c-0.2,0.2-0.3,0.2-0.3,0C53.9,2.1,57.3,0,60.6,0c3.8,0,7.3,1.8,11.1,1.8c1.4,0,2.7-0.3,3.9-0.9
		c0.2-0.1,0.2,0.1,0.1,0.2C74.5,4.1,71.6,5.1,68.7,5.1z M85.2,11.8l-5.8,3.7v2.8c0,0.3,0,0.4,0.3,0.5l1.9,1c0.3,0.2,0.9,0.3,1.2,0.1
		l1.8-1c0.3-0.2,0.5-0.1,0.4,0.1L80,22.8c-0.1,0.1-0.1,0.1-0.2,0l-4.3-2.2c-0.3-0.2-0.4-0.2-0.4-0.7V9.4c0-0.2,0.1-0.2,0.3-0.3
		l7-2.2c0.1,0,0.2-0.1,0.3,0.1l2.6,4.6C85.3,11.7,85.3,11.8,85.2,11.8z M79.4,8.6L79.4,8.6l-0.1,6.4l2.3-1.9
		c0.1-0.1,0.1-0.2,0.1-0.3L79.4,8.6z M89.7,22.8c-0.1,0.1-0.2,0.1-0.3,0l-2.7-2.4c-0.3-0.3-0.3-0.3-0.3-0.8V5c0-0.2,0-0.2-0.2-0.3
		l-0.3-0.3c-0.3-0.3-0.5-0.2-0.9,0l-0.7,0.3c-0.1,0-0.2-0.1,0-0.3l3.5-2.9c0.1-0.1,0.1-0.1,0.2,0l2.1,1.9c0.3,0.3,0.4,0.4,0.4,0.9
		v14.5c0,0.1,0,0.3,0.1,0.4l0.8,0.7c0.2,0.2,0.5,0.4,0.8,0.3l0.3-0.1c0.3-0.1,0.4,0.1,0.2,0.2L89.7,22.8z M103.6,11.8l-5.8,3.7v2.8
		c0,0.3,0,0.4,0.3,0.5l1.9,1c0.3,0.2,0.9,0.3,1.2,0.1l1.8-1c0.3-0.2,0.5-0.1,0.4,0.1l-4.8,3.9c-0.1,0.1-0.1,0.1-0.2,0l-4.3-2.2
		c-0.3-0.2-0.4-0.2-0.4-0.7V9.4c0-0.2,0.1-0.2,0.3-0.3l7-2.2c0.1,0,0.2-0.1,0.3,0.1l2.6,4.6C103.7,11.7,103.7,11.8,103.6,11.8z
		 M97.8,8.6L97.8,8.6l-0.1,6.4l2.3-1.9c0.1-0.1,0.1-0.2,0.1-0.3L97.8,8.6z M115.4,25l-3.6,2.9c-0.1,0.1-0.2,0.1-0.2,0
		c-1.9-1.3-3.4-1.9-5.1-1.9c-1.2,0-2.3,0.2-3.8,0.6c-0.1,0-0.2-0.1-0.1-0.2c1.6-2.3,3.5-3.1,5.3-3.1c2.6,0,5.1,1.6,6.1,2.3l0.1-0.1
		c0.3-0.6,0.4-1.2,0.4-1.7c0-1.7-1.4-3-3.1-3.9l-3.6,2.6c-0.1,0.1-0.2,0.1-0.3,0l-2.2-2c-0.3-0.3-0.4-0.4-0.4-0.8v-9.6
		c0-0.2,0.1-0.2,0.2-0.2l7.6-3.1c0.2-0.1,0.3-0.1,0.4,0l2.1,2.1c0.3,0.3,0.4,0.5,0.4,0.7v8.8c1.4,1,2,2,2,3.1
		C117.5,22.7,116.9,23.8,115.4,25z M111.3,10.4c0-0.1,0-0.2-0.2-0.4l-1.2-1.2c-0.1-0.1-0.1,0-0.2,0l-0.8,0.4v9.5
		c0,0.5,0.1,0.6,0.7,1.1c0.3,0.3,0.5,0.4,0.8,0.4c0.3,0,0.7-0.2,1-0.4C111.3,19.8,111.3,10.4,111.3,10.4z M126.2,11.1
		c-0.2,0.1-0.3,0.2-0.5,0.2c-0.2,0-0.3-0.1-0.5-0.2l-2-1.7L123,9.6v9.2c0,0.2,0,0.2,0.1,0.3l0.5,0.5c0.6,0.5,0.7,0.5,1.3,0.3
		l0.4-0.2c0.3-0.1,0.3,0,0.2,0.2l-3.4,2.9c-0.1,0.1-0.2,0.1-0.3,0l-2.6-2.3c-0.3-0.3-0.4-0.4-0.4-0.7v-9.4L118,9.5
		c-0.1-0.1-0.1-0.1-0.2,0l-1,0.6c-0.3,0.2-0.4-0.1-0.2-0.2l3.4-2.9c0.1-0.1,0.2-0.1,0.3,0l2.3,2.3l2.3-2.2c0.1-0.1,0.2-0.1,0.4,0
		l1.8,1.6c0.3,0.3,0.5,0.5,0.7,0.5c0.1,0,0.3-0.1,0.5-0.2l0.5-0.3c0.3-0.2,0.4,0.1,0.3,0.3L126.2,11.1z M138.3,22.8
		c-0.1,0.1-0.2,0.1-0.3,0l-3-2.6l-3.6,2.6c-0.1,0.1-0.2,0.1-0.3,0l-2.3-2c-0.4-0.3-0.4-0.4-0.4-0.8v-9.6c0-0.2,0.1-0.2,0.2-0.2
		l7.7-3.2c0.1-0.1,0.3-0.1,0.4,0.1l2,2c0.3,0.3,0.4,0.5,0.4,0.7V19l0.6,0.5c0.7,0.6,0.8,0.6,1.2,0.4l0.5-0.2c0.3-0.2,0.5,0,0.3,0.2
		L138.3,22.8z M135,10.5c0-0.2,0-0.3-0.2-0.5l-1.2-1.2c-0.1-0.1-0.1,0-0.2,0l-0.8,0.4v9.5c0,0.3,0.1,0.5,0.3,0.7l0.4,0.4
		c0.3,0.3,0.7,0.4,1.1,0.2l0.6-0.3L135,10.5L135,10.5z M153.7,20.3l-3,2.3c-0.3,0.3-0.4,0.2-0.8,0l-3.1-1.9v3.9l0.9,0.8
		c0.1,0.1,0.1,0.1,0,0.2L145,28c-0.1,0-0.1,0.1-0.3,0l-2.9-2.3c-0.1-0.1-0.1-0.1,0-0.2l0.7-0.8V10.4l-0.7-0.9c0,0-0.1,0-0.1,0
		l-1,0.5c-0.2,0.1-0.4,0-0.2-0.2l3.4-2.8c0.1-0.1,0.2-0.1,0.3,0l2.4,2.4l4.4-2.4c0.1-0.1,0.2,0,0.3,0l2.2,2c0.2,0.2,0.4,0.4,0.4,0.7
		v10.1C153.9,20,153.9,20.2,153.7,20.3z M149.7,10.6c0-0.2-0.1-0.4-0.2-0.5l-0.9-0.9c-0.1-0.1-0.1-0.1-0.2,0l-1.7,0.6v10.5l0.9,0.3
		c0.8,0.2,1.1,0.2,1.4-0.1l0.3-0.3c0.3-0.3,0.3-0.6,0.3-1.1L149.7,10.6L149.7,10.6z M166.4,22.8c-0.1,0.1-0.1,0.1-0.2,0l-2.6-2.3
		c-0.3-0.2-0.4-0.4-0.4-0.9v-9.1c0-0.1,0-0.2-0.1-0.3l-0.9-0.8c-0.1-0.1-0.2-0.1-0.4,0l-1.7,0.8v8.5c0,0.1,0,0.3,0.1,0.4l0.8,0.7
		c0.2,0.2,0.5,0.4,0.8,0.3l0.3-0.1c0.3-0.1,0.4,0.1,0.2,0.2l-3,2.6c-0.1,0.1-0.2,0.1-0.3,0l-2.7-2.4c-0.3-0.3-0.3-0.3-0.3-0.8V5
		c0-0.2,0-0.2-0.2-0.3l-0.3-0.3c-0.3-0.3-0.5-0.2-0.9,0l-0.7,0.3c-0.1,0-0.2-0.1,0-0.3l3.5-2.9c0.1-0.1,0.1-0.1,0.2,0l2.1,1.9
		c0.3,0.3,0.4,0.4,0.4,0.9v5.5l4.4-2.8c0.1-0.1,0.3-0.1,0.4,0l2.1,2c0.3,0.3,0.4,0.5,0.4,0.8v9.1c0,0.2,0,0.2,0.2,0.3l0.8,0.7
		c0.3,0.3,0.5,0.2,0.9,0l0.7-0.3c0.1,0,0.2,0.1,0,0.3L166.4,22.8z"/>
</g>
</svg>
