<?xml version="1.0" encoding="utf-8"?>
<!-- Generator: Adobe Illustrator 19.2.1, SVG Export Plug-In . SVG Version: 6.00 Build 0)  -->
<svg version="1.1" id="Layer_1" xmlns="http://www.w3.org/2000/svg" xmlns:xlink="http://www.w3.org/1999/xlink" x="0px" y="0px"
	 viewBox="0 0 83 56.8" style="enable-background:new 0 0 83 56.8;" xml:space="preserve">
<style type="text/css">
	.st0{fill:#0A9E01;}
	.st1{fill:#343C34;}
</style>
<g>
	<path class="st0" d="M41.5,0H0v13.7h13.7v28.3h14V13.7h13.7V0z M55.2,0H83v13.7H55.2V0z M55.2,27.6V13.7H41.5v28.3H83V27.6
		L55.2,27.6z"/>
</g>
<path class="st0" d="M5.7,47.8v8.6H3.4v-8.6H0v-1.7h8.6v1.7H5.7z M15,52.9h-4.8c0.1,1.1,0.9,1.7,1.6,1.7c0.6,0,1.1-0.1,1.4-0.5
	l1.5,1.3c-0.6,0.8-1.8,1.3-2.8,1.3c-2.3,0-3.7-1.6-3.7-4.1c0-2.4,1.5-4.2,3.5-4.2c2.1,0,3.3,1.7,3.3,4C15,52.7,15,52.9,15,52.9
	L15,52.9z M11.6,50.4c-0.8,0-1.2,0.3-1.3,1.4H13C13,50.7,12.5,50.4,11.6,50.4z M20,56.8c-2.1,0-3.7-1.7-3.7-4.1s1.6-4.2,3.8-4.2
	c1.5,0,2.5,0.7,3.2,1.8l-1.4,1.4c-0.5-0.7-1-1.1-1.8-1.1c-1,0-1.7,0.8-1.7,2.1c0,1.3,0.7,2.1,1.7,2.1c0.8,0,1.3-0.4,1.9-1l1.3,1.3
	C22.5,56,21.6,56.8,20,56.8L20,56.8z M29.5,56.4v-4.1c0-1.4-0.3-1.8-1.1-1.8s-1.2,0.4-1.2,1.8v4.1h-2.3v-9.8l2.3-1v3.6
	c0-0.4,0.9-0.7,1.8-0.7c2,0,2.8,1.4,2.8,3.6v4.3L29.5,56.4L29.5,56.4z"/>
<path class="st1" d="M40.1,49.1c-0.4-0.7-1-1.2-1.9-1.2c-1.6,0-2.5,1.4-2.5,3.4c0,1.9,0.9,3.4,2.5,3.4c1,0,1.5-0.4,2.1-1.3l1.8,1.1
	c-0.7,1.5-2,2.4-3.9,2.4c-2.8,0-4.6-2.1-4.6-5.5c0-3.2,1.9-5.5,4.7-5.5c2,0,3.2,1,3.9,2.3L40.1,49.1L40.1,49.1z M47.9,51.1
	c-0.3-0.3-0.7-0.5-1.1-0.5c-0.8,0-1.3,0.3-1.3,1.7v4.1h-2.3v-8h2.3v0.8c0.6-0.4,0.8-0.7,1.6-0.7c0.7,0,1.2,0.3,1.4,0.6L47.9,51.1
	L47.9,51.1z M54.7,56.3v-0.2c-0.6,0.4-0.9,0.7-1.8,0.7c-2,0-2.8-1.4-2.8-3.6v-4.8h1.7v4.6c0,1.4,0.6,1.8,1.4,1.8s1.4-0.4,1.4-1.8
	v-4.6H57v8L54.7,56.3L54.7,56.3L54.7,56.3z M63,56.4v-4.1c0-1.4-0.1-1.8-1-1.8c-0.9,0-1,0.4-1,1.8v4.1h-2.3v-8H61v0.8
	c0-0.4,0.8-0.7,1.6-0.7c2,0,2.7,1.4,2.7,3.6v4.3L63,56.4L63,56.4z M70.8,56.8c-2.1,0-3.7-1.7-3.7-4.1s1.6-4.2,3.8-4.2
	c1.5,0,2.5,0.7,3.2,1.8l-1.4,1.4c-0.5-0.7-1-1.1-1.8-1.1c-1,0-1.7,0.8-1.7,2.1c0,1.3,0.7,2.1,1.7,2.1c0.8,0,1.3-0.4,1.9-1l1.3,1.3
	C73.3,56,72.4,56.8,70.8,56.8L70.8,56.8z M80.1,56.6v-4.3c0-1.4-0.3-1.8-1.1-1.8c-0.9,0-1.2,0.4-1.2,1.8v4.1h-2.3v-9.8l2.3-1v3.6
	c0-0.4,0.9-0.7,1.8-0.7c2,0,2.8,1.4,2.8,3.6v4.3h-2.2L80.1,56.6L80.1,56.6z"/>
</svg>
