<?xml version="1.0" encoding="UTF-8"?>
<svg width="32px" height="32px" viewBox="0 0 32 32" version="1.1" xmlns="http://www.w3.org/2000/svg" xmlns:xlink="http://www.w3.org/1999/xlink">
    <!-- Generator: Sketch 47.1 (45422) - http://www.bohemiancoding.com/sketch -->
    <title>Switch</title>
    <desc>Created with Sketch.</desc>
    <defs></defs>
    <g id="ShapeShift-V1-Final-Designs" stroke="none" stroke-width="1" fill="none" fill-rule="evenodd">
        <g id="2.-One-btc-wallet-One-ETH-wallet-only" transform="translate(-599.000000, -314.000000)" fill-rule="nonzero">
            <g id="Switch" transform="translate(599.000000, 314.000000)">
                <path d="M16,32 C7.1775,32 0,24.8225 0,16 C0,7.1775 7.1775,0 16,0 C24.8225,0 32,7.1775 32,16 C32,24.8225 24.8225,32 16,32 Z M16,1.5 C8.0045,1.5 1.5,8.0045 1.5,16 C1.5,23.995 8.0045,30.5 16,30.5 C23.995,30.5 30.5,23.995 30.5,16 C30.5,8.0045 23.995,1.5 16,1.5 Z" id="Shape-Copy-4" fill="#5F5F5F" transform="translate(16.000000, 16.000000) scale(-1, -1) translate(-16.000000, -16.000000) "></path>
                <path d="M20.0834349,23.2177026 L16.5504349,27.4542026 C16.5154349,27.5022026 16.4764349,27.5472026 16.4294349,27.5862026 C16.3079349,27.6877026 16.1629349,27.7432026 16.0164349,27.7562026 C15.9934349,27.7582026 15.9704349,27.7562026 15.9469349,27.7572026 C15.9239349,27.7562026 15.9009349,27.7582026 15.8774349,27.7562026 C15.7309349,27.7437026 15.5859349,27.6877026 15.4644349,27.5862026 C15.4169349,27.5472026 15.3779349,27.5022026 15.3434349,27.4542026 L11.8109349,23.2177026 C11.5454349,22.8992026 11.5884349,22.4267026 11.9064349,22.1612026 C12.2249349,21.8967026 12.6974349,21.9397026 12.9629349,22.2567026 L15.1969349,24.9362026 L15.1969349,13.6132026 C15.1969349,13.1992026 15.5329349,12.8632026 15.9469349,12.8632026 C16.3614349,12.8632026 16.6969349,13.1992026 16.6969349,13.6132026 L16.6969349,24.9367026 L18.9314349,22.2582026 C19.1969349,21.9397026 19.6699349,21.8967026 19.9879349,22.1627026 C20.3054349,22.4267026 20.3484349,22.8997026 20.0834349,23.2177026 Z" id="Shape-Copy-5" fill="#10ADE4" transform="translate(15.947000, 20.310203) scale(-1, -1) rotate(90.000000) translate(-15.947000, -20.310203) "></path>
                <path d="M20.0839106,9.4026356 L16.5514106,5.1656356 C16.5164106,5.1181356 16.4774106,5.0731356 16.4304106,5.0341356 C16.3084106,4.9326356 16.1639106,4.8771356 16.0169106,4.8636356 C15.9939106,4.8616356 15.9709106,4.8636356 15.9479106,4.8631356 C15.9249106,4.8636356 15.9014106,4.8616356 15.8784106,4.8636356 C15.7314106,4.8766356 15.5869106,4.9326356 15.4649106,5.0341356 C15.4179106,5.0731356 15.3789106,5.1181356 15.3439106,5.1656356 L11.8114106,9.4026356 C11.5459106,9.7211356 11.5889106,10.1936356 11.9069106,10.4586356 C12.2254106,10.7236356 12.6979106,10.6806356 12.9634106,10.3631356 L15.1974106,7.6841356 L15.1974106,19.0076356 C15.1974106,19.4216356 15.5329106,19.7576356 15.9474106,19.7576356 C16.3619106,19.7576356 16.6974106,19.4216356 16.6974106,19.0076356 L16.6974106,7.6841356 L18.9314106,10.3626356 C19.1969106,10.6811356 19.6699106,10.7241356 19.9879106,10.4581356 C20.3059106,10.1936356 20.3489106,9.7211356 20.0839106,9.4026356 Z" id="Shape-Copy-6" fill="#10ADE4" transform="translate(15.947454, 12.310181) scale(-1, -1) rotate(90.000000) translate(-15.947454, -12.310181) "></path>
            </g>
        </g>
    </g>
</svg>